<?xml version="1.0" standalone="no"?>
<!DOCTYPE svg PUBLIC "-//W3C//DTD SVG 20010904//EN"
 "http://www.w3.org/TR/2001/REC-SVG-20010904/DTD/svg10.dtd">
<svg version="1.0" xmlns="http://www.w3.org/2000/svg"
 width="700.000000pt" height="700.000000pt" viewBox="0 0 700.000000 700.000000"
 preserveAspectRatio="xMidYMid meet">
<metadata>
Created by potrace 1.11, written by Peter Selinger 2001-2013
</metadata>
<g transform="translate(0.000000,700.000000) scale(0.100000,-0.100000)"
fill="#000000" stroke="none">
<path d="M1864 6401 c-2 -2 -4 -15 -4 -28 0 -26 -3 -27 -29 -14 -14 8 -21 3
-36 -27 -11 -20 -32 -58 -47 -83 -35 -57 -35 -65 0 -83 l28 -14 49 86 c27 48
52 89 57 93 4 3 48 5 98 4 l90 -1 0 36 0 36 -101 0 c-55 0 -102 -3 -105 -5z"/>
<path d="M2280 6370 l0 -35 105 0 105 0 0 36 0 36 -105 -1 -105 0 0 -36z"/>
<path d="M2705 6402 c-3 -3 -5 -19 -5 -36 l0 -31 105 -1 105 0 0 36 0 35 -100
1 c-55 0 -102 -2 -105 -4z"/>
<path d="M3120 6370 l0 -35 105 -1 105 0 0 36 0 36 -105 0 -105 -1 0 -35z"/>
<path d="M3543 6393 c-3 -6 -3 -22 -1 -35 3 -22 6 -23 106 -24 l102 0 0 36 0
36 -101 0 c-69 -1 -103 -5 -106 -13z"/>
<path d="M3960 6370 l0 -35 105 0 105 0 0 36 0 36 -105 -1 -105 0 0 -36z"/>
<path d="M4385 6402 c-3 -3 -5 -19 -5 -36 l0 -31 105 0 105 0 0 35 0 35 -100
1 c-55 1 -102 -1 -105 -4z"/>
<path d="M4800 6370 l0 -36 105 0 105 0 0 36 0 36 -105 0 -105 -1 0 -35z"/>
<path d="M5163 6284 l-22 -16 51 -86 c28 -48 52 -89 54 -91 2 -2 16 5 33 15
l29 19 -51 88 c-28 48 -56 87 -62 86 -5 0 -20 -7 -32 -15z"/>
<path d="M1983 6232 l-23 -17 49 -84 c26 -47 52 -86 58 -88 5 -2 20 5 33 15
l23 19 -49 83 c-27 46 -53 85 -59 86 -5 2 -20 -4 -32 -14z"/>
<path d="M1553 5910 l-52 -90 31 -16 c16 -8 31 -14 33 -12 2 2 26 42 54 90
l50 88 -29 15 c-16 8 -31 15 -32 15 -2 0 -27 -41 -55 -90z"/>
<path d="M5379 5922 l-27 -17 52 -87 c28 -49 54 -88 59 -88 4 0 18 7 31 16
l24 15 -51 90 c-28 49 -54 89 -57 89 -3 0 -17 -8 -31 -18z"/>
<path d="M2200 5873 c-14 -9 -26 -17 -28 -19 -2 -1 20 -43 48 -93 l52 -91 29
17 c19 12 27 23 24 33 -6 16 -96 170 -99 170 -1 0 -13 -8 -26 -17z"/>
<path d="M1345 5553 c-27 -48 -51 -90 -53 -93 -3 -8 58 -33 65 -26 3 3 27 43
53 88 l47 83 -29 17 c-15 10 -29 18 -31 18 -1 0 -24 -39 -52 -87z"/>
<path d="M5597 5564 c-15 -8 -27 -19 -27 -25 0 -10 73 -141 92 -166 7 -8 16
-7 38 5 l29 17 -36 65 c-71 126 -65 120 -96 104z"/>
<path d="M2400 5502 l-22 -17 52 -88 51 -87 30 16 c17 8 29 18 27 22 -25 55
-96 172 -104 172 -7 0 -22 -8 -34 -18z"/>
<path d="M1132 5183 l-50 -87 26 -17 c15 -9 31 -13 35 -9 5 4 30 44 57 89 48
81 48 81 27 96 -12 8 -27 15 -33 15 -7 0 -35 -39 -62 -87z"/>
<path d="M5803 5198 c-29 -14 -29 -21 4 -77 73 -126 70 -123 104 -106 16 9 28
19 26 23 -65 114 -100 172 -105 171 -4 0 -17 -5 -29 -11z"/>
<path d="M2611 5141 l-24 -19 48 -83 c27 -46 50 -86 51 -88 4 -5 64 20 64 27
0 10 -102 182 -108 182 -4 0 -18 -9 -31 -19z"/>
<path d="M943 4858 c-17 -29 -41 -70 -53 -90 l-21 -37 31 -16 c18 -9 33 -15
35 -13 2 2 26 42 54 90 l50 88 -29 15 c-16 8 -30 15 -32 15 -2 0 -17 -24 -35
-52z"/>
<path d="M6011 4831 l-24 -18 49 -87 c27 -47 54 -86 60 -86 7 0 21 8 33 18
l21 17 -50 85 c-28 47 -53 86 -58 87 -4 2 -18 -6 -31 -16z"/>
<path d="M2827 4782 c-15 -9 -27 -20 -27 -23 0 -4 23 -46 51 -93 l50 -86 29
15 c34 18 33 22 -22 113 -21 34 -38 67 -38 72 0 17 -16 18 -43 2z"/>
<path d="M713 4460 l-52 -90 22 -15 c12 -8 26 -15 32 -15 10 0 105 153 105
169 0 7 -44 41 -52 41 -2 0 -26 -41 -55 -90z"/>
<path d="M6227 4472 c-15 -9 -27 -20 -27 -23 0 -4 23 -46 51 -93 42 -72 53
-85 67 -76 46 26 46 24 2 101 -68 116 -61 110 -93 91z"/>
<path d="M3033 4416 c-13 -6 -23 -14 -23 -18 0 -8 41 -83 79 -145 l27 -42 27
22 27 22 -51 88 c-28 48 -54 86 -57 86 -4 -1 -17 -6 -29 -13z"/>
<path d="M532 4148 c-10 -18 -33 -58 -50 -89 l-31 -55 29 -17 29 -18 25 39
c13 21 37 62 53 90 28 50 28 51 8 66 -30 23 -41 20 -63 -16z"/>
<path d="M6433 4108 c-13 -6 -23 -15 -23 -19 0 -5 23 -47 50 -94 l51 -85 29
15 c17 9 30 17 30 19 0 11 -102 176 -108 175 -4 0 -17 -5 -29 -11z"/>
<path d="M3247 4054 c-15 -8 -27 -19 -27 -24 0 -8 49 -96 86 -157 13 -21 15
-22 44 -5 l29 17 -41 75 c-62 114 -59 110 -91 94z"/>
<path d="M292 3733 l-52 -88 23 -17 c12 -10 27 -18 32 -18 6 0 33 40 61 89
l51 88 -28 17 c-15 9 -29 16 -31 16 -2 0 -27 -39 -56 -87z"/>
<path d="M6641 3741 l-24 -18 37 -62 c20 -34 36 -64 36 -67 0 -2 -31 -4 -70
-4 -38 0 -70 -3 -71 -7 0 -5 -2 -20 -3 -35 l-2 -28 106 0 c101 0 106 1 107 22
1 11 8 25 14 29 9 5 -2 32 -38 95 -28 49 -55 90 -60 91 -4 1 -19 -6 -32 -16z"/>
<path d="M3449 3683 l-27 -16 34 -56 c19 -31 34 -64 34 -73 0 -10 12 -25 26
-34 22 -15 27 -15 39 -3 7 8 15 21 17 30 3 16 -79 169 -91 169 -3 0 -18 -8
-32 -17z"/>
<path d="M4520 3581 c-58 -5 -75 -9 -74 -21 1 -8 2 -23 3 -33 1 -16 11 -17
104 -15 l102 3 2 33 c1 25 -3 32 -17 32 -10 0 -24 1 -32 3 -7 2 -47 1 -88 -2z"/>
<path d="M4875 3576 c-8 -6 -13 -20 -10 -31 2 -11 4 -23 4 -27 1 -4 47 -6 103
-5 l102 2 3 33 c2 17 -1 32 -5 33 -49 7 -186 3 -197 -5z"/>
<path d="M5289 3578 c-2 -10 -2 -46 0 -56 1 -6 163 -9 204 -3 4 1 6 13 3 29
-2 15 -5 30 -5 33 -1 9 -201 6 -202 -3z"/>
<path d="M5709 3580 c-2 -13 -2 -48 0 -57 0 -5 47 -8 103 -7 l103 1 1 37 1 36
-103 0 c-62 0 -104 -4 -105 -10z"/>
<path d="M6129 3585 c-2 -6 -2 -41 0 -57 1 -10 27 -12 104 -10 l104 3 0 35 0
34 -104 0 c-56 0 -103 -2 -104 -5z"/>
<path d="M3609 3573 c-11 -66 -4 -69 120 -65 l88 3 -1 32 -1 32 -102 3 c-57 1
-104 -1 -104 -5z"/>
<path d="M4027 3573 c-2 -5 -3 -19 -3 -33 1 -25 2 -25 107 -28 l106 -3 1 36 1
35 -104 0 c-57 0 -106 -3 -108 -7z"/>
<path d="M288 3443 l-28 -14 20 -38 c10 -22 34 -64 52 -94 33 -55 34 -55 61
-40 21 10 26 19 22 34 -7 23 -80 149 -92 159 -4 4 -20 0 -35 -7z"/>
<path d="M3422 3418 c-7 -7 -12 -15 -12 -19 0 -5 -29 -58 -65 -119 -36 -61
-65 -115 -65 -119 0 -4 11 -14 25 -21 22 -12 28 -12 38 1 19 20 147 246 147
258 0 10 -32 31 -47 31 -5 0 -14 -5 -21 -12z"/>
<path d="M6614 3382 c-6 -9 -26 -44 -44 -77 -18 -33 -37 -66 -43 -73 -5 -7 -8
-14 -6 -15 2 -2 16 -11 31 -20 l27 -17 51 85 c27 47 50 90 50 95 0 5 -13 16
-28 24 -25 13 -29 13 -38 -2z"/>
<path d="M492 3073 c-21 -18 -21 -18 24 -93 25 -41 49 -81 53 -88 6 -11 13
-10 38 4 l30 18 -51 88 c-27 48 -56 88 -62 88 -6 0 -21 -8 -32 -17z"/>
<path d="M3205 3040 c-9 -17 -40 -71 -70 -121 -71 -119 -73 -124 -37 -143 l29
-15 76 133 c43 74 77 138 77 143 0 8 -42 33 -55 33 -3 0 -12 -14 -20 -30z"/>
<path d="M6373 2963 c-69 -117 -68 -110 -32 -128 17 -9 32 -15 33 -13 24 38
96 170 96 176 0 7 -42 32 -54 32 -2 0 -22 -30 -43 -67z"/>
<path d="M707 2714 l-27 -15 27 -47 c31 -54 74 -125 79 -131 6 -7 54 22 54 32
0 12 -93 177 -100 177 -3 -1 -17 -8 -33 -16z"/>
<path d="M2937 2577 c-42 -74 -77 -138 -77 -144 0 -13 51 -36 60 -26 4 4 41
67 82 139 l76 131 -28 17 c-16 9 -30 16 -32 16 -2 0 -38 -60 -81 -133z"/>
<path d="M6151 2583 l-51 -88 21 -17 c12 -10 26 -18 33 -18 6 0 33 39 60 86
l49 87 -24 18 c-13 10 -27 19 -31 19 -3 0 -29 -39 -57 -87z"/>
<path d="M923 2351 l-32 -16 50 -87 c28 -49 56 -88 62 -88 7 1 22 6 34 13 22
12 22 12 -30 104 l-53 91 -31 -17z"/>
<path d="M2727 2216 c-42 -74 -77 -137 -77 -141 0 -10 32 -34 46 -35 11 0 164
252 164 269 0 4 -13 14 -28 23 l-28 17 -77 -133z"/>
<path d="M5941 2218 c-55 -94 -55 -92 -10 -118 21 -12 23 -9 79 94 34 63 40
80 29 87 -44 30 -43 31 -98 -63z"/>
<path d="M1123 1984 l-21 -15 51 -87 c28 -48 52 -89 54 -91 1 -2 16 5 32 16
l30 19 -51 87 c-28 48 -56 87 -62 86 -6 0 -21 -7 -33 -15z"/>
<path d="M2552 1913 c-22 -38 -50 -86 -62 -108 -12 -22 -30 -54 -41 -71 l-18
-31 32 -15 32 -15 78 133 c42 73 77 137 77 142 0 7 -42 32 -55 32 -2 0 -22
-30 -43 -67z"/>
<path d="M5730 1853 l-51 -87 23 -18 c13 -10 27 -16 33 -15 5 2 31 41 59 87
l49 84 -23 18 c-12 10 -26 18 -31 18 -4 0 -31 -39 -59 -87z"/>
<path d="M1339 1622 l-27 -17 52 -87 c28 -49 55 -88 61 -88 5 0 20 8 32 18
l22 17 -52 88 c-28 48 -54 87 -57 87 -3 0 -17 -8 -31 -18z"/>
<path d="M2306 1488 c-42 -72 -76 -136 -76 -143 0 -11 49 -40 55 -33 7 7 146
248 151 262 4 9 -5 20 -24 30 l-30 16 -76 -132z"/>
<path d="M5521 1491 c-28 -49 -51 -91 -51 -93 0 -7 60 -32 64 -27 8 12 96 169
96 173 0 3 -13 12 -29 21 l-30 15 -50 -89z"/>
<path d="M1553 1263 c-13 -8 -23 -19 -23 -24 0 -7 86 -157 96 -168 6 -6 65 21
62 29 -10 23 -104 180 -108 179 -3 0 -15 -7 -27 -16z"/>
<path d="M2089 1116 l-77 -134 28 -21 c34 -24 25 -34 120 132 70 122 72 128
54 142 -10 8 -26 14 -34 14 -9 0 -47 -55 -91 -133z"/>
<path d="M5311 1129 c-28 -50 -51 -92 -51 -94 0 -3 13 -11 29 -20 l30 -15 51
91 c29 49 51 91 49 93 -2 1 -16 9 -30 18 l-26 17 -52 -90z"/>
<path d="M1763 898 c-13 -6 -23 -16 -23 -22 1 -6 22 -47 49 -91 33 -55 54 -81
69 -83 18 -3 22 2 22 22 0 30 0 30 36 12 l27 -15 39 67 39 67 -22 18 c-12 10
-27 16 -32 14 -12 -4 -54 -71 -64 -100 -9 -28 -21 -17 -61 52 -20 36 -42 66
-47 67 -6 1 -20 -2 -32 -8z"/>
<path d="M5128 810 c-20 -35 -27 -40 -60 -40 -37 0 -38 -1 -38 -35 l0 -35 60
0 c49 0 62 3 67 18 4 9 18 35 31 56 l24 39 -23 18 c-33 25 -35 24 -61 -21z"/>
<path d="M2090 735 l0 -35 105 0 105 0 0 35 0 35 -105 0 -105 0 0 -35z"/>
<path d="M2510 735 l0 -35 105 0 105 0 0 35 0 35 -105 0 -105 0 0 -35z"/>
<path d="M2930 735 l0 -35 105 0 105 0 0 35 0 35 -105 0 -105 0 0 -35z"/>
<path d="M3350 735 l0 -35 105 0 105 0 0 35 0 35 -105 0 -105 0 0 -35z"/>
<path d="M3770 735 l0 -35 105 0 105 0 0 35 0 35 -105 0 -105 0 0 -35z"/>
<path d="M4190 735 l0 -35 105 0 105 0 0 35 0 35 -105 0 -105 0 0 -35z"/>
<path d="M4610 735 l0 -35 105 0 105 0 0 35 0 35 -105 0 -105 0 0 -35z"/>
</g>
</svg>
