<?xml version="1.0" standalone="no"?>
<!DOCTYPE svg PUBLIC "-//W3C//DTD SVG 20010904//EN"
 "http://www.w3.org/TR/2001/REC-SVG-20010904/DTD/svg10.dtd">
<svg version="1.0" xmlns="http://www.w3.org/2000/svg"
 width="700.000000pt" height="700.000000pt" viewBox="0 0 700.000000 700.000000"
 preserveAspectRatio="xMidYMid meet">
<metadata>
Created by potrace 1.11, written by Peter Selinger 2001-2013
</metadata>
<g transform="translate(0.000000,700.000000) scale(0.100000,-0.100000)"
fill="#000000" stroke="none">
<path d="M1660 6294 c-69 -118 -137 -236 -151 -262 -15 -26 -58 -101 -96 -167
-62 -105 -304 -525 -354 -612 -27 -48 -263 -456 -371 -643 -53 -91 -104 -181
-115 -200 -11 -19 -53 -91 -93 -160 -40 -69 -107 -185 -149 -258 -42 -73 -83
-146 -93 -161 -80 -137 -168 -293 -168 -299 0 -4 27 -54 61 -112 33 -58 71
-123 84 -145 12 -22 80 -139 150 -260 70 -121 138 -238 150 -260 13 -22 62
-107 110 -190 48 -82 97 -167 109 -187 12 -21 59 -104 106 -185 47 -80 96
-165 108 -187 144 -249 219 -379 242 -416 16 -25 42 -70 58 -100 35 -65 305
-532 387 -670 18 -30 41 -71 52 -90 10 -19 36 -65 58 -103 l39 -67 1721 0
1720 0 38 68 c20 37 49 87 63 112 205 352 322 555 347 600 16 30 33 60 37 65
4 6 17 26 27 45 11 19 71 123 133 230 62 107 123 213 135 235 13 22 56 96 96
165 39 69 83 145 96 170 14 25 37 65 52 90 16 25 133 227 261 450 128 223 272
473 320 555 48 83 92 160 99 172 10 20 5 35 -45 120 -31 54 -65 114 -76 133
-46 80 -747 1290 -777 1340 -11 19 -24 42 -28 50 -4 8 -31 55 -60 104 -29 49
-53 90 -53 91 0 3 -154 272 -170 295 -5 8 -22 38 -38 65 -45 78 -64 112 -142
245 -40 69 -87 150 -104 181 -17 30 -71 126 -121 212 l-90 156 -1720 1 -1721
0 -124 -216z"/>
</g>
</svg>
