<?xml version="1.0" encoding="utf-8"?>
<!-- Generator: Adobe Illustrator 16.0.0, SVG Export Plug-In . SVG Version: 6.00 Build 0)  -->
<!DOCTYPE svg PUBLIC "-//W3C//DTD SVG 1.1//EN" "http://www.w3.org/Graphics/SVG/1.1/DTD/svg11.dtd">
<svg version="1.1" id="Layer_1" xmlns="http://www.w3.org/2000/svg" xmlns:xlink="http://www.w3.org/1999/xlink" x="0px" y="0px"
	 width="955.664px" height="520.491px" viewBox="0 0 955.664 520.491" enable-background="new 0 0 955.664 520.491"
	 xml:space="preserve">
<path opacity="0.6" fill="none" stroke="#29ABE2" stroke-width="0.4" stroke-miterlimit="10" stroke-dasharray="2.6473,2.6473" d="
	M954.823,0.856C637.252,0.893,319.98,0.893,2.513,0.751"/>
<path opacity="0.6" fill="none" stroke="#29ABE2" stroke-width="0.4" stroke-miterlimit="10" stroke-dasharray="2.6473,2.6473" d="
	M333.292,519.748c-10.107-19.98-20.79-38.141-32.54-57.369c-2.137-2.137-3.205-4.272-4.273-7.478
	c-1.068-2.137-3.205-4.273-4.273-6.409c-1.068-3.205-2.136-4.273-4.273-7.479c-12.819-20.297-20.297-39.525-34.184-57.686
	c-35.252-67.3-73.709-130.327-112.167-198.695C104.193,121.605,70.009,60.715,34.018-0.175"/>
<path opacity="0.6" fill="none" stroke="#29ABE2" stroke-width="0.4" stroke-miterlimit="10" stroke-dasharray="2.6473,2.6473" d="
	M355.646,519.559c-3.618-8.041-7.891-14.45-13.232-21.929c-2.136-3.204-2.136-6.409-4.273-9.613
	c-10.683-16.024-19.229-32.048-27.774-49.141c-1.068-1.067-2.137-2.136-3.205-3.204c-11.75-20.297-21.365-38.457-34.184-58.754
	c-1.068-1.068,0-3.205-1.068-4.273c-12.819-20.297-22.434-39.525-34.185-59.822C175.766,205.998,115.944,104.514,55.884-0.175"/>
<path opacity="0.6" fill="none" stroke="#29ABE2" stroke-width="0.4" stroke-miterlimit="10" stroke-dasharray="2.6473,2.6473" d="
	M377.726,519.475c-24.775-43.068-49.58-86.12-74.497-129.105c-24.678-42.573-49.433-85.099-73.45-128.048
	c-5.828-10.421-12.083-20.542-18.339-30.706c-6.29-10.218-11.658-20.627-17.497-31.401c-11.856-21.271-24.719-41.954-36.958-63.001
	C132.407,94.947,109.16,51.923,84.171,9.895c-2-3.362-4.008-6.72-6.027-10.07"/>
<path opacity="0.6" fill="none" stroke="#29ABE2" stroke-width="0.4" stroke-miterlimit="10" stroke-dasharray="2.6473,2.6473" d="
	M400.103,519.759C336.004,410.034,277.25,302.14,208.882,189.974c-2.136-3.205-2.136-5.341-3.205-8.546
	c-22.434-41.662-45.935-77.982-68.368-119.645c-3.205-4.273-5.341-8.546-8.546-12.819c-9.615-17.092-17.092-33.116-27.775-49.14"/>
<path opacity="0.6" fill="none" stroke="#29ABE2" stroke-width="0.4" stroke-miterlimit="10" stroke-dasharray="2.6473,2.6473" d="
	M422.688,519.692c-15.111-29.539-34.34-57.313-51.432-87.225c-60.89-106.825-117.508-204.036-179.466-310.862
	c-11.751-20.297-22.434-39.525-34.184-59.822c-11.751-21.365-23.502-41.662-35.172-61.932"/>
<path opacity="0.6" fill="none" stroke="#29ABE2" stroke-width="0.4" stroke-miterlimit="10" stroke-dasharray="2.6473,2.6473" d="
	M445.476,520.491c-13.301-19.806-24.652-40.785-36.055-61.714c-11.65-21.383-24.314-42.173-36.603-63.188
	c-12.218-20.894-23.804-42.145-36.526-62.743c-6.187-10.017-12.196-20.068-17.35-30.664c-5.081-10.446-10.353-20.483-16.64-30.264
	c-12.859-19.999-23.23-41.285-35.838-61.402c-13.021-20.775-25.517-41.866-37.897-63.027
	c-24.909-42.576-49.362-85.393-73.546-128.383c-3.496-6.214-7-12.423-10.498-18.636"/>
<path opacity="0.6" fill="none" stroke="#29ABE2" stroke-width="0.4" stroke-miterlimit="10" stroke-dasharray="2.6473,2.6473" d="
	M466.206,519.812c-53.287-92.686-105.631-182.419-160.112-277.494c-4.273-6.41-7.478-12.819-10.683-19.229
	c-30.679-53.413-58.754-102.553-89.733-155.965c-13.887-22.433-25.638-43.798-39.175-66.377"/>
<path opacity="0.6" fill="none" stroke="#29ABE2" stroke-width="0.4" stroke-miterlimit="10" stroke-dasharray="2.6473,2.6473" d="
	M488.099,519.058c-24.541-41.27-48.573-82.839-72.475-124.482c-23.919-41.674-47.718-83.418-71.793-125.002
	c-12.296-21.239-24.665-42.438-37.148-63.569c-12.2-20.652-22.933-42.17-34.703-63.089c-23.571-41.891-47.696-83.58-72.116-124.981
	c-3.488-5.915-7.056-11.785-10.768-17.563"/>
<path opacity="0.6" fill="none" stroke="#29ABE2" stroke-width="0.4" stroke-miterlimit="10" stroke-dasharray="2.6473,2.6473" d="
	M511.08,520.147c-25.336-42.452-50.113-85.234-74.776-128.08c-24.695-42.902-49.086-85.979-73.649-128.958
	c-24.592-43.03-49.364-85.958-74.149-128.877c-24.744-42.849-49.5-85.692-74.095-128.626c-0.845-1.475-1.689-2.95-2.534-4.424"/>
<path opacity="0.6" fill="none" stroke="#29ABE2" stroke-width="0.4" stroke-miterlimit="10" stroke-dasharray="2.6473,2.6473" d="
	M533.754,519.666c-1.191-2.806-2.26-4.942-4.396-8.147c-3.205-5.341-7.479-9.614-10.683-14.955
	c-16.024-26.707-24.57-56.618-45.935-79.051c-16.024-36.321-37.389-68.368-58.754-102.553c-1.068-2.137-1.068-5.341-2.137-7.478
	c-8.546-12.819-16.024-24.57-23.501-37.389c-18.16-33.116-35.252-64.095-55.549-97.211c-3.205-7.478-7.478-13.887-10.683-21.365
	c-1.068-1.068-2.136-2.136-3.205-3.205c-4.273-6.41-6.41-12.819-9.614-19.229c-14.956-23.502-25.638-44.867-40.594-68.368
	c-12.819-20.297-22.433-40.594-34.74-59.709"/>
<path opacity="0.6" fill="none" stroke="#29ABE2" stroke-width="0.4" stroke-miterlimit="10" stroke-dasharray="2.6473,2.6473" d="
	M555.282,519.235c-22.246-42.357-47.348-83.21-71.554-124.461c-12.304-20.671-24.113-42.224-36.345-63.232
	c-5.97-10.253-12.122-20.399-18.343-30.502c-3.133-5.089-6.285-10.166-9.437-15.243c-3.102-4.996-7.051-10.048-9.261-15.503
	c-4.092-10.097-10.785-19.033-16.04-28.598c-2.663-4.847-5.557-9.61-7.574-14.777c-1.01-2.587-1.626-4.956-3.124-7.315
	c-1.664-2.621-3.318-5.248-4.964-7.88c-12.655-20.233-24.808-40.775-36.72-61.453c-23.828-41.359-46.7-83.264-70.799-124.468
	c-4.943-8.452-9.938-16.873-15.001-25.252"/>
<path opacity="0.6" fill="none" stroke="#29ABE2" stroke-width="0.4" stroke-miterlimit="10" stroke-dasharray="2.6473,2.6473" d="
	M577.786,519.574c-17.449-27.284-31.336-55.059-49.496-82.833c-2.137-3.205-1.068-8.546-3.205-11.751
	c-17.092-24.57-26.706-49.14-44.867-72.642c-2.136-3.204-1.067-7.478-3.204-10.683c-13.887-21.365-25.638-40.594-38.457-61.959
	c-33.116-57.685-61.959-111.098-95.075-168.784c-4.273-7.478-8.546-13.887-13.887-20.296c-5.341-7.478-8.546-14.956-13.887-22.434
	c-1.068-1.068,0-3.205-1.068-4.273c-12.819-21.365-23.501-42.73-36.686-63.486"/>
<path opacity="0.6" fill="none" stroke="#29ABE2" stroke-width="0.4" stroke-miterlimit="10" stroke-dasharray="2.6473,2.6473" d="
	M599.753,519.923c-24.886-43.047-49.773-86.094-74.665-129.138c-24.874-43.015-49.731-86.04-74.637-129.037
	c-24.681-42.609-49.258-85.277-73.15-128.336c-23.644-42.613-49.12-84.177-72.837-126.749c-1.135-2.038-2.272-4.075-3.424-6.104"/>
<path opacity="0.6" fill="none" stroke="#29ABE2" stroke-width="0.4" stroke-miterlimit="10" stroke-dasharray="2.6473,2.6473" d="
	M622.038,519.455c-12.067-20.852-22.936-42.378-35.369-63.021c-6.166-10.237-11.822-20.791-18.218-30.889
	c-5.896-9.309-10.315-19.184-16.062-28.574c-25.801-42.153-50.014-85.368-74.682-128.19
	c-24.814-43.079-49.493-86.236-74.272-129.336c-24.715-42.988-49.533-85.919-74.682-128.656c-2-3.397-4.001-6.794-6.005-10.19"/>
<path opacity="0.6" fill="none" stroke="#29ABE2" stroke-width="0.4" stroke-miterlimit="10" stroke-dasharray="2.6473,2.6473" d="
	M644.168,519.77c-5.876-10.21-12.288-20.097-18.371-30.182c-6.104-10.119-11.021-20.887-17.155-30.667
	c-12.729-20.609-24.087-42.746-36.225-64.016c-23.854-41.799-48.225-83.299-72.41-124.905
	c-12.133-20.875-24.219-41.777-36.17-62.757c-6.047-10.614-12.059-21.247-18.027-31.905c-5.634-10.061-10.497-21.402-17.766-30.37
	c-7.187-8.867-11.975-20.423-17.627-30.339c-5.892-10.337-11.87-20.626-17.896-30.886c-12.067-20.547-24.326-40.681-36.452-61.493
	c-4.148-7.015-7.702-14.34-11.895-21.345"/>
<path opacity="0.6" fill="none" stroke="#29ABE2" stroke-width="0.4" stroke-miterlimit="10" stroke-dasharray="2.6473,2.6473" d="
	M665.853,519.725c-24.205-41.732-48.231-83.569-72.18-125.449c-24-41.968-47.922-83.979-71.87-125.977
	C497.517,225.711,474.12,182.409,448,140.616c-12.838-20.395-24.053-41.835-36.222-62.641
	c-12.005-20.524-24.23-40.619-36.352-61.376c-3.174-5.356-6.354-10.707-9.415-16.129"/>
<path opacity="0.6" fill="none" stroke="#29ABE2" stroke-width="0.4" stroke-miterlimit="10" stroke-dasharray="2.6473,2.6473" d="
	M688.456,518.989c-10.61-17.085-18.089-34.177-29.839-51.269c-6.41-9.614-12.819-19.229-17.093-28.844
	c-2.137-7.478-4.272-13.887-8.546-20.296c-3.205-3.205-5.341-7.479-7.478-11.751c-1.068-1.068-2.137-2.137-3.205-3.205
	c-11.751-23.502-26.706-43.799-39.525-66.231c-3.204-6.41-5.341-11.751-9.614-18.16c-3.204-4.273-5.341-8.547-8.546-12.819
	c-2.137-3.205-2.137-6.409-4.273-9.614c-3.204-4.273-5.341-8.546-8.546-12.819c-10.683-18.16-18.16-34.184-28.843-52.344
	c-6.409-8.546-11.75-16.024-17.092-24.57c-14.955-26.707-27.774-52.345-42.73-79.051c-5.341-7.478-8.546-16.024-14.956-22.434
	c-1.068-1.068,0-3.205-1.068-4.273c-8.546-14.956-19.229-28.843-26.707-44.867C411.85,37.213,400.1,20.122,390.51,1.329"/>
<path opacity="0.6" fill="none" stroke="#29ABE2" stroke-width="0.4" stroke-miterlimit="10" stroke-dasharray="2.6473,2.6473" d="
	M710.788,518.895c-11.578-18.06-21.192-36.22-32.942-54.38c-7.479-13.888-12.819-26.706-20.297-39.525
	c-1.068-1.068-2.137-2.137-3.205-3.205c-2.137-5.341-7.478-8.546-9.614-13.887c-4.273-9.614-9.614-19.229-13.888-28.843
	c-1.068-1.068-2.136-2.137-3.204-3.205c-2.137-3.205-2.137-5.342-4.273-8.546c-3.205-4.273-5.341-8.546-8.546-12.819
	c-7.478-13.888-13.888-26.706-22.434-40.594c-11.751-18.16-20.297-35.253-32.048-54.481c-3.204-4.273-5.341-8.546-8.546-12.819
	c-2.136-3.205-2.136-6.41-4.272-9.614c-4.273-6.41-7.478-13.887-12.819-20.297c-1.068-1.068,0-3.205-1.068-4.273
	c-2.137-2.137-4.272-4.273-5.341-7.478c-1.068-1.068-2.137-2.136-3.205-3.205c-8.546-16.024-16.023-32.048-26.706-48.071
	c-5.342-8.546-8.546-17.092-12.819-25.638c-7.478-13.887-19.229-24.57-22.433-39.525c-10.683-18.16-21.365-35.252-32.048-53.413
	c-4.273-8.546-7.478-16.024-11.75-24.57c-2.137-4.273-6.41-6.41-7.426-10.583"/>
<path opacity="0.6" fill="none" stroke="#29ABE2" stroke-width="0.4" stroke-miterlimit="10" stroke-dasharray="2.6473,2.6473" d="
	M732.719,519.78c-11.935-21.311-24.812-42.073-36.866-63.314c-12.244-21.578-24.304-43.259-36.44-64.897
	c-11.959-21.319-24.598-42.218-37.155-63.186c-5.918-9.879-10.645-20.434-16.954-30.084c-3.069-4.696-6.279-9.229-8.735-14.293
	c-2.555-5.266-4.925-10.602-7.788-15.712c-5.848-10.443-12.319-20.549-18.397-30.859c-5.724-9.708-12.508-18.791-17.339-29.01
	c-2.404-5.088-4.456-10.282-7.487-15.05c-3.075-4.837-6.385-9.492-9.145-14.527c-5.704-10.41-10.852-21.108-16.847-31.361
	c-24.853-42.497-49.101-85.345-74.088-127.764c-3.693-6.269-7.393-12.533-11.139-18.771"/>
<path opacity="0.6" fill="none" stroke="#29ABE2" stroke-width="0.4" stroke-miterlimit="10" stroke-dasharray="2.6473,2.6473" d="
	M755.463,519.671c-14.591-25.245-28.478-49.815-44.502-74.385c-2.137-9.614-8.546-17.092-13.887-25.639
	C631.91,307.482,572.088,202.793,507.993,90.626c-18.16-30.679-35.252-59.822-52.514-90.115"/>
<path opacity="0.6" fill="none" stroke="#29ABE2" stroke-width="0.4" stroke-miterlimit="10" stroke-dasharray="2.6473,2.6473" d="
	M777.661,520.518c-6.878-12.205-12.219-23.955-20.765-35.706c-2.137-3.205-2.137-6.41-4.273-9.614
	c-3.205-4.273-5.341-8.546-8.546-12.819c-11.751-21.365-25.639-40.594-36.32-61.959c-6.41-14.955-14.956-27.774-24.57-41.661
	c-2.137-4.273-4.273-8.547-5.341-12.819c-2.137-4.273-5.342-6.409-7.479-10.683c-10.683-20.297-19.229-38.457-33.115-58.754
	c-3.205-4.273-5.342-8.546-8.546-13.887c-1.068-2.137-2.137-5.341-3.205-7.478c-8.546-11.75-14.956-23.501-20.297-36.32
	c-1.068-3.205-4.273-4.273-6.409-7.478c-3.205-6.41-6.41-11.751-8.547-18.16c-1.067-3.205-3.204-5.341-5.341-7.478
	c-2.137-3.205-2.137-5.341-4.273-8.546c-8.546-11.751-13.887-23.501-20.297-36.321c-2.136-3.205-5.341-6.409-7.478-9.614
	c-18.16-32.047-35.252-61.958-54.48-94.006c-1.068-2.136-1.068-5.341-2.137-7.478c-7.478-9.614-11.751-19.229-18.293-28.716"/>
<path opacity="0.6" fill="none" stroke="#29ABE2" stroke-width="0.4" stroke-miterlimit="10" stroke-dasharray="2.6473,2.6473" d="
	M798.97,519.301c-8.958-19.534-20.709-36.626-32.459-54.786c-3.205-6.409-5.342-13.888-8.547-20.297
	c-6.409-11.751-14.955-22.434-21.364-35.252c-1.068-1.068-2.137-2.137-3.205-3.205c-34.185-65.164-69.437-123.918-106.825-188.013
	c-3.205-5.341-6.41-9.614-9.614-14.956c-32.048-50.208-55.55-98.279-85.461-148.487c-2.136-3.205-2.136-6.41-4.272-9.614
	c-7.478-10.683-11.751-20.297-18.16-30.679c-3.205-4.273-5.342-9.614-8.377-12.932"/>
<path opacity="0.6" fill="none" stroke="#29ABE2" stroke-width="0.4" stroke-miterlimit="10" stroke-dasharray="2.6473,2.6473" d="
	M821.89,519.845c-3.035-6.19-6.239-11.532-9.444-17.941c-14.956-24.569-28.843-45.935-41.662-70.505
	c-2.137-4.272-5.341-6.409-7.478-10.683c-13.888-26.706-26.706-52.344-42.73-79.051c-4.272-6.409-9.614-11.75-13.887-19.229
	c-1.068-2.137-1.068-5.341-2.137-7.478c-13.888-17.092-20.297-36.321-33.116-55.549c-5.341-8.546-8.546-18.16-13.887-26.706
	c-12.819-22.434-25.639-41.662-38.457-64.095c-5.342-8.546-8.547-18.161-13.888-26.707c-1.068-1.068-2.137-2.136-3.205-3.205
	c-9.614-17.092-20.297-30.679-27.774-48.071c-5.341-11.751-11.751-21.365-17.092-32.048c-6.409-10.683-11.751-20.297-18.16-30.679
	c-6.41-8.546-10.683-18.16-15.865-26.178"/>
<path opacity="0.6" fill="none" stroke="#29ABE2" stroke-width="0.4" stroke-miterlimit="10" stroke-dasharray="2.6473,2.6473" d="
	M843.502,519.691c-24.886-43.026-49.753-86.063-74.592-129.117c-24.85-43.072-49.67-86.162-74.453-129.273
	c-24.732-43.023-49.448-86.056-74.07-129.143c-24.529-42.922-49.353-85.674-74.269-128.372c-0.614-1.054-1.229-2.108-1.841-3.163"/>
<path opacity="0.6" fill="none" stroke="#29ABE2" stroke-width="0.4" stroke-miterlimit="10" stroke-dasharray="2.6473,2.6473" d="
	M866.231,518.898c-24.078-42.403-48.646-84.526-73.257-126.621c-24.689-42.231-49.416-84.442-73.733-126.891
	c-11.983-20.617-22.802-42.458-35.109-63.19c-12.213-20.572-24.229-41.259-36.331-61.896
	c-12.164-20.742-24.429-41.424-37.044-61.896c-12.648-20.527-23.717-42.031-35.449-63.086c-2.793-5.011-5.61-10.008-8.475-14.98"/>
<path opacity="0.6" fill="none" stroke="#29ABE2" stroke-width="0.4" stroke-miterlimit="10" stroke-dasharray="2.6473,2.6473" d="
	M888.047,518.995c-28.599-52.343-59.578-103.619-89.489-157.032C726.985,238.045,657.549,121.605,588.711,0.306"/>
<path opacity="0.6" fill="none" stroke="#29ABE2" stroke-width="0.4" stroke-miterlimit="10" stroke-dasharray="2.6473,2.6473" d="
	M910.586,519.908c-6.271-8.39-9.476-18.004-15.885-26.55c-8.546-14.956-17.093-28.843-25.639-44.866
	c-10.683-20.297-22.433-39.525-34.184-60.891c-2.137-4.273-5.342-6.41-7.479-10.683c-14.955-27.774-27.774-54.481-47.003-81.188
	c-1.068-1.068,0-3.205-1.068-4.273c-9.614-19.228-21.365-36.32-32.047-55.549c-7.479-14.956-17.093-28.843-25.639-43.798
	c-5.341-7.478-9.614-14.956-14.955-22.434c-7.479-11.75-9.614-23.501-17.093-35.252c-13.887-19.229-23.501-38.458-34.184-58.754
	c-3.205-5.341-7.478-10.683-10.683-16.024C632.979,39.35,623.364,19.053,610.61,0.119"/>
<path opacity="0.6" fill="none" stroke="#29ABE2" stroke-width="0.4" stroke-miterlimit="10" stroke-dasharray="2.6473,2.6473" d="
	M932.672,518.755c-50.79-87.356-99.93-172.816-151.206-262.55c-4.273-6.41-7.478-12.819-10.683-19.229
	c-36.32-63.027-71.573-120.713-106.825-184.808c-4.273-6.409-7.478-13.887-12.819-20.297c-3.204-5.341-5.341-11.75-8.546-17.092
	c-4.272-4.273-7.478-8.546-9.164-13.381"/>
<path opacity="0.6" fill="none" stroke="#29ABE2" stroke-width="0.4" stroke-miterlimit="10" stroke-dasharray="2.6473,2.6473" d="
	M954.075,517.665c-1.688-0.805-2.757-4.01-3.825-7.215c-2.137-5.341-7.478-8.546-9.614-13.887
	c-10.683-21.365-21.365-39.525-34.185-59.822c-2.136-4.273-4.272-8.546-6.409-12.819c-1.068-2.137-4.273-4.273-5.341-7.478
	c-1.068-5.342-4.273-9.614-6.41-14.956c-21.365-33.115-36.32-64.095-58.754-97.211c-3.204-4.272-2.137-8.546-5.341-12.819
	c-4.273-7.478-9.614-12.819-13.888-19.228c-1.068-3.205-3.204-6.41-5.341-10.683c-7.479-19.229-21.365-36.321-32.048-55.549
	c-3.205-5.341-5.341-11.751-9.614-17.092c-12.819-23.502-23.502-44.867-37.389-68.369c-4.273-6.409-8.546-12.819-12.819-20.296
	c-1.068-4.273-2.137-8.546-4.273-11.751c-18.16-25.638-32.047-50.208-45.935-76.914c-2.137-4.273-5.341-7.478-7.471-10.601"/>
<path opacity="0.6" fill="none" stroke="#29ABE2" stroke-width="0.4" stroke-miterlimit="10" stroke-dasharray="2.6473,2.6473" d="
	M955.235,480.655c-24.854-43.032-49.714-86.062-74.575-129.09c-24.877-43.055-49.753-86.108-74.628-129.164
	c-24.895-43.09-49.788-86.18-74.676-129.273c-17.688-30.625-35.374-61.252-53.056-91.881"/>
<path opacity="0.6" fill="none" stroke="#29ABE2" stroke-width="0.4" stroke-miterlimit="10" stroke-dasharray="2.6473,2.6473" d="
	M955.039,442.795c-25.099-42.048-49.523-84.499-73.145-127.395c-11.765-21.363-23.461-42.761-35.908-63.736
	c-12.58-21.2-25.483-42.214-37.852-63.539c-12.271-21.157-23.782-42.741-35.922-63.972c-12.086-21.136-24.989-41.749-37.689-62.513
	c-6.147-10.05-12.09-20.224-18-30.414c-5.749-9.914-12.221-19.46-16.862-29.964"/>
<path opacity="0.6" fill="none" stroke="#29ABE2" stroke-width="0.4" stroke-miterlimit="10" stroke-dasharray="2.6473,2.6473" d="
	M955.583,404.782c-45.927-80.208-91.861-158.19-137.797-240.446c-32.047-55.549-64.095-108.962-95.379-163.513"/>
<path opacity="0.6" fill="none" stroke="#29ABE2" stroke-width="0.4" stroke-miterlimit="10" stroke-dasharray="2.6473,2.6473" d="
	M955.488,367.052c-5.238-10.431-11.647-21.113-18.058-31.796c-35.252-60.891-66.231-117.508-102.552-178.398
	c-13.888-21.365-24.57-41.662-37.39-63.027c-3.204-4.273-3.204-9.614-6.409-13.887c-19.229-26.707-29.911-54.481-46.589-79.914"/>
<path opacity="0.6" fill="none" stroke="#29ABE2" stroke-width="0.4" stroke-miterlimit="10" stroke-dasharray="2.6473,2.6473" d="
	M954.083,500.799c-317.899,0.036-635.171,0.036-953.812-0.106"/>
<path opacity="0.6" fill="none" stroke="#29ABE2" stroke-width="0.4" stroke-miterlimit="10" stroke-dasharray="2.6473,2.6473" d="
	M954.823,481.57c-317.571,0.037-635.911,0.037-953.058-0.105"/>
<path opacity="0.6" fill="none" stroke="#29ABE2" stroke-width="0.4" stroke-miterlimit="10" stroke-dasharray="2.6473,2.6473" d="
	M954.829,462.342c-318.646,0.036-635.917,0.036-953.811-0.106"/>
<path opacity="0.6" fill="none" stroke="#29ABE2" stroke-width="0.4" stroke-miterlimit="10" stroke-dasharray="2.6473,2.6473" d="
	M955.574,443.113c-318.322,0.037-636.662,0.037-954.556-0.106"/>
<path opacity="0.6" fill="none" stroke="#29ABE2" stroke-width="0.4" stroke-miterlimit="10" stroke-dasharray="2.6473,2.6473" d="
	M954.829,423.884c-318.646,0.037-635.917,0.037-953.812-0.105"/>
<path opacity="0.6" fill="none" stroke="#29ABE2" stroke-width="0.4" stroke-miterlimit="10" stroke-dasharray="2.6473,2.6473" d="
	M955.574,404.657c-318.322,0.036-636.662,0.036-954.556-0.106"/>
<path opacity="0.6" fill="none" stroke="#29ABE2" stroke-width="0.4" stroke-miterlimit="10" stroke-dasharray="2.6473,2.6473" d="
	M957.067,385.427c-318.747,0.037-638.155,0.037-956.796-0.104"/>
<path opacity="0.6" fill="none" stroke="#29ABE2" stroke-width="0.4" stroke-miterlimit="10" stroke-dasharray="2.6473,2.6473" d="
	M955.574,366.198c-318.322,0.038-636.662,0.038-954.56-0.104"/>
<path opacity="0.6" fill="none" stroke="#29ABE2" stroke-width="0.4" stroke-miterlimit="10" stroke-dasharray="2.6473,2.6473" d="
	M954.829,346.97c-318.646,0.037-635.917,0.037-954.56-0.107"/>
<path opacity="0.6" fill="none" stroke="#29ABE2" stroke-width="0.4" stroke-miterlimit="10" stroke-dasharray="2.6473,2.6473" d="
	M954.829,327.742c-318.646,0.037-635.917,0.037-953.817-0.106"/>
<path opacity="0.6" fill="none" stroke="#29ABE2" stroke-width="0.4" stroke-miterlimit="10" stroke-dasharray="2.6473,2.6473" d="
	M954.083,308.512c-317.899,0.038-635.171,0.038-953.813-0.106"/>
<path opacity="0.6" fill="none" stroke="#29ABE2" stroke-width="0.4" stroke-miterlimit="10" stroke-dasharray="2.6473,2.6473" d="
	M954.829,289.285c-318.646,0.037-635.917,0.037-953.811-0.105"/>
<path opacity="0.6" fill="none" stroke="#29ABE2" stroke-width="0.4" stroke-miterlimit="10" stroke-dasharray="2.6473,2.6473" d="
	M954.083,270.056c-317.899,0.037-635.171,0.037-953.812-0.106"/>
<path opacity="0.6" fill="none" stroke="#29ABE2" stroke-width="0.4" stroke-miterlimit="10" stroke-dasharray="2.6473,2.6473" d="
	M954.829,250.827c-318.646,0.038-635.917,0.038-953.814-0.106"/>
<path opacity="0.6" fill="none" stroke="#29ABE2" stroke-width="0.4" stroke-miterlimit="10" stroke-dasharray="2.6473,2.6473" d="
	M954.083,231.599c-317.899,0.037-635.171,0.037-953.065-0.106"/>
<path opacity="0.6" fill="none" stroke="#29ABE2" stroke-width="0.4" stroke-miterlimit="10" stroke-dasharray="2.6473,2.6473" d="
	M954.829,212.371c-318.646,0.037-635.917,0.037-953.814-0.107"/>
<path opacity="0.6" fill="none" stroke="#29ABE2" stroke-width="0.4" stroke-miterlimit="10" stroke-dasharray="2.6473,2.6473" d="
	M954.083,193.143c-317.899,0.036-635.171,0.036-953.812-0.107"/>
<path opacity="0.6" fill="none" stroke="#29ABE2" stroke-width="0.4" stroke-miterlimit="10" stroke-dasharray="2.6473,2.6473" d="
	M955.574,173.913c-318.322,0.037-636.662,0.037-954.559-0.106"/>
<path opacity="0.6" fill="none" stroke="#29ABE2" stroke-width="0.4" stroke-miterlimit="10" stroke-dasharray="2.6473,2.6473" d="
	M954.083,154.685c-317.899,0.036-635.171,0.036-953.812-0.106"/>
<path opacity="0.6" fill="none" stroke="#29ABE2" stroke-width="0.4" stroke-miterlimit="10" stroke-dasharray="2.6473,2.6473" d="
	M954.829,135.457c-318.646,0.036-635.917,0.036-953.811-0.106"/>
<path opacity="0.6" fill="none" stroke="#29ABE2" stroke-width="0.4" stroke-miterlimit="10" stroke-dasharray="2.6473,2.6473" d="
	M957.066,116.227c-318.746,0.037-638.154,0.037-956.048-0.105"/>
<path opacity="0.6" fill="none" stroke="#29ABE2" stroke-width="0.4" stroke-miterlimit="10" stroke-dasharray="2.6473,2.6473" d="
	M954.829,96.999c-318.646,0.037-635.917,0.037-953.814-0.107"/>
<path opacity="0.6" fill="none" stroke="#29ABE2" stroke-width="0.4" stroke-miterlimit="10" stroke-dasharray="2.6473,2.6473" d="
	M957.066,77.77C637.91,77.807,320.22,77.807,0.657,77.662"/>
<path opacity="0.6" fill="none" stroke="#29ABE2" stroke-width="0.4" stroke-miterlimit="10" stroke-dasharray="2.6473,2.6473" d="
	M954.083,58.542c-317.899,0.037-635.171,0.037-953.065-0.106"/>
<path opacity="0.6" fill="none" stroke="#29ABE2" stroke-width="0.4" stroke-miterlimit="10" stroke-dasharray="2.6473,2.6473" d="
	M954.083,39.313C636.184,39.35,318.912,39.35,1.018,39.207"/>
<path opacity="0.6" fill="none" stroke="#29ABE2" stroke-width="0.4" stroke-miterlimit="10" stroke-dasharray="2.6473,2.6473" d="
	M954.83,20.085c-318.646,0.037-635.918,0.037-953.811-0.106"/>
<path opacity="0.6" fill="none" stroke="#29ABE2" stroke-width="0.4" stroke-miterlimit="10" stroke-dasharray="2.6473,2.6473" d="
	M933.768,518.683c7.249-12.573,14.524-25.131,21.849-37.661"/>
<path opacity="0.6" fill="none" stroke="#29ABE2" stroke-width="0.4" stroke-miterlimit="10" stroke-dasharray="2.6473,2.6473" d="
	M911.292,519.978c14.892-25.438,29.723-50.616,44.012-76.699"/>
<path opacity="0.6" fill="none" stroke="#29ABE2" stroke-width="0.4" stroke-miterlimit="10" stroke-dasharray="2.6473,2.6473" d="
	M888.633,519.566c5.84-9.373,10.613-19.186,16.254-28.841c5.472-9.891,11.767-19.192,17.621-28.843
	c11.368-18.743,23.292-37.499,33.019-57.138"/>
<path opacity="0.6" fill="none" stroke="#29ABE2" stroke-width="0.4" stroke-miterlimit="10" stroke-dasharray="2.6473,2.6473" d="
	M867.089,519.37c28.68-51.649,61.796-101.857,88.7-153.779"/>
<path opacity="0.6" fill="none" stroke="#29ABE2" stroke-width="0.4" stroke-miterlimit="10" stroke-dasharray="2.6473,2.6473" d="
	M844.712,519.664c25.057-42.876,50.007-85.816,74.721-128.891c11.865-20.681,23.676-41.392,35.419-62.141"/>
<path opacity="0.6" fill="none" stroke="#29ABE2" stroke-width="0.4" stroke-miterlimit="10" stroke-dasharray="2.6473,2.6473" d="
	M822.67,519.904c23.717-42.956,48.675-85.207,73.503-127.524c20.02-34.119,39.965-68.286,59.117-102.902"/>
<path opacity="0.6" fill="none" stroke="#29ABE2" stroke-width="0.4" stroke-miterlimit="10" stroke-dasharray="2.6473,2.6473" d="
	M799.617,519.13c23.735-42.086,48.536-83.559,73.251-125.073c24.699-41.487,49.325-83.03,72.717-125.274
	c3.148-5.687,6.274-11.385,9.375-17.098"/>
<path opacity="0.6" fill="none" stroke="#29ABE2" stroke-width="0.4" stroke-miterlimit="10" stroke-dasharray="2.6473,2.6473" d="
	M777.744,520.593c24.749-42.945,49.488-85.896,74.148-128.894c24.54-42.79,48.902-85.684,74.131-128.075
	c9.795-16.459,19.492-32.981,28.635-49.813"/>
<path opacity="0.6" fill="none" stroke="#29ABE2" stroke-width="0.4" stroke-miterlimit="10" stroke-dasharray="2.6473,2.6473" d="
	M755.621,519.636c11.459-20.607,24.776-40.66,36.569-61.341c12.204-21.403,24.5-42.756,36.836-64.085
	c24.173-41.795,48.508-83.498,72.582-125.352c18.337-31.881,36.521-63.851,54.369-96.01"/>
<path opacity="0.6" fill="none" stroke="#29ABE2" stroke-width="0.4" stroke-miterlimit="10" stroke-dasharray="2.6473,2.6473" d="
	M733.852,519.948c24.612-42.621,49.974-84.805,74.235-127.629c24.376-43.027,49.276-85.753,73.989-128.586
	c12.355-21.414,24.683-42.848,36.84-64.375c5.728-10.143,10.359-20.646,16.213-30.68c2.789-4.782,5.692-9.546,8.632-14.237
	c2.932-4.675,6.635-8.786,9.577-13.429c0.575-0.608,1.111-1.839,1.604-2.794"/>
<path opacity="0.6" fill="none" stroke="#29ABE2" stroke-width="0.4" stroke-miterlimit="10" stroke-dasharray="2.6473,2.6473" d="
	M710.691,518.998c24.172-41.883,48.454-83.703,72.356-125.74c23.794-41.846,47.974-83.462,72.381-124.953
	c12.14-20.635,24.311-41.252,36.46-61.882c3.107-5.273,6.212-10.548,9.313-15.824c2.816-4.789,6.548-9.67,8.166-15.014
	c1.651-5.457,5.038-9.96,7.846-14.937c2.897-5.135,5.622-10.365,8.506-15.507c4.585-8.174,10.194-15.604,15.024-23.615
	c4.589-7.614,8.676-15.523,13.488-23.004"/>
<path opacity="0.6" fill="none" stroke="#29ABE2" stroke-width="0.4" stroke-miterlimit="10" stroke-dasharray="2.6473,2.6473" d="
	M689.348,518.806c20.545-37.199,41.91-72.451,63.275-110.608c53.413-91.87,101.484-176.262,155.965-268.132
	c8.546-14.956,16.024-28.843,25.639-43.799c6.409-11.75,13.887-23.501,20.245-35.47"/>
<path opacity="0.6" fill="none" stroke="#29ABE2" stroke-width="0.4" stroke-miterlimit="10" stroke-dasharray="2.6473,2.6473" d="
	M666.765,519.672c23.562-42.76,48.778-84.572,73.495-126.666c24.755-42.157,47.895-85.232,72.384-127.541
	c24.856-42.943,49.764-85.856,74.729-128.735c22.414-38.494,44.632-77.102,67.022-115.608"/>
<path opacity="0.6" fill="none" stroke="#29ABE2" stroke-width="0.4" stroke-miterlimit="10" stroke-dasharray="2.6473,2.6473" d="
	M644.973,519.541c9.371-15.5,18.985-31.523,28.6-47.548c2.137-3.205,2.137-6.409,4.273-9.614
	c14.955-23.502,27.774-44.866,39.525-69.437c2.136-4.272,5.341-6.409,7.478-10.683c26.706-50.208,53.412-95.074,83.323-144.214
	c7.479-11.751,11.751-24.57,19.229-36.321c2.137-2.137,4.273-4.273,5.342-7.478c1.068-1.068,2.137-2.136,3.205-3.205
	c18.16-32.047,33.115-61.958,52.344-92.938c2.137-3.205,2.137-6.41,4.273-9.614c18.16-29.911,36.32-57.686,52.522-87.65"/>
<path opacity="0.6" fill="none" stroke="#29ABE2" stroke-width="0.4" stroke-miterlimit="10" stroke-dasharray="2.6473,2.6473" d="
	M622.638,519.327c25.044-42.836,49.915-85.772,74.696-128.761c24.797-43.017,49.505-86.083,74.209-129.153
	c24.719-43.095,49.435-86.193,74.234-129.242c24.811-43.069,49.705-86.09,74.765-129.015c0.375-0.641,0.748-1.282,1.123-1.923"/>
<path opacity="0.6" fill="none" stroke="#29ABE2" stroke-width="0.4" stroke-miterlimit="10" stroke-dasharray="2.6473,2.6473" d="
	M600.755,519.245c33.292-57.935,65.34-114.552,100.592-174.374c11.751-20.297,22.434-39.525,33.116-59.822
	c4.272-6.41,7.478-12.819,10.683-19.229C796.422,173.95,848.766,89.558,900.339,0"/>
<path opacity="0.6" fill="none" stroke="#29ABE2" stroke-width="0.4" stroke-miterlimit="10" stroke-dasharray="2.6473,2.6473" d="
	M577.661,519.963c23.851-41.568,47.842-83.056,71.426-124.777c11.894-21.041,23.658-42.125,35.954-62.936
	c5.798-9.811,11.653-19.59,17.836-29.164c3.085-4.776,6.989-9.404,8.951-14.767c2.031-5.548,5.372-10.365,8.428-15.408
	c24.386-40.259,47.531-81.244,70.528-122.308c23.71-42.34,49.007-83.74,73.348-125.716c4.568-7.88,9.101-15.781,13.577-23.714"/>
<path opacity="0.6" fill="none" stroke="#29ABE2" stroke-width="0.4" stroke-miterlimit="10" stroke-dasharray="2.6473,2.6473" d="
	M556.075,519.062c24.855-43.082,49.708-86.165,74.563-129.246c24.8-42.985,49.603-85.968,74.414-128.945
	c24.835-43.019,49.68-86.032,74.538-129.037c24.907-43.087,49.827-86.166,74.77-129.232c0.495-0.854,0.69-1.708,1.484-2.562"/>
<path opacity="0.6" fill="none" stroke="#29ABE2" stroke-width="0.4" stroke-miterlimit="10" stroke-dasharray="2.6473,2.6473" d="
	M533.6,519.263c24.209-43.023,49.014-85.709,73.929-128.325c24.9-42.593,50.041-85.039,74.349-127.974
	c24.407-43.109,49.097-86.057,73.912-128.932C780.634,91.11,805.603,48.26,830.518,5.377c0.855-1.472,1.711-2.945,2.566-4.417"/>
<path opacity="0.6" fill="none" stroke="#29ABE2" stroke-width="0.4" stroke-miterlimit="10" stroke-dasharray="2.6473,2.6473" d="
	M511.71,520.056c24.932-42.777,49.622-85.694,74.317-128.608c24.745-42.999,49.499-85.992,74.259-128.983
	c24.848-43.145,49.703-86.286,74.561-129.425c24.772-42.992,49.547-85.984,74.322-128.974c0.617-1.071,1.233-2.143,1.852-3.213"/>
<path opacity="0.6" fill="none" stroke="#29ABE2" stroke-width="0.4" stroke-miterlimit="10" stroke-dasharray="2.6473,2.6473" d="
	M489.166,518.85c24.214-41.396,48.249-82.896,72.187-124.454c23.854-41.41,47.611-82.875,71.367-124.342
	c24.168-42.186,48.335-84.372,72.588-126.509c12.285-21.344,24.965-42.374,37.872-63.345c3.1-5.035,6.438-10,8.909-15.378
	c2.321-5.053,4.494-10.053,7.328-14.849c5.98-10.129,12.42-19.985,18.194-30.238c1.919-3.408,3.616-6.9,5.371-10.381
	c1.653-3.282,4.479-5.513,6.116-8.765"/>
<path opacity="0.6" fill="none" stroke="#29ABE2" stroke-width="0.4" stroke-miterlimit="10" stroke-dasharray="2.6473,2.6473" d="
	M467.203,520.446c23.501-42.131,48.722-83.275,72.206-125.417c5.834-10.469,12.716-20.306,18.397-30.821
	c5.785-10.706,11.735-21.324,17.561-32.009c5.695-10.448,11.813-20.64,17.688-30.692c2.886-5.083,6.085-10,8.945-15.09
	c2.877-5.118,5.253-10.479,8.313-15.507c12.495-20.524,23.443-42.098,35.414-62.953c11.987-20.883,24.21-41.63,36.53-62.319
	c12.397-20.819,24.473-41.72,36.302-62.864c5.675-10.144,11.461-20.225,17.448-30.188c1.464-2.437,2.939-4.866,4.428-7.288
	c1.414-2.303,4.029-3.346,5.109-5.555c0.675-1.991,0.807-4.452,1.738-6.503c1.255-2.763,3.1-5.39,4.631-8.012
	c4.747-8.134,9.589-16.213,14.363-24.331"/>
<path opacity="0.6" fill="none" stroke="#29ABE2" stroke-width="0.4" stroke-miterlimit="10" stroke-dasharray="2.6473,2.6473" d="
	M444.061,520.124c24.193-42.43,48.547-84.787,73.01-127.061c24.312-42.015,48.723-83.973,73.119-125.94
	c24.127-41.506,48.237-83.023,72.215-124.616c24.165-41.916,48.292-83.868,72.098-125.956c3.134-5.541,6.221-11.108,9.444-16.597"/>
<path opacity="0.6" fill="none" stroke="#29ABE2" stroke-width="0.4" stroke-miterlimit="10" stroke-dasharray="2.6473,2.6473" d="
	M422.791,519.928c6.248-10.38,12.395-20.824,18.365-31.367c5.873-10.371,10.63-21.181,16.876-31.512
	c12.297-21.363,25.015-42.483,37.277-63.867c24.59-42.879,49.542-85.547,74.352-128.298c24.976-43.038,50.051-86.016,75.118-129
	c24.893-42.683,49.186-85.71,73.778-128.564c1.232-2.147,2.464-4.294,3.696-6.442"/>
<path opacity="0.6" fill="none" stroke="#29ABE2" stroke-width="0.4" stroke-miterlimit="10" stroke-dasharray="2.6473,2.6473" d="
	M401.048,519.795C465.263,406.83,528.29,296.799,594.521,181.428c4.273-7.478,7.478-14.956,11.751-22.433
	c18.16-28.843,34.184-53.413,51.276-82.256c4.272-7.478,6.409-13.887,10.683-21.365c4.272-4.273,7.478-8.546,10.682-13.888
	c7.479-13.887,14.956-26.706,21.44-40.439"/>
<path opacity="0.6" fill="none" stroke="#29ABE2" stroke-width="0.4" stroke-miterlimit="10" stroke-dasharray="2.6473,2.6473" d="
	M378.935,519.214c23.769-42.052,47.886-83.904,71.991-125.764c24.499-42.541,48.646-85.292,73.444-127.659
	c24.638-42.094,49.077-84.304,73.461-126.546c24.167-41.867,48.281-83.765,72.497-125.604c2.436-4.208,4.872-8.415,7.31-12.622"/>
<path opacity="0.6" fill="none" stroke="#29ABE2" stroke-width="0.4" stroke-miterlimit="10" stroke-dasharray="2.6473,2.6473" d="
	M356.698,518.848c83.995-141.93,158.772-282.939,248.506-428.222c4.273-8.546,6.409-16.024,11.751-23.502
	c14.955-22.433,26.706-43.798,38.301-66.587"/>
<path opacity="0.6" fill="none" stroke="#29ABE2" stroke-width="0.4" stroke-miterlimit="10" stroke-dasharray="2.6473,2.6473" d="
	M333.411,519.603c23.555-41.899,48.107-83.227,72.003-124.932c12.047-21.023,23.406-42.537,35.948-63.24
	c12.547-20.709,24.931-41.498,37.016-62.48c23.96-41.601,47.469-83.46,71.641-124.938c11.971-20.538,24.106-40.68,36.538-61.242
	c6.176-10.066,12.548-19.777,17.518-30.468c4.714-10.141,10.612-19.667,16.401-29.214c4.358-7.188,8.785-14.317,12.057-22.067"/>
<path opacity="0.6" fill="none" stroke="#29ABE2" stroke-width="0.4" stroke-miterlimit="10" stroke-dasharray="2.6473,2.6473" d="
	M312.436,519.377c24.634-43.122,49.25-86.254,73.938-129.345c24.624-42.978,49.275-85.939,74.182-128.754
	c24.809-42.647,49.93-85.112,74.362-127.976c24.42-42.841,48.777-85.721,73.729-128.255c0.694-1.695,1.988-3.39,2.981-5.086"/>
<path opacity="0.6" fill="none" stroke="#29ABE2" stroke-width="0.4" stroke-miterlimit="10" stroke-dasharray="2.6473,2.6473" d="
	M290.417,519.161c23.939-41.663,47.897-83.314,71.841-124.976c24.066-41.872,48.117-83.754,72.122-125.662
	c24.437-42.662,49.059-85.203,73.873-127.647c24.289-41.55,48.552-83.116,72.376-124.935c3-5.267,5.994-10.538,8.98-15.814"/>
<path opacity="0.6" fill="none" stroke="#29ABE2" stroke-width="0.4" stroke-miterlimit="10" stroke-dasharray="2.6473,2.6473" d="
	M267.594,518.928c24.936-42.459,48.703-85.591,73.521-128.117c25.031-42.892,49.912-85.868,74.793-128.845
	c24.85-42.921,49.754-85.809,74.712-128.667C515.52,90.547,540.35,47.746,564.822,4.748c0.854-1.502,1.709-3.005,2.562-4.509"/>
<path opacity="0.6" fill="none" stroke="#29ABE2" stroke-width="0.4" stroke-miterlimit="10" stroke-dasharray="2.6473,2.6473" d="
	M244.829,519.438c24.645-43.054,49.458-86.01,74.324-128.937c24.875-42.94,49.855-85.82,74.663-128.8
	c24.513-42.468,47.973-85.634,73.501-127.505c6.03-9.891,12.347-19.605,18.324-29.528c5.969-9.905,11.057-20.146,16.355-30.407
	c10.448-20.239,24.293-38.503,34.736-58.738c2.593-5.023,4.983-10.147,7.604-15.156"/>
<path opacity="0.6" fill="none" stroke="#29ABE2" stroke-width="0.4" stroke-miterlimit="10" stroke-dasharray="2.6473,2.6473" d="
	M223.639,518.887c13.385-20.389,24.898-41.708,37.123-62.79c12.004-20.702,25.058-40.667,35.134-62.691
	c5.051-10.889,11.504-21.039,17.587-31.376c6.134-10.424,12.264-20.849,18.384-31.28c12.085-20.599,24.133-41.219,36.102-61.885
	c11.972-20.672,23.865-41.389,35.644-62.172c11.87-20.643,22.909-42.509,36.231-62.557c6.608-9.944,11.645-21.289,17.495-31.724
	c5.812-10.369,11.731-20.676,17.671-30.672c12.081-20.64,23.648-42.248,36.211-62.894c3.614-5.941,7.109-11.955,10.72-17.899"/>
<path opacity="0.6" fill="none" stroke="#29ABE2" stroke-width="0.4" stroke-miterlimit="10" stroke-dasharray="2.6473,2.6473" d="
	M200.651,519.636c5.026-8.118,10.368-17.732,15.709-26.278c8.546-17.092,18.16-33.116,27.774-50.208
	c16.024-28.843,33.116-55.549,50.208-85.46c1.068-1.068,0-3.205,1.068-4.273c9.614-14.955,19.229-27.774,25.638-43.798
	c2.136-3.205,5.341-6.41,7.478-9.614c11.751-21.366,22.434-41.662,34.184-63.027c1.068-1.068,2.137-2.137,3.205-3.205
	c2.137-3.205,2.137-7.478,4.273-11.75c13.887-22.434,26.706-41.662,40.593-64.095c25.638-44.867,50.208-85.46,74.778-130.327
	c4.273-9.614,9.614-18.16,15.074-26.918"/>
<path opacity="0.6" fill="none" stroke="#29ABE2" stroke-width="0.4" stroke-miterlimit="10" stroke-dasharray="2.6473,2.6473" d="
	M179.204,519.359c24.918-43.124,49.834-86.251,74.749-129.379c24.799-42.927,49.562-85.873,74.094-128.954
	c24.574-43.154,49.402-86.163,74.279-129.142c24.894-43.007,49.831-85.989,74.577-129.082c0.37-0.645,0.739-1.289,1.109-1.934"/>
<path opacity="0.6" fill="none" stroke="#29ABE2" stroke-width="0.4" stroke-miterlimit="10" stroke-dasharray="2.6473,2.6473" d="
	M156.618,519.385c24.929-42.986,49.73-86.047,74.472-129.141c24.747-43.101,49.438-86.233,74.153-129.352
	c24.739-43.159,49.503-86.305,74.373-129.389c24.822-43,49.751-85.94,74.862-128.773c0.377-0.644,0.755-1.287,1.132-1.931"/>
<path opacity="0.6" fill="none" stroke="#29ABE2" stroke-width="0.4" stroke-miterlimit="10" stroke-dasharray="2.6473,2.6473" d="
	M133.649,519.202c24.894-43.105,49.761-86.228,74.552-129.392c24.735-43.068,49.309-86.228,74.153-129.233
	c24.838-42.996,49.546-86.067,74.389-129.061c24.727-42.792,49.591-85.505,74.859-127.979c0.507-0.853,1.014-1.705,1.521-2.557"/>
<path opacity="0.6" fill="none" stroke="#29ABE2" stroke-width="0.4" stroke-miterlimit="10" stroke-dasharray="2.6473,2.6473" d="
	M111.608,520.491c24.726-43.146,49.444-86.295,74.183-129.433c24.675-43.026,49.373-86.04,74.117-129.027
	c24.646-42.818,49.186-85.7,74.142-128.339c12.518-21.387,25.257-42.644,37.732-64.056c12.286-21.087,23.856-42.576,35.91-63.794
	c1.054-1.854,2.119-3.704,3.197-5.545"/>
<path opacity="0.6" fill="none" stroke="#29ABE2" stroke-width="0.4" stroke-miterlimit="10" stroke-dasharray="2.6473,2.6473" d="
	M89.703,520.083c17.695-28.862,32.65-57.705,49.742-88.685c3.205-4.272,7.478-7.478,9.614-12.818
	c9.614-23.502,23.502-43.799,37.389-65.164c1.068-2.137,1.068-4.272,2.136-6.409c5.341-7.478,8.546-14.956,12.819-22.434
	c8.546-13.888,14.956-25.638,24.57-39.525c2.136-3.205,2.136-6.41,4.273-9.614c34.184-55.549,61.958-108.962,94.006-165.579
	c5.341-8.546,10.683-14.956,16.024-23.502c12.819-24.57,26.706-45.935,40.593-69.437c1.068-3.205,3.205-6.409,4.273-9.614
	c1.068-2.136,3.205-4.273,4.5-6.316"/>
<path opacity="0.6" fill="none" stroke="#29ABE2" stroke-width="0.4" stroke-miterlimit="10" stroke-dasharray="2.6473,2.6473" d="
	M67.875,519.058c24.43-43.072,49.069-86.025,73.821-128.913c24.783-42.94,49.678-85.815,74.593-128.681
	c24.951-42.925,49.92-85.839,74.814-128.796c24.932-43.021,49.785-86.088,74.475-129.249c0.492-0.859,0.684-1.72,1.476-2.58"/>
<path opacity="0.6" fill="none" stroke="#29ABE2" stroke-width="0.4" stroke-miterlimit="10" stroke-dasharray="2.6473,2.6473" d="
	M45.792,519.912c1.783-4.12,3.92-8.394,6.056-12.666c10.683-18.161,22.434-33.116,29.911-52.345
	c17.092-25.639,30.679-51.276,45.935-79.051c5.341-8.546,10.683-17.092,16.023-25.639c10.683-17.092,19.229-34.184,28.843-51.275
	c48.071-79.051,88.665-153.829,134.6-233.948c5.341-8.546,10.683-17.092,16.024-25.638c3.205-7.478,6.41-14.956,10.683-22.434
	c4.273-5.341,6.41-10.682,10.004-16.276"/>
<path opacity="0.6" fill="none" stroke="#29ABE2" stroke-width="0.4" stroke-miterlimit="10" stroke-dasharray="2.6473,2.6473" d="
	M22.32,521.192c23.985-42.806,49.736-84.6,73.731-127.396c5.909-10.538,11.074-21.672,17.453-31.919
	c6.176-9.923,12.402-19.839,18.119-30.04c5.96-10.634,11.196-21.514,17.563-31.938c6.319-10.347,12.731-20.636,19.066-30.672
	c25.478-41.572,49.125-84.317,73.557-126.51c24.089-41.603,48.179-83.206,72.015-124.955c3.233-5.663,6.462-11.329,9.685-16.997"/>
<path opacity="0.6" fill="none" stroke="#29ABE2" stroke-width="0.4" stroke-miterlimit="10" stroke-dasharray="2.6473,2.6473" d="
	M0.016,519.981c5.897-7.395,9.103-15.94,13.375-24.486c1.068-1.068,2.136-2.137,3.205-3.205c2.137-5.341,4.273-10.683,8.546-14.955
	c4.273-5.342,5.341-12.819,9.614-19.229c3.205-5.342,6.409-10.683,9.614-16.024c1.068-1.068,2.136-2.137,3.205-3.205
	c3.205-5.341,5.341-10.682,9.614-14.955s3.205-10.683,6.41-16.023c18.16-27.775,30.679-53.413,47.003-81.188
	c10.683-17.092,20.297-34.185,32.048-51.276c5.341-8.546,7.478-17.092,12.819-25.638c5.341-7.478,11.751-14.956,16.024-23.501
	c5.341-11.751,12.819-22.433,19.229-34.184c4.273-9.614,9.614-18.16,14.956-27.774c23.501-41.662,47.003-81.188,71.573-122.85
	c1.068-3.205,1.068-6.409,3.205-9.614c7.478-10.682,13.887-20.296,20.146-30.659"/>
<path opacity="0.6" fill="none" stroke="#29ABE2" stroke-width="0.4" stroke-miterlimit="10" stroke-dasharray="2.6473,2.6473" d="
	M1.096,479.88c11.684-21.172,24.698-41.572,36.566-62.639c11.963-21.236,24.185-42.283,36.814-63.13
	c6.14-10.137,11.211-20.879,17.098-31.161c5.983-10.452,11.978-20.877,18.411-31.061c12.887-20.397,24.695-41.448,36.585-62.433
	c24.329-42.938,48.644-85.881,73.484-128.525C239.571,67.43,259.013,33.885,278.42,0.319"/>
<path opacity="0.6" fill="none" stroke="#29ABE2" stroke-width="0.4" stroke-miterlimit="10" stroke-dasharray="2.6473,2.6473" d="
	M0.657,441.819C86.033,294.663,170.425,148.312,256.206,1.263"/>
<path opacity="0.6" fill="none" stroke="#29ABE2" stroke-width="0.4" stroke-miterlimit="10" stroke-dasharray="2.6473,2.6473" d="
	M0.521,404.265c11.596-21.088,24.554-41.39,36.258-62.418c11.568-20.783,23.474-41.147,36.117-61.287
	c6.045-9.629,10.479-20.176,16.25-29.97c6.277-10.654,12.516-21.331,18.746-32.014c12.536-21.499,25.051-43.01,37.595-64.504
	c24.737-42.387,49.351-84.797,73.391-127.583c4.811-8.562,9.762-17.045,14.698-25.535"/>
<path opacity="0.6" fill="none" stroke="#29ABE2" stroke-width="0.4" stroke-miterlimit="10" stroke-dasharray="2.6473,2.6473" d="
	M0.184,366.246c23.702-43.008,47.96-85.715,72.991-127.965c24.921-42.067,51.052-83.415,75.316-125.871
	c21.24-37.164,41.009-75.18,63.545-111.594"/>
<path opacity="0.6" fill="none" stroke="#29ABE2" stroke-width="0.4" stroke-miterlimit="10" stroke-dasharray="2.6473,2.6473" d="
	M0.674,327.129c11.731-20.862,24.57-41.066,36.196-61.994c5.761-10.372,12.288-20.298,17.999-30.684
	c5.651-10.274,11.061-20.644,16.864-30.838c11.896-20.895,24.916-41.087,36.784-61.993c12.27-21.614,24.588-43.201,36.945-64.765
	c14.666-25.596,29.385-51.161,44.136-76.708"/>
<path opacity="0.6" fill="none" stroke="#29ABE2" stroke-width="0.4" stroke-miterlimit="10" stroke-dasharray="2.6473,2.6473" d="
	M0.337,289.572c24.445-43.047,49.153-85.944,73.976-128.773c24.862-42.9,49.838-85.733,74.774-128.59
	c6.091-10.468,12.18-20.638,18.265-31.41"/>
<path opacity="0.6" fill="none" stroke="#29ABE2" stroke-width="0.4" stroke-miterlimit="10" stroke-dasharray="2.6473,2.6473" d="
	M0.744,249.446c4.102-8.196,10.511-15.674,15.852-24.22c44.867-76.914,86.529-149.555,129.43-225.569"/>
<path opacity="0.6" fill="none" stroke="#29ABE2" stroke-width="0.4" stroke-miterlimit="10" stroke-dasharray="2.6473,2.6473" d="
	M0.801,211.301c5.854-10.44,12.543-20.349,18.755-30.571c6.351-10.451,12.397-21.086,18.526-31.667
	c12.413-21.431,24.833-42.857,37.226-64.3c16.205-28.039,32.361-56.106,48.387-84.248"/>
<path opacity="0.6" fill="none" stroke="#29ABE2" stroke-width="0.4" stroke-miterlimit="10" stroke-dasharray="2.6473,2.6473" d="
	M1.025,173.088C25.794,129.952,50.681,86.884,75.57,43.817c8.475-14.663,16.949-29.326,25.418-43.992"/>
<path opacity="0.6" fill="none" stroke="#29ABE2" stroke-width="0.4" stroke-miterlimit="10" stroke-dasharray="2.6473,2.6473" d="
	M0.697,134.141C24.326,91.397,49.431,49.662,73.744,7.479c1.469-2.55,2.936-5.102,4.4-7.655"/>
<path opacity="0.6" fill="none" stroke="#29ABE2" stroke-width="0.4" stroke-miterlimit="10" stroke-dasharray="2.6473,2.6473" d="
	M0.878,96.224c18.12-32.255,36.494-64.368,55.006-96.399"/>
<path opacity="0.6" fill="none" stroke="#29ABE2" stroke-width="0.4" stroke-miterlimit="10" stroke-dasharray="2.6473,2.6473" d="
	M0.402,58.435C11.297,38.721,22.65,19.266,34.018-0.175"/>
<path opacity="0.6" fill="none" stroke="#29ABE2" stroke-width="0.4" stroke-miterlimit="10" stroke-dasharray="2.6473,2.6473" d="
	M0.581,19.963C4.249,13.541,7.942,7.132,11.649,0.732"/>
<path opacity="0.6" fill="none" stroke="#29ABE2" stroke-width="0.4" stroke-miterlimit="10" stroke-dasharray="2.6473,2.6473" d="
	M955.004,328.456c-24.821-42.991-49.643-85.982-74.463-128.973c-24.819-42.99-49.641-85.979-74.46-128.968
	c-13.429-23.259-26.857-46.517-40.285-69.775"/>
<path opacity="0.6" fill="none" stroke="#29ABE2" stroke-width="0.4" stroke-miterlimit="10" stroke-dasharray="2.6473,2.6473" d="
	M955.093,290.08c-24.287-42.988-49.391-85.506-74.024-128.294C856.516,119.14,832.55,76.161,807.591,33.75
	c-6.5-11.046-13.014-22.084-19.509-33.134"/>
<path opacity="0.6" fill="none" stroke="#29ABE2" stroke-width="0.4" stroke-miterlimit="10" stroke-dasharray="2.6473,2.6473" d="
	M954.975,251.36c-24.58-43.105-49.362-86.095-74.222-129.04c-23.435-40.484-46.938-80.629-70.401-121.396"/>
<path opacity="0.6" fill="none" stroke="#29ABE2" stroke-width="0.4" stroke-miterlimit="10" stroke-dasharray="2.6473,2.6473" d="
	M954.657,212.587c-24.008-42.24-49.984-83.379-73.535-125.873c-7.881-14.221-15.579-28.543-23.341-42.83
	c-7.939-14.616-16.239-28.808-24.954-42.961"/>
<path opacity="0.6" fill="none" stroke="#29ABE2" stroke-width="0.4" stroke-miterlimit="10" stroke-dasharray="2.6473,2.6473" d="
	M955.664,174.546c-1.141-4.87-5.414-8.074-8.619-12.347c-17.092-28.843-32.047-55.549-48.071-84.392
	c-16.023-26.706-29.911-52.344-44.471-77.762"/>
<path opacity="0.6" fill="none" stroke="#29ABE2" stroke-width="0.4" stroke-miterlimit="10" stroke-dasharray="2.6473,2.6473" d="
	M955.11,136.038C930.299,93.569,906.307,50.626,881.457,8.18c-1.365-2.333-2.734-4.664-4.104-6.993"/>
<path opacity="0.6" fill="none" stroke="#29ABE2" stroke-width="0.4" stroke-miterlimit="10" stroke-dasharray="2.6473,2.6473" d="
	M954.769,97.304c-18.665-32.327-37.328-64.653-55.992-96.98"/>
<path opacity="0.6" fill="none" stroke="#29ABE2" stroke-width="0.4" stroke-miterlimit="10" stroke-dasharray="2.6473,2.6473" d="
	M954.406,58.365c-10.645-18.989-21.89-37.979-32.831-56.97"/>
<path opacity="0.6" fill="none" stroke="#29ABE2" stroke-width="0.4" stroke-miterlimit="10" stroke-dasharray="2.6473,2.6473" d="
	M954.567,19.703c-3.595-6.429-7.014-12.954-10.627-19.373"/>
<path opacity="0.6" fill="none" stroke="#29ABE2" stroke-width="0.4" stroke-miterlimit="10" stroke-dasharray="2.6473,2.6473" d="
	M89.549,519.706c-24.457-42.901-49.364-85.543-73.91-128.395c-5.159-9.007-10.303-18.023-15.422-27.054"/>
<path opacity="0.6" fill="none" stroke="#29ABE2" stroke-width="0.4" stroke-miterlimit="10" stroke-dasharray="2.6473,2.6473" d="
	M111.608,520.491c-24.524-42.691-48.71-85.58-73.108-128.345C25.751,369.8,12.946,347.49,0,325.261"/>
<path opacity="0.6" fill="none" stroke="#29ABE2" stroke-width="0.4" stroke-miterlimit="10" stroke-dasharray="2.6473,2.6473" d="
	M133.649,519.202c-24.573-42.855-49.394-85.564-74.111-128.335C39.76,356.643,20.053,322.378,0.601,287.965"/>
<path opacity="0.6" fill="none" stroke="#29ABE2" stroke-width="0.4" stroke-miterlimit="10" stroke-dasharray="2.6473,2.6473" d="
	M155.627,519.805C103.125,430.331,52.917,340.597,0.792,250.738"/>
<path opacity="0.6" fill="none" stroke="#29ABE2" stroke-width="0.4" stroke-miterlimit="10" stroke-dasharray="2.6473,2.6473" d="
	M177.973,519.068c-24.64-46.007-52.415-88.737-78.053-134.672c-3.205-6.409-6.409-12.819-10.682-19.229
	C63.6,319.233,36.893,276.502,10.187,229.499c-3.205-6.409-6.41-11.75-9.73-18.441"/>
<path opacity="0.6" fill="none" stroke="#29ABE2" stroke-width="0.4" stroke-miterlimit="10" stroke-dasharray="2.6473,2.6473" d="
	M201.414,519.976c-10.692-20.209-22.443-39.438-34.194-59.734c-32.048-57.686-64.095-111.098-97.211-169.852
	c-24.57-40.594-45.935-79.051-69.427-117.915"/>
<path opacity="0.6" fill="none" stroke="#29ABE2" stroke-width="0.4" stroke-miterlimit="10" stroke-dasharray="2.6473,2.6473" d="
	M222.911,518.561C151.196,389.737,73.214,263.683,0.605,134.694"/>
<path opacity="0.6" fill="none" stroke="#29ABE2" stroke-width="0.4" stroke-miterlimit="10" stroke-dasharray="2.6473,2.6473" d="
	M245.269,519.667c-63.093-111.77-127.188-219.663-192.352-333.967c-17.092-30.679-33.116-60.89-52.132-89.431"/>
<path opacity="0.6" fill="none" stroke="#29ABE2" stroke-width="0.4" stroke-miterlimit="10" stroke-dasharray="2.6473,2.6473" d="
	M267.326,518.538c-4.75-9.697-10.712-19.223-16.23-28.497c-6.003-10.089-11.496-20.47-17.461-30.581
	c-2.999-5.082-6.269-10.014-9.507-14.95c-3.181-4.85-4.863-10.104-7.869-15.02c-6.395-10.457-12.702-20.667-18.944-31.516
	c-24.307-41.069-47.613-82.721-71.862-123.824c-6.209-10.525-12.479-21.014-18.833-31.452c-1.489-2.444-3.233-4.854-4.492-7.425
	c-1.074-2.191-1.291-4.612-2.208-6.842c-2.247-5.467-5.782-10.716-8.643-15.889c-11.542-20.875-23.629-41.44-35.85-61.923
	c-18.615-31.201-37.533-62.23-55.261-93.95"/>
<path opacity="0.6" fill="none" stroke="#29ABE2" stroke-width="0.4" stroke-miterlimit="10" stroke-dasharray="2.6473,2.6473" d="
	M289.091,519.311c-5.464-10.103-11.391-19.944-17.02-29.954c-2.896-5.151-5.424-10.543-8.384-15.648
	c-2.69-4.64-5.889-8.99-8.549-13.69c-12.113-21.401-24.567-42.614-36.81-63.942c-23.98-41.774-47.873-83.599-71.771-125.42
	c-23.963-41.933-47.934-83.862-72.006-125.733c-12.188-21.2-24.297-42.441-36.959-63.362C25.13,60.669,12.637,40.377,1.244,19.167"
	/>
<path opacity="0.6" fill="none" stroke="#29ABE2" stroke-width="0.4" stroke-miterlimit="10" stroke-dasharray="2.6473,2.6473" d="
	M311.681,519.115c-44.045-74.896-85.707-147.538-128.437-224.452c-8.546-13.888-16.023-26.706-24.57-40.594
	C113.808,175.018,71.077,101.309,26.21,22.258C21.938,14.78,17.665,7.302,12.818,0.636"/>
<path opacity="0.6" fill="none" stroke="#29ABE2" stroke-width="0.4" stroke-miterlimit="10" stroke-dasharray="2.6473,2.6473" d="
	M0.213,404.547c22.647,39.33,44.938,77.423,67.273,115.6"/>
<path opacity="0.6" fill="none" stroke="#29ABE2" stroke-width="0.4" stroke-miterlimit="10" stroke-dasharray="2.6473,2.6473" d="
	M0.563,443.63c9.638,16.505,19.275,33.01,28.913,49.515c5.135,8.795,10.271,17.59,15.407,26.385"/>
<path opacity="0.6" fill="none" stroke="#29ABE2" stroke-width="0.4" stroke-miterlimit="10" stroke-dasharray="2.6473,2.6473" d="
	M1.045,483.762c7.091,12.477,14.183,24.953,21.274,37.43"/>
<line opacity="0.6" fill="none" stroke="#29ABE2" stroke-width="0.4" stroke-miterlimit="10" stroke-dasharray="2.6473,2.6473" x1="563.146" y1="237.783" x2="563.261" y2="237.583"/>
</svg>
