<?xml version="1.0" encoding="utf-8"?>
<!-- Generator: Adobe Illustrator 16.0.0, SVG Export Plug-In . SVG Version: 6.00 Build 0)  -->
<!DOCTYPE svg PUBLIC "-//W3C//DTD SVG 1.1//EN" "http://www.w3.org/Graphics/SVG/1.1/DTD/svg11.dtd">
<svg version="1.1" xmlns="http://www.w3.org/2000/svg" xmlns:xlink="http://www.w3.org/1999/xlink" x="0px" y="0px"
	 width="955.664px" height="500.613px" viewBox="0 0 955.664 500.613" enable-background="new 0 0 955.664 500.613"
	 xml:space="preserve">
<g id="Layer_1">
	<path opacity="0.7" fill="none" stroke="#29ABE2" stroke-width="0.4" stroke-miterlimit="10" stroke-dasharray="2.6473,2.6473" d="
		M954.823,0.856C637.252,0.893,319.98,0.893,2.513,0.751"/>
	<path opacity="0.7" fill="none" stroke="#29ABE2" stroke-width="0.4" stroke-miterlimit="10" stroke-dasharray="2.6473,2.6473" d="
		M323.081,500.458c-2.814-5.644-5.814-10.644-8.814-16.644c-4-7-10-14-14-21c-8-14-16-28-24-42c-3-5-5-11-8-16c-4-5-7-9-9-14
		c-76-134-150-261-225.249-390.989"/>
	<path opacity="0.7" fill="none" stroke="#29ABE2" stroke-width="0.4" stroke-miterlimit="10" stroke-dasharray="2.6473,2.6473" d="
		M344.276,500.26c-2.01-3.446-4.01-6.446-6.01-10.446c-8-15-17-30-26-46c-11-19-20-37-33-56c-3-5-6-11-8-17c-4-8-10-14-14-22
		c-22-41-44-78-68-118c-2-3-2-6-4-9c-10-16-18-30-28-46c-4-7-8-14-12-21c-1-2-1-3-2-5c-4-7-8-14-12-21c-26-44-51-86-75.383-128.989"
		/>
	<path opacity="0.7" fill="none" stroke="#29ABE2" stroke-width="0.4" stroke-miterlimit="10" stroke-dasharray="2.6473,2.6473" d="
		M366.609,500.156c-23.154-40.227-46.354-80.427-69.638-120.578c-23.166-39.948-46.002-80.07-68.853-120.197
		c-5.565-9.772-11.542-19.29-17.375-28.901c-5.757-9.489-10.782-19.393-16.154-29.1c-11.016-19.9-22.985-39.253-34.505-58.862
		c-23.14-39.391-44.879-79.586-67.913-119.04C87.55,15.562,82.875,7.676,78.144-0.175"/>
	<path opacity="0.7" fill="none" stroke="#29ABE2" stroke-width="0.4" stroke-miterlimit="10" stroke-dasharray="2.6473,2.6473" d="
		M388.884,500.482c-12.617-24.668-28.617-47.668-41.617-73.668c-13-23-26-45-39-68c-3-4-5-8-8-12c-2-3-2-6-4-9c-3-4-5-8-8-12
		c-2-3-2-6-4-9c-3-4-5-8-8-12c-13-25-27-47-41-72c-9-15-17-29-27-43c-5-16-14-29-23-44c-28-50-55-97-84.278-145.989"/>
	<path opacity="0.7" fill="none" stroke="#29ABE2" stroke-width="0.4" stroke-miterlimit="10" stroke-dasharray="2.6473,2.6473" d="
		M412.073,500.218c-11.012-19.165-23.058-37.709-34.362-56.699c-11.68-19.62-22.751-39.615-34.107-59.425
		c-22.252-38.818-44.612-77.573-67.027-116.297c-22.545-38.95-45.144-77.869-67.731-116.794
		c-22.953-39.554-45.373-79.398-68.018-119.127c-6.096-10.695-12.251-21.356-18.394-32.025"/>
	<path opacity="0.7" fill="none" stroke="#29ABE2" stroke-width="0.4" stroke-miterlimit="10" stroke-dasharray="2.6473,2.6473" d="
		M432.637,500.148c-11.493-19.248-21.744-39.193-32.884-58.643c-11.292-19.717-23.109-39.127-34.406-58.84
		c-11.221-19.579-22.663-38.981-34.249-58.344c-5.688-9.506-10.637-19.306-15.645-29.174c-4.953-9.761-10.599-19-16.345-28.302
		c-11.65-18.859-21.619-38.694-33.373-57.495c-12.146-19.428-23.851-39.126-35.431-58.896
		c-23.401-39.947-46.401-80.129-69.146-120.454c-5.55-9.84-11.091-19.687-16.635-29.531"/>
	<path opacity="0.7" fill="none" stroke="#29ABE2" stroke-width="0.4" stroke-miterlimit="10" stroke-dasharray="2.6473,2.6473" d="
		M454.994,500.33c-22.519-39.097-45.125-78.144-67.719-117.196c-22.829-39.46-45.645-78.927-68.353-118.457
		c-22.479-39.131-44.771-78.365-67.214-117.538c-22.463-39.208-45.436-78.101-68.094-117.19
		c-5.658-9.761-11.311-19.524-17.112-29.201"/>
	<path opacity="0.7" fill="none" stroke="#29ABE2" stroke-width="0.4" stroke-miterlimit="10" stroke-dasharray="2.6473,2.6473" d="
		M477.159,500.586c-23.475-39.789-46.528-79.825-69.504-119.904c-23.084-40.269-46.098-80.578-69.397-120.724
		c-11.584-19.96-23.464-39.755-34.959-59.766c-11.185-19.473-21.321-39.524-32.339-59.09c-22.694-40.3-45.854-80.336-69.335-120.182
		c-4.074-6.913-8.191-13.798-12.528-20.549"/>
	<path opacity="0.7" fill="none" stroke="#29ABE2" stroke-width="0.4" stroke-miterlimit="10" stroke-dasharray="2.6473,2.6473" d="
		M499.397,500.485c-26.131-45.671-53.131-89.671-80.131-137.671c-25-44-48-85-73-129c-46-80-91-154-134.39-232.634"/>
	<path opacity="0.7" fill="none" stroke="#29ABE2" stroke-width="0.4" stroke-miterlimit="10" stroke-dasharray="2.6473,2.6473" d="
		M521.066,500.155c-6.8-7.341-10.8-16.341-14.8-25.341c-5-12-10-23-16-34c-6-9-12-17-19-25c-15-37-38-68-58-103c-2-3-2-7-4-10
		c-9-12-16-24-24-37c-5-10-10-19-16-29c-2-4-3-9-6-13c-9-13-15-26-24-39c-5-9-11-16-13-26c-10-13-16-28-24-42c-1-1-2-2-3-3
		c-4-7-7-14-11-21c-20-31-36-61-54.303-91.808"/>
	<path opacity="0.7" fill="none" stroke="#29ABE2" stroke-width="0.4" stroke-miterlimit="10" stroke-dasharray="2.6473,2.6473" d="
		M545.026,500.151c-21.766-39.655-45.614-78.102-68.216-117.273c-11.453-19.851-22.581-39.892-34.286-59.595
		c-11.253-18.942-24.451-37.174-33.966-57.009c-4.551-9.488-10.681-18.19-15.809-27.37c-2.607-4.667-5-9.307-6.878-14.318
		c-1.899-5.068-5.105-9.458-7.959-14.03c-12.149-19.467-23.84-39.216-35.303-59.093C319.68,111.704,297.654,71.431,274.59,31.75
		c-6.073-10.449-12.218-20.856-18.469-31.2"/>
	<path opacity="0.7" fill="none" stroke="#29ABE2" stroke-width="0.4" stroke-miterlimit="10" stroke-dasharray="2.6473,2.6473" d="
		M566.179,500.613c-5.912-7.799-8.912-16.799-14.912-24.799c-2-3-2-6-4-9c-7-10-13-20-19-30c-1-3-2-8-3-11c-4-6-7-11-11-17
		c-11-20-21-38-34-57c-2-3-2-7-4-11c-46-73-83-142-124-216c-8-15-18-27-28-42c-6-10-10-21-16-31c-10-14-15-29-25-44
		c-2-2-4-4-5.313-7.38"/>
	<path opacity="0.7" fill="none" stroke="#29ABE2" stroke-width="0.4" stroke-miterlimit="10" stroke-dasharray="2.6473,2.6473" d="
		M588.589,500.613c-23.257-40.229-46.519-80.454-69.777-120.682c-23.242-40.198-46.48-80.4-69.751-120.583
		c-23.171-40.01-46.242-80.081-68.728-120.48c-22.267-40.004-45.881-79.224-68.468-119.044c-3.634-6.407-7.189-12.859-10.826-19.266
		"/>
	<path opacity="0.7" fill="none" stroke="#29ABE2" stroke-width="0.4" stroke-miterlimit="10" stroke-dasharray="2.6473,2.6473" d="
		M611.459,500.607C519.267,337.814,427.267,181.814,332.267,15.814c-3-5-6-10-9.518-15.216"/>
	<path opacity="0.7" fill="none" stroke="#29ABE2" stroke-width="0.4" stroke-miterlimit="10" stroke-dasharray="2.6473,2.6473" d="
		M632.555,500.589c-11.675-18.822-22.146-38.43-33.152-57.654c-11.238-19.626-21.939-39.553-33.189-59.174
		c-23.021-40.151-46.467-80.058-69.704-120.083c-11.652-20.069-23.252-40.168-34.725-60.34c-5.649-9.934-11.361-19.843-16.843-29.87
		c-4.86-8.89-9.034-18.237-15.069-26.429c-12.379-16.804-21.291-36.082-31.803-54.115c-11.631-19.952-23.488-39.77-35.277-59.628
		c-6.403-10.786-12.183-21.932-18.617-32.689"/>
	<path opacity="0.7" fill="none" stroke="#29ABE2" stroke-width="0.4" stroke-miterlimit="10" stroke-dasharray="2.6473,2.6473" d="
		M654.693,500.457c-23.229-40.167-46.307-80.422-69.325-120.71c-23.01-40.272-46.064-80.521-68.925-120.878
		c-22.293-39.357-44.027-79.054-68.083-117.378c-11.882-18.929-22.416-38.639-33.559-58.001
		c-11.48-19.947-23.384-39.654-35.135-59.442c-4.592-7.733-9.233-15.443-13.655-23.276"/>
	<path opacity="0.7" fill="none" stroke="#29ABE2" stroke-width="0.4" stroke-miterlimit="10" stroke-dasharray="2.6473,2.6473" d="
		M678.063,499.899c-2.797-5.085-4.797-10.085-7.797-15.085c-15-22-26-42-37-65c-1-1-2-2-3-3c-4-8-9-16-13-24c-12-19-23-37-35-55
		c-4-14-13-24-20-37c-6-12-15-23-22-36c-6-11-9-22-16-32c-17-22-28-44-42-67c-3-6-5-11-8-17c-10-16-18-31-28-47c-1-2-1-5-2-7
		c-22-31-35-63-53.756-93.485"/>
	<path opacity="0.7" fill="none" stroke="#29ABE2" stroke-width="0.4" stroke-miterlimit="10" stroke-dasharray="2.6473,2.6473" d="
		M698.857,500.148c-2.591-4.334-4.591-7.334-7.591-11.334c-12-22-21-44-35-66c-3-3-5-6-8-9c-4-7-9-14-11-22c-4-10-10-19-16-29
		c-10-13-16-26-23-39c-15-25-28-49-44-72c-8-22-22-40-34-60c-4-8-9-16-14-24c-2-3-3-5-4-8s-4-5-5-7c-8-18-18-35-29-50
		c-9-26-27-47-40-72c-3-5-4-10-6-15c-2-4-5-8-8-11c-1-1-2-3-2.365-4.89"/>
	<path opacity="0.7" fill="none" stroke="#29ABE2" stroke-width="0.4" stroke-miterlimit="10" stroke-dasharray="2.6473,2.6473" d="
		M721.078,499.476c-23.812-41.662-45.812-81.662-70.812-124.662c-14-23-26-44-39-67c-3-5-6-10-10-15c-6-10-9-20-15-30
		c-11-18-22-33-32-51c-4-8-6-15-11-22c-12-18-19-35-29-53c-8-13-15-24-23-37c-19-34-38-66-56.929-98.862"/>
	<path opacity="0.7" fill="none" stroke="#29ABE2" stroke-width="0.4" stroke-miterlimit="10" stroke-dasharray="2.6473,2.6473" d="
		M743.669,499.226c-5.529-9.45-11.22-18.805-16.968-28.123c-5.598-9.074-12.058-17.955-16.21-27.765
		c-4.3-10.158-10.444-19.454-16.036-28.971c-5.856-9.967-11.7-19.942-17.531-29.925c-23.019-39.407-45.849-78.926-68.597-118.49
		c-22.466-39.073-44.854-78.189-67.281-117.284c-22.409-39.063-44.859-78.104-67.466-117.053
		c-6.021-10.375-12.054-20.743-18.1-31.104"/>
	<path opacity="0.7" fill="none" stroke="#29ABE2" stroke-width="0.4" stroke-miterlimit="10" stroke-dasharray="2.6473,2.6473" d="
		M765.109,498.827c-4.843-6.013-6.843-14.013-10.843-21.013c-21-35-39-68-60-103c-4-6-8-11-12-17c-3-5-4-9-6-14c-2-3-4-5-6-8
		c-7-14-12-27-21-41c-11-15-19-29-27-44c-2-4-5-7-7-10c-1-2-1-4-2-6c-5-6-5-13-10-19c-1-1-2-1-3-2c-6-11-9-22-16-32c-4-4-6-9-9-14
		c-1-1-2-2-3-3c-5-9-7-18-13-26c-13-15-19-31-30-47c-12-20-21-39-32-59c-7-11-13-21-19.317-31.794"/>
	<path opacity="0.7" fill="none" stroke="#29ABE2" stroke-width="0.4" stroke-miterlimit="10" stroke-dasharray="2.6473,2.6473" d="
		M787.332,497.834c-14.065-21.021-24.065-44.021-37.065-67.021c-6-10-13-19-19-29c-16-29-31-57-48-86c-4-7-7-14-11-21
		c-29-47-53-90-83-137c-5-9-8-17-13-26c-1-1-2-2-3-3c-3-6-5-11-8-17c-21-34-37-66-57-100c-3-4-5-7-7.582-11.034"/>
	<path opacity="0.7" fill="none" stroke="#29ABE2" stroke-width="0.4" stroke-miterlimit="10" stroke-dasharray="2.6473,2.6473" d="
		M809.923,497.772c-12.656-20.958-26.656-40.958-37.656-63.958c-2-4-5-8-8-12c-19-34-33-67-57-98c-1-2-1-5-2-7c-4-6-7-11-10-16
		c-25-42-45-81-71-122c-8-13-12-27-21-40c-8-10-13-20-20-30c-7-11-10-22-16-33c-7-12-13-23-20-35c-3-5-6-10-9-15c-1-1-2-2-3-3
		c-4-7-8-14-12.159-21.393"/>
	<path opacity="0.7" fill="none" stroke="#29ABE2" stroke-width="0.4" stroke-miterlimit="10" stroke-dasharray="2.6473,2.6473" d="
		M833.386,502.199C755.267,366.814,679.267,234.814,600.267,95.814c-3-4-5-8-8-12c-16-29-32-55-47.989-83.191"/>
	<path opacity="0.7" fill="none" stroke="#29ABE2" stroke-width="0.4" stroke-miterlimit="10" stroke-dasharray="2.6473,2.6473" d="
		M855.589,500.226c-22.958-40.133-46.298-80.045-69.636-119.958c-23.371-39.97-47.029-79.807-69.713-120.173
		c-11.04-19.646-21.321-39.708-32.819-59.098c-11.848-19.979-23.52-40.06-35.268-60.097c-11.585-19.757-23.259-39.464-35.237-58.985
		c-11.814-19.253-22.492-39.11-33.357-58.906c-4.17-7.597-8.399-15.162-12.726-22.671"/>
	<path opacity="0.7" fill="none" stroke="#29ABE2" stroke-width="0.4" stroke-miterlimit="10" stroke-dasharray="2.6473,2.6473" d="
		M877.589,500.074c-22.162-39.67-45.339-78.759-67.813-118.25c-22.775-40.019-45.954-79.8-69.175-119.562
		c-22.802-39.044-45.658-78.057-68.423-117.124c-22.689-38.938-45.286-77.93-67.647-117.058
		c-5.287-9.25-10.561-18.509-15.819-27.775"/>
	<path opacity="0.7" fill="none" stroke="#29ABE2" stroke-width="0.4" stroke-miterlimit="10" stroke-dasharray="2.6473,2.6473" d="
		M898.533,499.128c-26.267-41.314-46.267-83.314-72.267-125.314c-10-16-18-32-26-48c-6-11-13-20-20-30c-2-3-2-6-3-9
		c-8-15-17-28-26-43c-9-17-18-33-29-50c-5-8-10-16-16-24c-4-8-7-15-11-23c-14-27-31-52-45-80c-1-1-2-2-3-3
		c-13-22-23-43-36.356-63.695"/>
	<path opacity="0.7" fill="none" stroke="#29ABE2" stroke-width="0.4" stroke-miterlimit="10" stroke-dasharray="2.6473,2.6473" d="
		M922.032,500.442c-22.745-39.179-45.408-78.404-68.004-117.669c-22.861-39.727-45.654-79.492-68.4-119.285
		c-22.21-38.854-44.662-77.582-67.309-116.213c-11.305-19.283-22.55-38.603-33.604-58.031
		c-10.678-18.768-20.164-38.863-32.791-56.403c-3.631-5.043-5.288-11.153-8.43-16.482c-3.121-5.293-7.946-8.892-10.066-14.959"/>
	<path opacity="0.7" fill="none" stroke="#29ABE2" stroke-width="0.4" stroke-miterlimit="10" stroke-dasharray="2.6473,2.6473" d="
		M943.282,500.949c-7.016-13.135-14.016-26.135-21.016-39.135c-8-13-15-26-23-39c-4-5-5-11-8-16c-22-36-40-69-63-105c-1-2-1-6-2-8
		c-5-9-12-15-17-24c-3-7-6-14-10-21c-11-18-21-34-32-52c-12-23-24-45-36-68c-6-10-14-18-18-29c-6-17-18-30-27-45c-10-17-18-34-28-51
		c-1-1-2-2-2.848-3.14"/>
	<path opacity="0.7" fill="none" stroke="#29ABE2" stroke-width="0.4" stroke-miterlimit="10" stroke-dasharray="2.6473,2.6473" d="
		M955.235,480.955c-24.854-43.032-49.714-86.062-74.575-129.09c-24.877-43.055-49.753-86.108-74.628-129.164
		c-24.895-43.09-49.788-86.18-74.676-129.273c-17.688-30.625-35.374-61.252-53.056-91.881"/>
	<path opacity="0.7" fill="none" stroke="#29ABE2" stroke-width="0.4" stroke-miterlimit="10" stroke-dasharray="2.6473,2.6473" d="
		M955.039,442.795c-25.099-42.048-49.523-84.499-73.145-127.395c-11.765-21.363-23.461-42.761-35.908-63.736
		c-12.58-21.2-25.483-42.214-37.852-63.539c-12.271-21.157-23.782-42.741-35.922-63.972c-12.086-21.136-24.989-41.749-37.689-62.513
		c-6.147-10.05-12.09-20.224-18-30.414c-5.749-9.914-12.221-19.46-16.862-29.964"/>
	<path opacity="0.7" fill="none" stroke="#29ABE2" stroke-width="0.4" stroke-miterlimit="10" stroke-dasharray="2.6473,2.6473" d="
		M955.583,404.782c-45.927-80.208-91.861-158.19-137.797-240.446c-32.047-55.549-64.095-108.962-95.379-163.513"/>
	<path opacity="0.7" fill="none" stroke="#29ABE2" stroke-width="0.4" stroke-miterlimit="10" stroke-dasharray="2.6473,2.6473" d="
		M955.488,367.052c-5.238-10.431-11.647-21.113-18.058-31.796c-35.252-60.891-66.231-117.508-102.552-178.398
		c-13.888-21.365-24.57-41.662-37.39-63.027c-3.204-4.273-3.204-9.614-6.409-13.887c-19.229-26.707-29.911-54.481-46.589-79.914"/>
	<path opacity="0.7" fill="none" stroke="#29ABE2" stroke-width="0.4" stroke-miterlimit="10" stroke-dasharray="2.6473,2.6473" d="
		M954.823,481.57c-317.571,0.037-635.911,0.037-953.058-0.105"/>
	<path opacity="0.7" fill="none" stroke="#29ABE2" stroke-width="0.4" stroke-miterlimit="10" stroke-dasharray="2.6473,2.6473" d="
		M954.829,462.342c-318.646,0.036-635.917,0.036-953.811-0.106"/>
	<path opacity="0.7" fill="none" stroke="#29ABE2" stroke-width="0.4" stroke-miterlimit="10" stroke-dasharray="2.6473,2.6473" d="
		M955.574,443.113c-318.322,0.037-636.662,0.037-954.556-0.106"/>
	<path opacity="0.7" fill="none" stroke="#29ABE2" stroke-width="0.4" stroke-miterlimit="10" stroke-dasharray="2.6473,2.6473" d="
		M954.829,423.884c-318.646,0.037-635.917,0.037-953.812-0.105"/>
	<path opacity="0.7" fill="none" stroke="#29ABE2" stroke-width="0.4" stroke-miterlimit="10" stroke-dasharray="2.6473,2.6473" d="
		M955.574,404.657c-318.322,0.036-636.662,0.036-954.556-0.106"/>
	<path opacity="0.7" fill="none" stroke="#29ABE2" stroke-width="0.4" stroke-miterlimit="10" stroke-dasharray="2.6473,2.6473" d="
		M957.067,385.427c-318.747,0.037-638.155,0.037-956.796-0.104"/>
	<path opacity="0.7" fill="none" stroke="#29ABE2" stroke-width="0.4" stroke-miterlimit="10" stroke-dasharray="2.6473,2.6473" d="
		M955.574,366.198c-318.322,0.038-636.662,0.038-954.56-0.104"/>
	<path opacity="0.7" fill="none" stroke="#29ABE2" stroke-width="0.4" stroke-miterlimit="10" stroke-dasharray="2.6473,2.6473" d="
		M954.829,346.97c-318.646,0.037-635.917,0.037-954.56-0.107"/>
	<path opacity="0.7" fill="none" stroke="#29ABE2" stroke-width="0.4" stroke-miterlimit="10" stroke-dasharray="2.6473,2.6473" d="
		M954.829,327.742c-318.646,0.037-635.917,0.037-953.817-0.106"/>
	<path opacity="0.7" fill="none" stroke="#29ABE2" stroke-width="0.4" stroke-miterlimit="10" stroke-dasharray="2.6473,2.6473" d="
		M954.083,308.512c-317.899,0.038-635.171,0.038-953.813-0.106"/>
	<path opacity="0.7" fill="none" stroke="#29ABE2" stroke-width="0.4" stroke-miterlimit="10" stroke-dasharray="2.6473,2.6473" d="
		M954.829,289.285c-318.646,0.037-635.917,0.037-953.811-0.105"/>
	<path opacity="0.7" fill="none" stroke="#29ABE2" stroke-width="0.4" stroke-miterlimit="10" stroke-dasharray="2.6473,2.6473" d="
		M954.083,270.056c-317.899,0.037-635.171,0.037-953.812-0.106"/>
	<path opacity="0.7" fill="none" stroke="#29ABE2" stroke-width="0.4" stroke-miterlimit="10" stroke-dasharray="2.6473,2.6473" d="
		M954.829,250.827c-318.646,0.038-635.917,0.038-953.814-0.106"/>
	<path opacity="0.7" fill="none" stroke="#29ABE2" stroke-width="0.4" stroke-miterlimit="10" stroke-dasharray="2.6473,2.6473" d="
		M954.083,231.599c-317.899,0.037-635.171,0.037-953.065-0.106"/>
	<path opacity="0.7" fill="none" stroke="#29ABE2" stroke-width="0.4" stroke-miterlimit="10" stroke-dasharray="2.6473,2.6473" d="
		M954.829,212.371c-318.646,0.037-635.917,0.037-953.814-0.107"/>
	<path opacity="0.7" fill="none" stroke="#29ABE2" stroke-width="0.4" stroke-miterlimit="10" stroke-dasharray="2.6473,2.6473" d="
		M954.083,193.143c-317.899,0.036-635.171,0.036-953.812-0.107"/>
	<path opacity="0.7" fill="none" stroke="#29ABE2" stroke-width="0.4" stroke-miterlimit="10" stroke-dasharray="2.6473,2.6473" d="
		M955.574,173.913c-318.322,0.037-636.662,0.037-954.559-0.106"/>
	<path opacity="0.7" fill="none" stroke="#29ABE2" stroke-width="0.4" stroke-miterlimit="10" stroke-dasharray="2.6473,2.6473" d="
		M954.083,154.685c-317.899,0.036-635.171,0.036-953.812-0.106"/>
	<path opacity="0.7" fill="none" stroke="#29ABE2" stroke-width="0.4" stroke-miterlimit="10" stroke-dasharray="2.6473,2.6473" d="
		M954.829,135.457c-318.646,0.036-635.917,0.036-953.811-0.106"/>
	<path opacity="0.7" fill="none" stroke="#29ABE2" stroke-width="0.4" stroke-miterlimit="10" stroke-dasharray="2.6473,2.6473" d="
		M957.066,116.227c-318.746,0.037-638.154,0.037-956.048-0.105"/>
	<path opacity="0.7" fill="none" stroke="#29ABE2" stroke-width="0.4" stroke-miterlimit="10" stroke-dasharray="2.6473,2.6473" d="
		M954.829,96.999c-318.646,0.037-635.917,0.037-953.814-0.107"/>
	<path opacity="0.7" fill="none" stroke="#29ABE2" stroke-width="0.4" stroke-miterlimit="10" stroke-dasharray="2.6473,2.6473" d="
		M957.066,77.77C637.91,77.807,320.22,77.807,0.957,77.662"/>
	<path opacity="0.7" fill="none" stroke="#29ABE2" stroke-width="0.4" stroke-miterlimit="10" stroke-dasharray="2.6473,2.6473" d="
		M954.083,58.542c-317.899,0.037-635.171,0.037-953.065-0.106"/>
	<path opacity="0.7" fill="none" stroke="#29ABE2" stroke-width="0.4" stroke-miterlimit="10" stroke-dasharray="2.6473,2.6473" d="
		M954.083,39.313C636.184,39.35,318.912,39.35,1.018,39.207"/>
	<path opacity="0.7" fill="none" stroke="#29ABE2" stroke-width="0.4" stroke-miterlimit="10" stroke-dasharray="2.6473,2.6473" d="
		M954.83,20.085c-318.646,0.037-635.918,0.037-953.811-0.106"/>
	<path opacity="0.7" fill="none" stroke="#29ABE2" stroke-width="0.4" stroke-miterlimit="10" stroke-dasharray="2.6473,2.6473" d="
		M944.144,500.733c3.813-6.577,7.637-13.147,11.473-19.711"/>
	<path opacity="0.7" fill="none" stroke="#29ABE2" stroke-width="0.4" stroke-miterlimit="10" stroke-dasharray="2.6473,2.6473" d="
		M922.789,500.291c11.006-18.907,21.909-37.876,32.515-57.012"/>
	<path opacity="0.7" fill="none" stroke="#29ABE2" stroke-width="0.4" stroke-miterlimit="10" stroke-dasharray="2.6473,2.6473" d="
		M900.351,499.026c17.396-31.999,38.983-61.591,55.176-94.281"/>
	<path opacity="0.7" fill="none" stroke="#29ABE2" stroke-width="0.4" stroke-miterlimit="10" stroke-dasharray="2.6473,2.6473" d="
		M878.108,499.927c22.683-39.303,47.001-77.659,68.729-117.513c3.04-5.577,6.029-11.184,8.952-16.824"/>
	<path opacity="0.7" fill="none" stroke="#29ABE2" stroke-width="0.4" stroke-miterlimit="10" stroke-dasharray="2.6473,2.6473" d="
		M855.944,500.425c23.379-40.079,46.647-80.223,69.7-120.49c9.776-17.077,19.515-34.177,29.207-51.303"/>
	<path opacity="0.7" fill="none" stroke="#29ABE2" stroke-width="0.4" stroke-miterlimit="10" stroke-dasharray="2.6473,2.6473" d="
		M832.465,502.095c21.879-39.5,44.991-78.297,67.933-117.184c18.647-31.608,37.193-63.283,54.893-95.435"/>
	<path opacity="0.7" fill="none" stroke="#29ABE2" stroke-width="0.4" stroke-miterlimit="10" stroke-dasharray="2.6473,2.6473" d="
		M811.568,498.135c48.698-82.321,97.698-163.321,143.392-246.45"/>
	<path opacity="0.7" fill="none" stroke="#29ABE2" stroke-width="0.4" stroke-miterlimit="10" stroke-dasharray="2.6473,2.6473" d="
		M790.638,498.216c23.209-40.282,46.402-80.573,69.506-120.916c22.893-39.977,45.889-79.882,69.346-119.53
		c8.598-14.532,17.109-29.12,25.169-43.958"/>
	<path opacity="0.7" fill="none" stroke="#29ABE2" stroke-width="0.4" stroke-miterlimit="10" stroke-dasharray="2.6473,2.6473" d="
		M768.691,498.457c23.787-38.09,45.533-77.575,67.901-116.508c22.55-39.246,45.87-78.105,68.039-117.563
		c17.136-30.5,33.976-61.167,51.346-91.536"/>
	<path opacity="0.7" fill="none" stroke="#29ABE2" stroke-width="0.4" stroke-miterlimit="10" stroke-dasharray="2.6473,2.6473" d="
		M745.979,499.064c51.287-86.25,99.287-171.25,151.287-260.25c10-19,20-36,29-55c6-11,11-20,18-31c4-5,7-10,10.675-14.897"/>
	<path opacity="0.7" fill="none" stroke="#29ABE2" stroke-width="0.4" stroke-miterlimit="10" stroke-dasharray="2.6473,2.6473" d="
		M722.12,499.726c16.146-28.912,33.146-56.912,49.146-85.912c4-6,7-12,10-18c25-44,49-85,75-129c18-29,34-56,50-85c5-9,9-19,15-28
		c10-19,22-36,33.266-55.292"/>
	<path opacity="0.7" fill="none" stroke="#29ABE2" stroke-width="0.4" stroke-miterlimit="10" stroke-dasharray="2.6473,2.6473" d="
		M699.982,499.803c22.806-40.422,46.096-80.565,69.364-120.722c23.332-40.265,46.558-80.59,69.896-120.851
		c23.233-40.082,47.061-79.833,70.066-120.044c14.863-25.979,31.118-51.256,45.163-77.689"/>
	<path opacity="0.7" fill="none" stroke="#29ABE2" stroke-width="0.4" stroke-miterlimit="10" stroke-dasharray="2.6473,2.6473" d="
		M677.828,499.861c22.567-39.907,46.408-79.071,69.364-118.753c23.001-39.76,44.951-80.114,67.902-119.904
		c23.152-40.138,46.511-80.157,69.796-120.217c23.211-39.931,46.294-79.935,69.505-119.865"/>
	<path opacity="0.7" fill="none" stroke="#29ABE2" stroke-width="0.4" stroke-miterlimit="10" stroke-dasharray="2.6473,2.6473" d="
		M656.531,500.371c9.735-14.557,17.735-30.557,27.735-47.557c7-12,14-24,21-37c5-7,8-14,11-22c1-2,3-4,5-6c23-37,40-72,63-109
		c11-18,21-35,31-53c3-6,5-11,8-17c5-7,10-14,15-21c18-32,34-61,51-93c3-4,4-8,6-12c1-1,2-2,3-3c2-3,2-5,4-8
		c17-24,29-47,42.82-70.974"/>
	<path opacity="0.7" fill="none" stroke="#29ABE2" stroke-width="0.4" stroke-miterlimit="10" stroke-dasharray="2.6473,2.6473" d="
		M633.861,500.104c23.37-40.08,46.6-80.241,69.757-120.444c23.268-40.395,46.464-80.83,69.657-121.267
		c23.102-40.276,46.202-80.553,69.373-120.79C865.83,97.348,889.08,57.134,912.468,17c3.063-5.257,6.128-10.513,9.197-15.767"/>
	<path opacity="0.7" fill="none" stroke="#29ABE2" stroke-width="0.4" stroke-miterlimit="10" stroke-dasharray="2.6473,2.6473" d="
		M611.442,500.622c41.824-71.808,83.824-142.808,123.824-216.808c15-27,28-51,44-77c2-3,2-6,4-9c18-28,32-55,49-83
		c24-39,46-77,68.072-114.814"/>
	<path opacity="0.7" fill="none" stroke="#29ABE2" stroke-width="0.4" stroke-miterlimit="10" stroke-dasharray="2.6473,2.6473" d="
		M589.076,500.087c23.057-40.114,46.099-80.235,68.832-120.535c11.282-20,22.611-39.979,34.488-59.634
		c5.562-9.204,12.198-17.939,17.423-27.31c2.508-4.498,4.123-9.354,6.8-13.8c2.85-4.732,5.773-9.419,8.616-14.155
		c23.631-39.371,46.02-79.448,68.577-119.437c22.488-39.868,46.301-78.967,69.285-118.547c4.919-8.471,9.798-16.965,14.611-25.496"
		/>
	<path opacity="0.7" fill="none" stroke="#29ABE2" stroke-width="0.4" stroke-miterlimit="10" stroke-dasharray="2.6473,2.6473" d="
		M566.877,500.339c95.39-167.525,193.39-333.525,288.968-500.301"/>
	<path opacity="0.7" fill="none" stroke="#29ABE2" stroke-width="0.4" stroke-miterlimit="10" stroke-dasharray="2.6473,2.6473" d="
		M544.156,500.586c22.776-40.12,45.997-79.986,69.311-119.797c23.301-39.789,46.711-79.516,69.437-119.638
		c22.818-40.284,45.881-80.43,69.061-120.506c23.307-40.298,46.734-80.527,70.13-120.773c3.664-6.304,7.328-12.607,10.99-18.912"/>
	<path opacity="0.7" fill="none" stroke="#29ABE2" stroke-width="0.4" stroke-miterlimit="10" stroke-dasharray="2.6473,2.6473" d="
		M523.281,500.165c51.985-89.351,100.985-176.351,153.985-268.351c32-54,61-105,93-159c14-25,27-48,40.754-71.962"/>
	<path opacity="0.7" fill="none" stroke="#29ABE2" stroke-width="0.4" stroke-miterlimit="10" stroke-dasharray="2.6473,2.6473" d="
		M500.033,500.245c23.349-40.032,46.541-80.155,69.652-120.324c23.145-40.226,46.208-80.498,69.278-120.766
		c23.116-40.348,46.121-80.765,69.452-120.989c11.515-19.852,23.318-39.551,35.431-59.044c5.75-9.253,9.827-19.168,15.233-28.573
		c5.635-9.804,11.905-19.229,17.525-29.044c2.17-3.79,4.038-7.718,6.085-11.571c1.789-3.368,4.682-5.961,6.408-9.345"/>
	<path opacity="0.7" fill="none" stroke="#29ABE2" stroke-width="0.4" stroke-miterlimit="10" stroke-dasharray="2.6473,2.6473" d="
		M478.683,500.148c3.583-5.334,6.583-11.334,9.583-17.334c3-4,5-8,8-12c20-36,40-69,60-105c15-26,28-51,43-77c3-4,5-8,8-12
		c36-64,70-122,107-186c3-6,6-12,9-18c5-9,10-18,16-27c2-3,6-4,6-7c4-12,11-21,16-31c2-2,4-4,5.01-7.216"/>
	<path opacity="0.7" fill="none" stroke="#29ABE2" stroke-width="0.4" stroke-miterlimit="10" stroke-dasharray="2.6473,2.6473" d="
		M455.478,500.126c23.084-40.382,46.307-80.685,69.623-120.933c23.282-40.19,46.645-80.335,69.984-120.493
		c23.311-40.108,46.592-80.234,69.759-120.426c23.229-40.3,46.418-80.626,69.314-121.117c3.248-5.743,6.447-11.514,9.788-17.204"/>
	<path opacity="0.7" fill="none" stroke="#29ABE2" stroke-width="0.4" stroke-miterlimit="10" stroke-dasharray="2.6473,2.6473" d="
		M434.326,500.457c0.941-1.643,0.941-3.643,1.941-4.643c3-4,5-8,8-12c18-34,36-65,56-98c44-77,85-148,130-224
		c31-55,62-107,91.987-160.936"/>
	<path opacity="0.7" fill="none" stroke="#29ABE2" stroke-width="0.4" stroke-miterlimit="10" stroke-dasharray="2.6473,2.6473" d="
		M412.17,500.237c22.358-39.298,44.759-78.571,67.192-117.826C501.88,343.009,524.43,303.628,547,264.258
		c11.442-19.958,22.889-39.913,34.34-59.865c11.424-19.906,21.742-40.411,34.028-59.786c11.623-18.329,23.307-36.622,34.567-55.177
		c5.71-9.409,10.632-18.905,15.495-28.758c2.357-4.775,5.726-8.089,8.888-12.297c3.2-4.258,5.667-8.896,8.22-13.553
		c6.118-11.162,12.377-22.259,17.815-33.775"/>
	<path opacity="0.7" fill="none" stroke="#29ABE2" stroke-width="0.4" stroke-miterlimit="10" stroke-dasharray="2.6473,2.6473" d="
		M389.584,500.425c10.682-18.611,20.682-36.611,31.682-56.611c53-91,102-175,154-266c4-6,7-12,10-18c31-54,62-106,92.371-158.795"/>
	<path opacity="0.7" fill="none" stroke="#29ABE2" stroke-width="0.4" stroke-miterlimit="10" stroke-dasharray="2.6473,2.6473" d="
		M367.663,500.24c22.622-38.556,44.813-77.36,66.891-116.229c22.066-38.85,44.022-77.763,66.194-116.554
		c22.496-39.358,45.217-78.589,68.456-117.514c5.903-9.888,11.84-19.757,17.813-29.603c6.004-9.896,12.586-19.588,18.187-29.713
		c2.422-4.379,4.08-9.198,6.194-13.729c2.193-4.7,4.998-8.892,7.833-13.217c6.065-9.255,11.831-18.705,17.33-28.308
		c6.549-11.438,12.718-23.089,18.694-34.836"/>
	<path opacity="0.7" fill="none" stroke="#29ABE2" stroke-width="0.4" stroke-miterlimit="10" stroke-dasharray="2.6473,2.6473" d="
		M344.294,500.394c22.756-39.879,46.404-79.258,68.811-119.335c22.351-39.978,46.256-79.001,69.07-118.71
		c22.995-40.025,45.625-80.26,68.89-120.13c11.631-19.933,23.41-39.783,35.491-59.447c5.677-9.239,11.616-18.354,16.391-28.108
		c4.834-9.877,10.118-19.364,15.823-28.767c4.911-8.093,10.067-16.129,13.762-24.875"/>
	<path opacity="0.7" fill="none" stroke="#29ABE2" stroke-width="0.4" stroke-miterlimit="10" stroke-dasharray="2.6473,2.6473" d="
		M323.19,500.549c17.076-31.735,36.076-62.735,54.076-95.735c80-139,157-269,234.362-404.853"/>
	<path opacity="0.7" fill="none" stroke="#29ABE2" stroke-width="0.4" stroke-miterlimit="10" stroke-dasharray="2.6473,2.6473" d="
		M301.224,500.354c23.234-40.425,46.48-80.842,69.71-121.269c23.134-40.259,46.217-80.548,69.328-120.82
		c23.08-40.218,46.345-80.329,69.729-120.371c23.35-39.983,46.701-79.967,69.633-120.192c3.337-5.854,6.666-11.712,9.985-17.576"/>
	<path opacity="0.7" fill="none" stroke="#29ABE2" stroke-width="0.4" stroke-miterlimit="10" stroke-dasharray="2.6473,2.6473" d="
		M280.089,497.45c23.018-39.898,45.551-80.07,68.741-119.869c23.369-40.106,46.617-80.282,69.878-120.45
		c23.336-40.299,46.722-80.569,70.154-120.812c23.378-40.149,46.711-80.326,69.747-120.673c2.93-5.132,5.859-10.265,8.773-15.406"/>
	<path opacity="0.7" fill="none" stroke="#29ABE2" stroke-width="0.4" stroke-miterlimit="10" stroke-dasharray="2.6473,2.6473" d="
		M257.28,497.718c23.083-40.21,46.29-80.35,69.548-120.458c23.25-40.095,46.623-80.119,69.72-120.303
		c22.743-39.566,44.645-79.622,68.283-118.668c11.764-19.433,23.986-38.368,34.374-58.6c9.883-19.248,22.209-36.919,32.91-55.684
		c4.4-7.718,8.108-15.772,12.222-23.639"/>
	<path opacity="0.7" fill="none" stroke="#29ABE2" stroke-width="0.4" stroke-miterlimit="10" stroke-dasharray="2.6473,2.6473" d="
		M236.151,498.811c11.455-19.212,22.213-38.829,33.663-58.046c5.63-9.45,11.27-18.898,16.54-28.556
		c5.25-9.623,9.612-19.689,14.89-29.29c10.93-19.882,23.021-39.195,34.495-58.771c11.725-20.003,23.411-40.03,35.019-60.102
		c11.583-20.028,23.147-40.072,34.484-60.24c10.833-19.272,21.047-38.929,33.145-57.458c5.846-8.953,10.666-18.36,15.639-27.811
		c5.23-9.939,10.938-19.638,16.535-29.374c11.285-19.63,22.248-39.452,33.71-58.979c5.807-9.892,11.716-19.735,17.67-29.539"/>
	<path opacity="0.7" fill="none" stroke="#29ABE2" stroke-width="0.4" stroke-miterlimit="10" stroke-dasharray="2.6473,2.6473" d="
		M212.691,499.371c4.575-9.557,10.575-19.557,15.575-29.557c3-4,5-8,8-12c2-3,2-6,4-9c5-8,10-16,15-24c10-19,22-36,32-56
		c1-2,4-4,5-6s1-5,3-7c1-1,0-3,1-4c9-15,18-28,26-43c1-3,4-6,7-9c14-22,21-44,36-65c2-4,2-8,4-12c49-75,89-147,131.367-222.133"/>
	<path opacity="0.7" fill="none" stroke="#29ABE2" stroke-width="0.4" stroke-miterlimit="10" stroke-dasharray="2.6473,2.6473" d="
		M190.731,499.409c56.536-97.595,110.536-192.595,168.536-293.595c5-7,8-14,13-21c36-63,71-122,105.746-183.945"/>
	<path opacity="0.7" fill="none" stroke="#29ABE2" stroke-width="0.4" stroke-miterlimit="10" stroke-dasharray="2.6473,2.6473" d="
		M167.792,500.097c23.264-40.195,46.425-80.449,69.541-120.729c23.12-40.286,46.197-80.598,69.297-120.895
		c23.122-40.336,46.266-80.658,69.5-120.929c23.191-40.197,46.473-80.341,69.906-120.398c3.188-5.45,6.379-10.899,9.574-16.346"/>
	<path opacity="0.7" fill="none" stroke="#29ABE2" stroke-width="0.4" stroke-miterlimit="10" stroke-dasharray="2.6473,2.6473" d="
		M144.814,499.864c23.252-40.282,46.483-80.577,69.625-120.923c23.095-40.264,46.093-80.581,69.307-120.775
		c23.209-40.186,46.309-80.435,69.514-120.622c23.206-40.187,46.522-80.311,70.169-120.239c3.225-5.445,6.455-10.888,9.693-16.325"
		/>
	<path opacity="0.7" fill="none" stroke="#29ABE2" stroke-width="0.4" stroke-miterlimit="10" stroke-dasharray="2.6473,2.6473" d="
		M123.393,499.926c23.112-40.332,46.22-80.666,69.35-120.988c23.17-40.393,46.371-80.768,69.595-121.129
		c23.136-40.209,46.193-80.464,69.604-120.514c23.23-39.742,46.556-79.357,69.034-119.532c3.269-5.842,6.531-11.689,9.913-17.467"/>
	<path opacity="0.7" fill="none" stroke="#29ABE2" stroke-width="0.4" stroke-miterlimit="10" stroke-dasharray="2.6473,2.6473" d="
		M101.802,499.685c4.464-7.871,8.464-15.871,13.464-24.871c7-11,12-22,18-33c2-4,4-8,6-11c4-5,8-9,11-14c8-23,23-41,35-62
		c3-6,5-12,9-18c11-18,21-33,31-51c2-4,3-7,5-11c34-55,63-109,93-164c19-25,32-52,49-79c6-11,12-20,17.377-30.828"/>
	<path opacity="0.7" fill="none" stroke="#29ABE2" stroke-width="0.4" stroke-miterlimit="10" stroke-dasharray="2.6473,2.6473" d="
		M78.778,499.852c22.843-40.417,45.71-80.821,68.976-120.997c23.288-40.214,46.619-80.404,69.962-120.586
		c23.34-40.177,46.692-80.347,70.023-120.529c23.342-40.201,46.662-80.416,69.93-120.661c3.129-5.413,6.257-10.826,9.385-16.24"/>
	<path opacity="0.7" fill="none" stroke="#29ABE2" stroke-width="0.4" stroke-miterlimit="10" stroke-dasharray="2.6473,2.6473" d="
		M56.654,499.588c2.714-4.699,5.989-9.036,9.065-13.498c3.202-4.643,5.484-10.002,8.109-14.995
		c5.058-9.621,9.56-19.641,15.416-28.809c5.953-9.319,12.288-18.195,17.659-27.881c5.473-9.869,11.027-19.695,16.629-29.492
		c11.223-19.625,23.453-38.877,33.526-59.1c10.04-20.155,23.07-38.93,34.605-58.257c22.806-38.208,44.839-76.873,66.324-115.838
		c5.449-9.883,10.745-19.857,16.277-29.692c5.335-9.485,10.134-19.449,15.973-28.577c2.944-4.602,5.572-8.777,7.617-13.824
		c2.001-4.938,5.574-9.5,8.397-14.012c5.589-8.933,11.171-17.876,16.36-27.051C329.61,26.19,334.529,11.5,343.872,0.64"/>
	<path opacity="0.7" fill="none" stroke="#29ABE2" stroke-width="0.4" stroke-miterlimit="10" stroke-dasharray="2.6473,2.6473" d="
		M34.541,499.694c22.824-39.646,47.232-78.502,68.486-119.026c10.46-19.944,23.159-38.549,33.761-58.418
		c10.715-20.081,22.9-39.182,34.665-58.65c23.741-39.287,46.226-79.312,69.129-119.088c23.122-40.155,46.451-80.189,69.451-120.415
		c4.501-7.872,8.993-15.749,13.476-23.632"/>
	<path opacity="0.7" fill="none" stroke="#29ABE2" stroke-width="0.4" stroke-miterlimit="10" stroke-dasharray="2.6473,2.6473" d="
		M10.926,500.613c0.341-0.799,1.341-2.799,1.341-3.799c1-2,3-4,5-6c1-2,1-5,3-7c3-3,6-7,8-11c7-19,20-33,30-50c2-4,2-8,4-12
		c18-32,35-60,53-92c8-13,15-26,25-39c7-11,10-22,17-33c17-24,28-47,42-72c3-4,5-8,8-12c2-3,2-6,4-9c8-13,14-25,22-38
		c6-10,11-19,18-29c2-3,2-6,4-9c12-17,19-34,29-52c6-8,11-16,16.334-24.901"/>
	<path opacity="0.7" fill="none" stroke="#29ABE2" stroke-width="0.4" stroke-miterlimit="10" stroke-dasharray="2.6473,2.6473" d="
		M1.096,479.88c11.684-21.172,24.698-41.572,36.566-62.639c11.963-21.236,24.185-42.283,36.814-63.13
		c6.14-10.137,11.211-20.879,17.098-31.161c5.983-10.452,11.978-20.877,18.411-31.061c12.887-20.397,24.695-41.448,36.585-62.433
		c24.329-42.938,48.644-85.881,73.484-128.525C239.571,67.43,259.013,33.885,278.42,0.319"/>
	<path opacity="0.7" fill="none" stroke="#29ABE2" stroke-width="0.4" stroke-miterlimit="10" stroke-dasharray="2.6473,2.6473" d="
		M0.957,441.819C86.033,294.663,170.425,148.312,256.206,1.263"/>
	<path opacity="0.7" fill="none" stroke="#29ABE2" stroke-width="0.4" stroke-miterlimit="10" stroke-dasharray="2.6473,2.6473" d="
		M0.521,404.265c11.596-21.088,24.554-41.39,36.258-62.418c11.568-20.783,23.474-41.147,36.117-61.287
		c6.045-9.629,10.479-20.176,16.25-29.97c6.277-10.654,12.516-21.331,18.746-32.014c12.536-21.499,25.051-43.01,37.595-64.504
		c24.737-42.387,49.351-84.797,73.391-127.583c4.811-8.562,9.762-17.045,14.698-25.535"/>
	<path opacity="0.7" fill="none" stroke="#29ABE2" stroke-width="0.4" stroke-miterlimit="10" stroke-dasharray="2.6473,2.6473" d="
		M0.184,366.246c23.702-43.008,47.96-85.715,72.991-127.965c24.921-42.067,51.052-83.415,75.316-125.871
		c21.24-37.164,41.009-75.18,63.545-111.594"/>
	<path opacity="0.7" fill="none" stroke="#29ABE2" stroke-width="0.4" stroke-miterlimit="10" stroke-dasharray="2.6473,2.6473" d="
		M0.674,327.129c11.731-20.862,24.57-41.066,36.196-61.994c5.761-10.372,12.288-20.298,17.999-30.684
		c5.651-10.274,11.061-20.644,16.864-30.838c11.896-20.895,24.916-41.087,36.784-61.993c12.27-21.614,24.588-43.201,36.945-64.765
		c14.666-25.596,29.385-51.161,44.136-76.708"/>
	<path opacity="0.7" fill="none" stroke="#29ABE2" stroke-width="0.4" stroke-miterlimit="10" stroke-dasharray="2.6473,2.6473" d="
		M0.337,289.572c24.445-43.047,49.153-85.944,73.976-128.773c24.862-42.9,49.838-85.733,74.774-128.59
		c6.091-10.468,12.18-20.938,18.265-31.41"/>
	<path opacity="0.7" fill="none" stroke="#29ABE2" stroke-width="0.4" stroke-miterlimit="10" stroke-dasharray="2.6473,2.6473" d="
		M0.744,249.446c4.102-8.196,10.511-15.674,15.852-24.22c44.867-76.914,86.529-149.555,129.43-225.569"/>
	<path opacity="0.7" fill="none" stroke="#29ABE2" stroke-width="0.4" stroke-miterlimit="10" stroke-dasharray="2.6473,2.6473" d="
		M0.801,211.301c5.854-10.44,12.543-20.349,18.755-30.571c6.351-10.451,12.397-21.086,18.526-31.667
		c12.413-21.431,24.833-42.857,37.226-64.3c16.205-28.039,32.361-56.106,48.387-84.248"/>
	<path opacity="0.7" fill="none" stroke="#29ABE2" stroke-width="0.4" stroke-miterlimit="10" stroke-dasharray="2.6473,2.6473" d="
		M1.025,173.088C25.794,129.952,50.681,86.884,75.57,43.817c8.475-14.663,16.949-29.326,25.418-43.992"/>
	<path opacity="0.7" fill="none" stroke="#29ABE2" stroke-width="0.4" stroke-miterlimit="10" stroke-dasharray="2.6473,2.6473" d="
		M0.997,134.141C24.326,91.397,49.431,49.662,73.744,7.479c1.469-2.55,2.936-5.102,4.4-7.655"/>
	<path opacity="0.7" fill="none" stroke="#29ABE2" stroke-width="0.4" stroke-miterlimit="10" stroke-dasharray="2.6473,2.6473" d="
		M0.878,96.224c18.12-32.255,36.494-64.368,55.006-96.399"/>
	<path opacity="0.7" fill="none" stroke="#29ABE2" stroke-width="0.4" stroke-miterlimit="10" stroke-dasharray="2.6473,2.6473" d="
		M0.402,58.435C11.297,38.721,22.65,19.266,34.018-0.175"/>
	<path opacity="0.7" fill="none" stroke="#29ABE2" stroke-width="0.4" stroke-miterlimit="10" stroke-dasharray="2.6473,2.6473" d="
		M0.581,19.963C4.249,13.541,7.942,7.132,11.649,0.732"/>
	<path opacity="0.7" fill="none" stroke="#29ABE2" stroke-width="0.4" stroke-miterlimit="10" stroke-dasharray="2.6473,2.6473" d="
		M955.004,328.456c-24.821-42.991-49.643-85.982-74.463-128.973c-24.819-42.99-49.641-85.979-74.46-128.968
		c-13.429-23.259-26.857-46.517-40.285-69.775"/>
	<path opacity="0.7" fill="none" stroke="#29ABE2" stroke-width="0.4" stroke-miterlimit="10" stroke-dasharray="2.6473,2.6473" d="
		M955.093,290.08c-24.287-42.988-49.391-85.506-74.024-128.294C856.516,119.14,832.55,76.161,807.591,33.75
		c-6.5-11.046-13.014-22.084-19.509-33.134"/>
	<path opacity="0.7" fill="none" stroke="#29ABE2" stroke-width="0.4" stroke-miterlimit="10" stroke-dasharray="2.6473,2.6473" d="
		M954.975,251.36c-24.58-43.105-49.362-86.095-74.222-129.04c-23.435-40.484-46.938-80.929-70.401-121.396"/>
	<path opacity="0.7" fill="none" stroke="#29ABE2" stroke-width="0.4" stroke-miterlimit="10" stroke-dasharray="2.6473,2.6473" d="
		M954.657,212.587c-24.008-42.24-49.984-83.379-73.535-125.873c-7.881-14.221-15.579-28.543-23.341-42.83
		c-7.939-14.616-16.239-28.808-24.954-42.961"/>
	<path opacity="0.7" fill="none" stroke="#29ABE2" stroke-width="0.4" stroke-miterlimit="10" stroke-dasharray="2.6473,2.6473" d="
		M955.664,174.546c-1.141-4.87-5.414-8.074-8.619-12.347c-17.092-28.843-32.047-55.549-48.071-84.392
		c-16.023-26.706-29.911-52.344-44.471-77.762"/>
	<path opacity="0.7" fill="none" stroke="#29ABE2" stroke-width="0.4" stroke-miterlimit="10" stroke-dasharray="2.6473,2.6473" d="
		M955.11,136.038C930.299,93.569,906.307,50.626,881.457,8.18c-1.365-2.333-2.734-4.664-4.104-6.993"/>
	<path opacity="0.7" fill="none" stroke="#29ABE2" stroke-width="0.4" stroke-miterlimit="10" stroke-dasharray="2.6473,2.6473" d="
		M954.769,97.304c-18.665-32.327-37.328-64.653-55.992-96.98"/>
	<path opacity="0.7" fill="none" stroke="#29ABE2" stroke-width="0.4" stroke-miterlimit="10" stroke-dasharray="2.6473,2.6473" d="
		M954.406,58.365c-10.945-18.989-21.89-37.979-32.831-56.97"/>
	<path opacity="0.7" fill="none" stroke="#29ABE2" stroke-width="0.4" stroke-miterlimit="10" stroke-dasharray="2.6473,2.6473" d="
		M954.567,19.703c-3.595-6.429-7.014-12.954-10.627-19.373"/>
	<path opacity="0.7" fill="none" stroke="#29ABE2" stroke-width="0.4" stroke-miterlimit="10" stroke-dasharray="2.6473,2.6473" d="
		M78.145,499.799C54.767,460.035,31.99,419.92,9.127,379.858c-2.968-5.201-5.938-10.401-8.911-15.601"/>
	<path opacity="0.7" fill="none" stroke="#29ABE2" stroke-width="0.4" stroke-miterlimit="10" stroke-dasharray="2.6473,2.6473" d="
		M99.833,499.937c-23.042-40.319-45.861-80.765-68.92-121.073C20.67,360.96,10.38,343.084,0,325.261"/>
	<path opacity="0.7" fill="none" stroke="#29ABE2" stroke-width="0.4" stroke-miterlimit="10" stroke-dasharray="2.6473,2.6473" d="
		M122.558,499.896C81.267,428.814,41.267,358.814,0.601,287.965"/>
	<path opacity="0.7" fill="none" stroke="#29ABE2" stroke-width="0.4" stroke-miterlimit="10" stroke-dasharray="2.6473,2.6473" d="
		M143.685,499.383c-23.298-39.968-46.278-80.12-69.229-120.289c-22.974-40.21-45.918-80.438-69.121-120.517
		c-1.513-2.614-3.027-5.227-4.543-7.84"/>
	<path opacity="0.7" fill="none" stroke="#29ABE2" stroke-width="0.4" stroke-miterlimit="10" stroke-dasharray="2.6473,2.6473" d="
		M167.566,500.12c-10.96-19.508-22.45-38.711-33.921-57.92c-11.517-19.287-23.603-38.452-34.008-58.369
		c-20.603-39.436-44.444-77.328-67.027-115.666c-11.073-18.799-22.447-37.552-32.153-57.107"/>
	<path opacity="0.7" fill="none" stroke="#29ABE2" stroke-width="0.4" stroke-miterlimit="10" stroke-dasharray="2.6473,2.6473" d="
		M190.296,499.822C127.267,390.814,65.267,280.814,0.582,172.476"/>
	<path opacity="0.7" fill="none" stroke="#29ABE2" stroke-width="0.4" stroke-miterlimit="10" stroke-dasharray="2.6473,2.6473" d="
		M212.209,499.437c-22.412-39.85-45.339-79.407-68.436-118.863C120.641,341.056,97.337,301.64,74.2,262.125
		c-23.142-39.521-46.118-79.141-68.586-119.049c-1.572-2.793-3.142-5.587-4.709-8.382"/>
	<path opacity="0.7" fill="none" stroke="#29ABE2" stroke-width="0.4" stroke-miterlimit="10" stroke-dasharray="2.6473,2.6473" d="
		M233.511,498.902c-22.34-39.342-44.95-78.528-67.635-117.672c-22.795-39.332-45.665-78.621-68.413-117.98
		c-22.856-39.547-45.093-79.416-67.603-119.155c-9.196-16.235-18.728-32.293-29.076-47.825"/>
	<path opacity="0.7" fill="none" stroke="#29ABE2" stroke-width="0.4" stroke-miterlimit="10" stroke-dasharray="2.6473,2.6473" d="
		M255.896,498.049c-7.629-10.235-11.629-22.235-18.629-33.235c-4-4-6-9-9-14c-1-1-2-2-3-3c-20-38-42-72-63-109c-19-35-40-67-59-102
		c-29-57-62-107-94-163c-3-6-6-11-9.1-17.145"/>
	<path opacity="0.7" fill="none" stroke="#29ABE2" stroke-width="0.4" stroke-miterlimit="10" stroke-dasharray="2.6473,2.6473" d="
		M276.421,496.986c-5.482-9.52-10.172-19.521-16.139-28.747c-6.124-9.47-11.493-19.402-17.121-29.172
		c-11.514-19.986-23.087-39.937-34.56-59.945c-23.143-40.365-46.215-80.771-69.303-121.167
		c-23.034-40.302-46.11-80.58-69.229-120.834C47.412,97.669,22.774,59.248,1.244,19.167"/>
	<path opacity="0.7" fill="none" stroke="#29ABE2" stroke-width="0.4" stroke-miterlimit="10" stroke-dasharray="2.6473,2.6473" d="
		M300.602,500.238c-22.811-38.95-45.396-78.031-67.714-117.266c-22.488-39.534-44.288-79.43-67.797-118.366
		c-23.594-39.077-45.561-79.203-68.269-118.805C74.154,106.269,51.477,66.741,28.969,27.116c-5.101-8.979-10.07-18.112-16.151-26.48
		"/>
	<path opacity="0.7" fill="none" stroke="#29ABE2" stroke-width="0.4" stroke-miterlimit="10" stroke-dasharray="2.6473,2.6473" d="
		M0.213,404.547c18.281,31.748,36.74,63.394,55.233,95.018"/>
	<path opacity="0.7" fill="none" stroke="#29ABE2" stroke-width="0.4" stroke-miterlimit="10" stroke-dasharray="2.6473,2.6473" d="
		M0.563,443.63c10.921,18.703,21.843,37.407,32.765,56.111"/>
	<path opacity="0.7" fill="none" stroke="#29ABE2" stroke-width="0.4" stroke-miterlimit="10" stroke-dasharray="2.6473,2.6473" d="
		M1.045,483.762c3.088,5.434,6.176,10.866,9.265,16.3"/>
	
		<line opacity="0.7" fill="none" stroke="#29ABE2" stroke-width="0.4" stroke-miterlimit="10" stroke-dasharray="2.6473,2.6473" x1="563.146" y1="237.783" x2="563.261" y2="237.583"/>
	<polygon fill="none" stroke="#FFFFFF" stroke-width="2" stroke-miterlimit="10" stroke-dasharray="6,6" points="435.794,85.814 
		498.382,85.814 529.676,139.755 498.382,193.814 435.794,193.814 404.5,139.873 	"/>
	<polyline fill="none" stroke="#FFFFFF" stroke-width="2" stroke-miterlimit="10" stroke-dasharray="6,6" points="529.676,137.941 
		467.961,138.219 436.794,192 467.961,138.219 436.794,84 	"/>
	<rect x="1408.786" y="330.25" fill="none" width="90" height="31.5"/>
	<text transform="matrix(1 0 0 1 1408.7861 350.0425)" fill="#29ABE2" font-family="'Futura-Medium'" font-size="24">creative</text>
	<rect x="1205.79" y="331.25" fill="none" width="90" height="31.5"/>
	<text transform="matrix(1 0 0 1 1205.79 351.0425)" fill="#29ABE2" font-family="'Futura-Medium'" font-size="24">develop</text>
	<polygon fill="#ED1C24" points="1264.794,248.814 1327.382,248.814 1358.676,302.755 1327.382,356.814 1264.794,356.814 
		1233.5,302.873 	"/>
	<polyline fill="none" stroke="#ED1C24" stroke-width="2.5" stroke-miterlimit="10" stroke-dasharray="6,6" points="
		1328.676,205.941 1266.961,206.218 1235.794,260 1266.961,206.218 1235.794,152 	"/>
	<polygon fill="none" stroke="#ED1C24" stroke-width="3" stroke-miterlimit="10" stroke-dasharray="6,6" points="1025.794,823.314 
		1088.382,823.314 1119.676,877.255 1088.382,931.314 1025.794,931.314 994.5,877.373 	"/>
	<polyline fill="none" stroke="#ED1C24" stroke-width="2.5" stroke-miterlimit="10" stroke-dasharray="6,6" points="
		1119.676,874.941 1057.961,875.218 1026.794,929 1057.961,875.218 1026.794,821 	"/>
	<polygon fill="none" stroke="#ED1C24" stroke-width="3" stroke-miterlimit="10" stroke-dasharray="6,6" points="1260.794,815.314 
		1323.382,815.314 1354.676,869.255 1323.382,923.314 1260.794,923.314 1229.5,869.373 	"/>
	<polyline fill="none" stroke="#ED1C24" stroke-width="2.5" stroke-miterlimit="10" stroke-dasharray="6,6" points="
		1354.676,866.941 1292.961,867.218 1261.794,921 1292.961,867.218 1261.794,813 	"/>
	<rect x="1039.793" y="907.503" fill="none" width="90" height="31.5"/>
	<text transform="matrix(1 0 0 1 1039.793 927.2964)" fill="#29ABE2" font-family="'Futura-Medium'" font-size="24">writing</text>
	<rect x="1274.745" y="899.503" fill="none" width="150.217" height="32.609"/>
	<text transform="matrix(1 0 0 1 1274.7451 919.2964)" fill="#29ABE2" font-family="'Futura-Medium'" font-size="24">photography</text>
	<polygon fill="#ED1C24" stroke="#ED1C24" stroke-width="8" stroke-miterlimit="10" points="1323.794,240.814 1386.382,240.814 
		1417.676,294.755 1386.382,348.814 1323.794,348.814 1292.5,294.873 	"/>
	<polygon fill="none" stroke="#FFFFFF" stroke-width="2" stroke-miterlimit="10" stroke-dasharray="6,6" points="1236.794,154.814 
		1299.382,154.814 1330.676,208.755 1299.382,262.814 1236.794,262.814 1205.5,208.873 	"/>
	<polyline fill="none" stroke="#FFFFFF" stroke-width="2" stroke-miterlimit="10" stroke-dasharray="6,6" points="1417.676,292.941 
		1355.961,293.218 1324.794,347 1355.961,293.218 1324.794,239 	"/>
	<rect x="1281.345" y="452.519" fill="none" width="147.285" height="50.166"/>
	
		<text transform="matrix(1 0 0 1 1281.3447 478.9087)" fill="#29ABE2" stroke="#29ABE2" stroke-miterlimit="10" font-family="'Futura-Medium'" font-size="32">Axel Thor</text>
	<rect x="1198.173" y="494.927" fill="none" width="313.831" height="128.183"/>
	<text transform="matrix(1 0 0 1 1198.1729 506.2866)"><tspan x="0" y="0" fill="#29ABE2" font-family="'MyriadPro-Regular'" font-size="16">I am a  multi-diciplinary developer, writer, </tspan><tspan x="0" y="19.201" fill="#29ABE2" font-family="'MyriadPro-Regular'" font-size="16">musician and sometimes poet. </tspan></text>
</g>
<g id="Layer_2">
</g>
</svg>
