<?xml version="1.0" encoding="utf-8"?>
<!-- Generator: Adobe Illustrator 16.0.0, SVG Export Plug-In . SVG Version: 6.00 Build 0)  -->
<!DOCTYPE svg PUBLIC "-//W3C//DTD SVG 1.1//EN" "http://www.w3.org/Graphics/SVG/1.1/DTD/svg11.dtd">
<svg version="1.1" id="Layer_1" xmlns="http://www.w3.org/2000/svg" xmlns:xlink="http://www.w3.org/1999/xlink" x="0px" y="0px"
	 width="960px" height="560px" viewBox="0 0 960 560" enable-background="new 0 0 960 560" xml:space="preserve">
<path opacity="0.9" fill="none" stroke="#29ABE2" stroke-width="0.125" stroke-miterlimit="10" stroke-dasharray="2.6473,2.6473" d="
	M340.653,532.393c-6.013-10.255-12.161-20.323-17.612-30.895c-5.439-10.545-11.427-20.523-17.813-30.509
	c-1.48-2.312-3.292-4.472-4.399-6.993c-1.164-2.649-1.823-5.27-3.374-7.758c-3.158-5.062-6.317-10.112-9.32-15.27
	c-5.817-9.99-11.296-20.172-17.026-30.212c-2.898-5.077-6.088-9.924-9.237-14.848c-1.48-2.313-3.292-4.473-4.399-6.993
	c-1.163-2.648-1.84-5.267-3.365-7.765c-6.158-10.087-12.098-20.284-17.86-30.604c-11.815-21.164-23.995-42.112-36.125-63.097
	c-24.228-41.911-48.408-83.85-72.627-125.766c-24.029-41.587-48.097-83.152-72.29-124.645C47.922,24.55,40.628,12.066,33.321-0.41"
	/>
<path opacity="0.9" fill="none" stroke="#29ABE2" stroke-width="0.125" stroke-miterlimit="10" stroke-dasharray="2.6473,2.6473" d="
	M362.791,532.251c-5.935-10.285-12-20.495-18.159-30.647c-6.204-10.227-11.66-20.883-17.772-31.168
	c-3.02-5.08-6.157-9.77-8.261-15.296c-2.053-5.393-5.98-10.265-8.932-15.218c-5.922-9.936-11.431-20.107-17.106-30.184
	c-5.548-9.852-13.312-19.157-17.318-29.679c-1.934-5.079-5.821-10.058-8.926-14.528c-3.29-4.738-5.788-10.081-8.488-15.179
	c-11.174-21.095-23.363-41.618-35.365-62.247c-24.36-41.872-48.595-83.819-72.954-125.694
	C125.58,121.271,101.702,80.1,77.919,38.873c-7.55-13.089-15.091-26.184-22.622-39.285"/>
<path opacity="0.9" fill="none" stroke="#29ABE2" stroke-width="0.125" stroke-miterlimit="10" stroke-dasharray="2.6473,2.6473" d="
	M384.673,532.218c-23.819-41.363-47.67-82.708-71.604-124.004c-24.267-41.871-48.712-83.631-72.503-125.76
	c-5.812-10.292-11.38-20.651-17.483-30.774c-6.071-10.068-12.78-20.003-18.214-30.422c-10.679-20.475-22.537-40.292-34.418-60.083
	c-24.546-40.893-47.218-82.863-71.091-124.149C92.108,24.487,84.766,12,77.284-0.402"/>
<path opacity="0.9" fill="none" stroke="#29ABE2" stroke-width="0.125" stroke-miterlimit="10" stroke-dasharray="2.6473,2.6473" d="
	M406.812,532.447c-66.659-113.658-129.05-224.693-197.786-341.016c-2.115-3.172-2.115-6.345-4.23-9.517
	c-32.782-56.046-64.506-108.92-95.173-166.023c-3.172-5.288-6.345-11.632-10.347-16.271"/>
<path opacity="0.9" fill="none" stroke="#29ABE2" stroke-width="0.125" stroke-miterlimit="10" stroke-dasharray="2.6473,2.6473" d="
	M429.2,532.41c-24.44-41.306-48.577-82.789-72.579-124.351c-23.632-40.919-47.138-81.912-70.713-122.864
	c-23.963-41.627-48.003-83.21-72.295-124.646c-12.206-20.818-22.671-42.78-35.589-63.137c-6.129-9.659-11.206-19.879-16.97-29.791
	c-6.02-10.352-12.125-20.648-18.165-30.989c-7.2-12.33-14.284-24.727-21.615-36.979"/>
<path opacity="0.9" fill="none" stroke="#29ABE2" stroke-width="0.125" stroke-miterlimit="10" stroke-dasharray="2.6473,2.6473" d="
	M451.031,531.892c-6.188-9.47-12.532-20.045-17.82-29.562c-11.632-20.093-23.265-39.127-32.782-59.219
	c-4.23-7.402-9.517-13.747-13.747-21.149c-9.518-17.978-19.035-33.84-28.552-51.816c-5.287-8.46-9.517-15.862-14.804-23.265
	c-10.575-17.978-19.035-35.954-29.609-53.932c-4.23-7.402-9.518-13.747-13.748-21.149c-6.345-11.632-11.632-22.207-17.977-33.839
	c-4.23-6.345-8.459-12.69-12.689-19.035C225.946,143.846,184.704,74.052,143.277-0.305"/>
<path opacity="0.9" fill="none" stroke="#29ABE2" stroke-width="0.125" stroke-miterlimit="10" stroke-dasharray="2.6473,2.6473" d="
	M472.282,532.466c-24.149-41.786-48.296-83.573-72.44-125.363c-24.398-42.229-48.795-84.458-73.189-126.688
	c-24.385-42.213-48.676-84.479-73.06-126.693c-23.742-41.101-47.504-82.189-70.99-123.436c-5.79-10.169-11.563-20.348-17.317-30.539
	"/>
<path opacity="0.9" fill="none" stroke="#29ABE2" stroke-width="0.125" stroke-miterlimit="10" stroke-dasharray="2.6473,2.6473" d="
	M494.303,532.364c-24.105-41.69-48.212-83.38-72.322-125.067c-24.393-42.175-48.789-84.348-73.19-126.518
	c-24.455-42.264-48.554-84.728-72.873-127.071c-23.852-41.529-47.842-82.98-71.725-124.493c-5.637-9.799-11.269-19.602-16.892-29.41
	"/>
<path opacity="0.9" fill="none" stroke="#29ABE2" stroke-width="0.125" stroke-miterlimit="10" stroke-dasharray="2.6473,2.6473" d="
	M516.307,532.185C413.119,355.341,312.659,176.627,209.133-0.446"/>
<path opacity="0.9" fill="none" stroke="#29ABE2" stroke-width="0.125" stroke-miterlimit="10" stroke-dasharray="2.6473,2.6473" d="
	M539.157,532.203c-3.371-4.494-5.486-9.781-9.716-14.011c-1.058-1.058,0-3.173-1.058-4.23c-3.173-5.287-5.287-9.518-9.518-14.805
	c-2.114-3.172-2.114-6.345-4.229-9.518c-10.575-17.977-20.092-33.839-29.609-51.815c-1.058-1.058-2.115-2.115-3.173-3.173
	c-8.459-13.747-13.747-26.437-23.264-40.185c-2.115-3.172-2.115-6.345-4.23-9.517c-4.23-5.288-6.345-10.575-9.517-15.862
	c-1.058-1.058-2.115-2.115-3.172-3.173c-14.805-29.609-31.725-56.046-48.644-85.655C338.038,184.029,286.222,93.086,231.155-0.373"
	/>
<path opacity="0.9" fill="none" stroke="#29ABE2" stroke-width="0.125" stroke-miterlimit="10" stroke-dasharray="2.6473,2.6473" d="
	M560.401,531.977c-23.903-41.323-47.815-82.642-71.745-123.949c-24.324-41.99-48.667-83.97-73.035-125.935
	c-6.112-10.527-12.264-21.025-18.145-31.681c-2.705-4.901-4.663-10.708-7.809-15.239c-2.766-3.983-6.559-8.611-8.159-13.151
	c-1.627-4.617-4.866-8.792-7.607-12.902c-3.195-4.788-5.475-10.108-8.28-15.153c-5.692-10.237-11.681-20.311-17.702-30.354
	c-12.122-20.22-23.056-41.064-34.775-61.5c-11.999-20.921-24.228-41.708-36.476-62.484c-7.841-13.301-15.689-26.597-23.487-39.923"
	/>
<path opacity="0.9" fill="none" stroke="#29ABE2" stroke-width="0.125" stroke-miterlimit="10" stroke-dasharray="2.6473,2.6473" d="
	M582.603,532.228c-14.035-22.495-26.725-45.76-39.414-69.024c-2.115-4.229-5.287-6.345-7.402-10.574
	c-4.229-6.346-5.287-13.748-9.518-20.093c-11.632-15.862-19.034-31.724-28.552-48.644c-5.287-7.402-9.518-13.747-13.747-21.149
	c-1.058-1.058-1.058-3.173-1.058-4.23c-5.287-10.574-11.632-19.034-17.977-29.609c-6.345-12.689-13.747-25.379-22.207-38.068
	c-14.805-25.38-27.494-48.644-41.241-74.023C358.13,142.788,316.889,72.995,275.208-0.209"/>
<path opacity="0.9" fill="none" stroke="#29ABE2" stroke-width="0.125" stroke-miterlimit="10" stroke-dasharray="2.6473,2.6473" d="
	M604.096,532.021c-24.02-41.548-48.04-83.095-72.064-124.639c-24.271-41.973-48.546-83.944-72.825-125.912
	c-24.293-41.991-48.876-83.833-72.2-126.345c-22.709-41.39-47.128-81.806-70.543-122.792c-6.298-11.026-12.088-22.368-19.41-32.773"
	/>
<path opacity="0.9" fill="none" stroke="#29ABE2" stroke-width="0.125" stroke-miterlimit="10" stroke-dasharray="2.6473,2.6473" d="
	M626.524,532.185c-12.485-21.395-23.06-42.545-35.75-63.694c-8.459-13.747-14.805-26.437-24.321-40.184
	c-2.115-3.173-2.115-6.345-4.23-9.518C477.625,276.029,401.487,138.558,319.085-0.348"/>
<path opacity="0.9" fill="none" stroke="#29ABE2" stroke-width="0.125" stroke-miterlimit="10" stroke-dasharray="2.6473,2.6473" d="
	M648.063,531.869c-24.049-41.565-48.087-83.136-72.107-124.718c-24.323-42.105-48.627-84.223-72.901-126.357
	c-12.078-20.966-24.061-41.986-36.109-62.969c-5.76-10.031-11.657-19.984-17.764-29.81c-3.018-4.855-4.718-10.247-7.663-15.191
	c-3.126-5.249-6.246-10.503-9.359-15.761c-24.294-41.037-48.159-82.327-71.848-123.716c-6.407-11.194-12.803-22.396-19.192-33.602"
	/>
<path opacity="0.9" fill="none" stroke="#29ABE2" stroke-width="0.125" stroke-miterlimit="10" stroke-dasharray="2.6473,2.6473" d="
	M669.869,532.425C580.2,376.49,493.487,225.271,401.487,65.592c-7.402-11.632-13.748-23.265-21.15-34.897
	c-5.287-10.575-11.632-20.092-17.368-31.173"/>
<path opacity="0.9" fill="none" stroke="#29ABE2" stroke-width="0.125" stroke-miterlimit="10" stroke-dasharray="2.6473,2.6473" d="
	M692.543,532.113c-9.768-16.036-17.17-32.956-28.803-48.818c-4.229-7.402-8.459-14.805-11.632-22.207
	c-1.058-1.057-2.115-2.114-3.173-3.172c-4.229-6.345-6.345-12.689-9.517-19.035c-32.782-51.816-57.104-100.46-89.886-152.276
	c-7.402-11.632-12.689-23.264-19.034-35.954c-1.058-2.115-3.173-4.23-5.288-6.345c-20.092-35.954-40.184-68.736-59.218-103.633
	c-7.402-12.689-13.747-23.264-20.092-35.954c-3.172-4.23-5.287-8.459-8.459-12.689c-13.747-25.379-27.495-49.702-41.242-75.081
	c-3.172-6.345-7.402-11.632-11.194-17.329"/>
<path opacity="0.9" fill="none" stroke="#29ABE2" stroke-width="0.125" stroke-miterlimit="10" stroke-dasharray="2.6473,2.6473" d="
	M714.712,532.238c-12.902-22.506-24.534-42.599-38.281-64.805c-1.058-1.058,0-3.173-1.058-4.23
	c-23.265-35.954-40.185-68.736-62.392-104.69c-7.402-13.747-13.747-26.437-21.149-40.184c-1.058-1.058-2.114-2.115-3.172-3.173
	c-7.402-11.632-12.69-23.264-20.093-34.896c-7.402-12.689-13.747-24.322-20.092-37.012c-1.058-1.057-2.114-2.115-3.172-3.172
	c-17.978-31.724-33.84-63.448-53.932-93.058c-5.287-14.805-16.919-25.379-22.207-39.127c-2.115-6.345-4.23-10.575-7.402-15.862
	c-4.23-6.345-8.46-12.69-12.689-19.035c-13.748-25.379-27.495-49.702-42.032-73.277"/>
<path opacity="0.9" fill="none" stroke="#29ABE2" stroke-width="0.125" stroke-miterlimit="10" stroke-dasharray="2.6473,2.6473" d="
	M735.987,532.412c-6.684-12.105-14.085-23.737-21.487-36.427c-24.322-42.3-46.529-82.483-70.852-125.84
	c-8.46-13.747-15.862-25.38-24.322-39.127c-4.229-7.402-7.402-14.805-11.632-22.207c-1.058-1.058-2.115-2.114-3.173-3.172
	c-4.229-7.402-7.401-15.862-11.632-23.265c-12.689-17.977-19.034-34.897-31.725-52.874c-5.287-7.402-6.345-14.805-11.632-22.207
	c-9.518-12.689-14.805-27.494-23.265-41.242C500.89,124.811,480.797,86.742,456.476,45.5c-9.518-15.862-17.977-30.667-27.399-45.686
	"/>
<path opacity="0.9" fill="none" stroke="#29ABE2" stroke-width="0.125" stroke-miterlimit="10" stroke-dasharray="2.6473,2.6473" d="
	M758.607,532.4C655.281,355.341,553.764,177.685,450.925-0.41"/>
<path opacity="0.9" fill="none" stroke="#29ABE2" stroke-width="0.125" stroke-miterlimit="10" stroke-dasharray="2.6473,2.6473" d="
	M779.823,531.952c-24.082-42.312-47.347-82.496-72.726-125.853c-1.058-1.058,0-3.173-1.058-4.23
	c-32.782-50.759-56.047-99.402-88.828-151.219c-4.23-7.402-7.402-14.805-11.633-22.207c-2.114-2.115-4.229-4.229-5.287-6.345
	c0-1.058,0-3.172-1.058-4.23c-12.689-21.149-23.265-40.184-34.896-61.333c-3.173-4.23-5.287-8.46-8.46-12.689
	c-4.229-6.345-6.345-11.632-9.517-17.978c-11.633-20.092-22.207-38.069-33.84-58.161c-3.172-4.23-5.287-8.459-8.46-12.689
	c-2.114-3.172-2.114-6.345-4.229-9.518c-9.518-15.862-19.035-29.609-26.874-45.817"/>
<path opacity="0.9" fill="none" stroke="#29ABE2" stroke-width="0.125" stroke-miterlimit="10" stroke-dasharray="2.6473,2.6473" d="
	M801.532,531.947c-15.124-28.56-33.102-54.997-46.849-84.606c-1.058-1.058-2.115-2.114-3.173-3.172
	c-2.114-3.173-2.114-5.288-4.229-8.46c-4.229-6.345-8.46-10.575-10.575-17.978c-2.114-5.287-6.345-9.517-8.459-13.747
	c-4.23-7.402-7.402-13.747-10.575-20.092c-9.518-14.805-16.92-28.552-26.437-43.356c-2.115-3.173-2.115-6.345-4.23-9.518
	C619.326,217.869,560.108,108.949,494.99-0.226"/>
<path opacity="0.9" fill="none" stroke="#29ABE2" stroke-width="0.125" stroke-miterlimit="10" stroke-dasharray="2.6473,2.6473" d="
	M823.913,531.926c-22.7-43.343-49.138-82.47-72.402-125.826c-12.689-23.265-24.321-45.472-40.184-67.679
	c-1.058-1.058,0-3.172-1.058-4.229c-11.632-19.035-20.092-37.012-31.725-56.047c-4.229-7.402-7.402-14.804-13.747-20.092
	c-7.402-20.092-21.149-37.012-31.724-57.104c-3.173-6.345-7.402-11.632-10.575-17.977c-4.229-6.345-7.402-13.747-10.575-20.092
	c-3.172-4.23-5.287-8.459-8.459-12.689c-8.46-14.805-15.862-27.495-24.322-42.299c-3.173-5.287-4.229-10.575-7.402-15.862
	c-20.092-31.725-37.012-61.334-54.905-92.488"/>
<path opacity="0.9" fill="none" stroke="#29ABE2" stroke-width="0.125" stroke-miterlimit="10" stroke-dasharray="2.6473,2.6473" d="
	M845.755,532.429c-24.02-41.526-48.021-83.062-71.996-124.614c-24.111-41.787-48.196-83.591-72.244-125.415
	c-24.257-42.186-48.478-84.394-72.653-126.626c-24.087-42.081-47.877-84.329-72.702-125.979
	c-5.935-9.958-11.786-19.969-17.297-30.17"/>
<path opacity="0.9" fill="none" stroke="#29ABE2" stroke-width="0.125" stroke-miterlimit="10" stroke-dasharray="2.6473,2.6473" d="
	M868.596,532.267c-21.912-38.396-43.062-75.408-66.326-114.535C734.592,301.409,672.2,189.317,604.521,77.225
	c-12.689-26.437-28.552-51.816-43.635-77.524"/>
<path opacity="0.9" fill="none" stroke="#29ABE2" stroke-width="0.125" stroke-miterlimit="10" stroke-dasharray="2.6473,2.6473" d="
	M890.2,532.379C788.522,354.283,684.891,177.685,582.905-0.229"/>
<path opacity="0.9" fill="none" stroke="#29ABE2" stroke-width="0.125" stroke-miterlimit="10" stroke-dasharray="2.6473,2.6473" d="
	M911.754,531.963c-27.001-47.61-54.495-93.082-81.989-142.783c-2.115-4.229-5.288-8.46-8.46-13.747
	c-2.115-5.287-4.23-10.574-8.46-14.805c-5.287-8.46-9.518-16.92-14.805-25.379c-8.46-15.862-16.92-30.667-26.437-46.529
	c-5.288-8.46-8.46-17.977-15.862-25.379c-1.058-7.402-5.287-13.747-9.518-20.092c-14.805-21.149-24.321-41.241-38.069-62.391
	c-9.517-16.919-15.861-33.839-28.552-49.701c-1.058-1.058,0-3.172-1.058-4.23c-11.632-21.149-24.321-40.184-35.954-61.333
	c-7.402-13.747-14.805-26.437-23.265-40.184c-5.287-8.46-9.517-17.977-14.59-25.892"/>
<path opacity="0.9" fill="none" stroke="#29ABE2" stroke-width="0.125" stroke-miterlimit="10" stroke-dasharray="2.6473,2.6473" d="
	M934.389,532.143c-23.679-41.12-47.371-82.232-71.079-123.334c-23.774-41.215-47.567-82.421-71.38-123.612
	c-24.253-41.952-48.527-83.893-72.825-125.818c-11.992-20.691-25.071-40.799-36.4-61.85c-5.568-10.345-10.886-20.896-16.7-31.098
	c-2.779-4.876-5.798-9.611-8.922-14.273c-1.572-2.344-3.172-4.669-4.784-6.986c-1.513-2.173-1.349-3.784-2.305-6.016
	c-2.869-6.704-8.097-13.061-11.854-19.333c-3.981-6.645-7.818-13.375-11.39-20.249"/>
<path opacity="0.9" fill="none" stroke="#29ABE2" stroke-width="0.125" stroke-miterlimit="10" stroke-dasharray="2.6473,2.6473" d="
	M957.008,533.312c-13.036-22.522-25.726-43.673-39.473-66.937c-1.058-1.058,0-3.173-1.058-4.23
	c-12.689-20.092-24.322-39.126-34.896-60.276c-1.058-1.057-2.115-2.114-3.173-3.172c-2.115-5.287-5.287-9.518-7.402-14.805
	c-8.46-16.92-19.034-30.667-27.494-47.587c-3.173-4.229-5.287-8.459-8.46-12.689c-2.115-3.172-2.115-6.345-4.229-9.518
	c-7.402-11.632-12.69-21.149-20.093-32.781c-1.058-1.058,0-3.173-1.058-4.229c-7.402-10.575-12.689-21.15-20.092-31.725
	c-3.172-4.23-3.172-9.518-6.345-13.747c-6.345-8.46-10.575-16.92-15.862-25.38c-12.689-25.379-26.437-47.586-40.184-71.908
	c-1.058-2.115-4.23-4.23-5.287-6.345c-6.346-17.977-17.978-32.782-26.438-49.702c-3.172-4.229-5.287-8.459-8.46-12.689
	c-2.114-3.172-2.114-6.345-4.229-9.517c-12.689-19.035-22.207-38.069-34.02-56.455"/>
<path opacity="0.9" fill="none" stroke="#29ABE2" stroke-width="0.125" stroke-miterlimit="10" stroke-dasharray="2.6473,2.6473" d="
	M957.098,495.362c-24.604-42.599-49.213-85.193-73.822-127.787c-24.625-42.619-49.249-85.237-73.873-127.857
	c-24.643-42.654-49.285-85.309-73.922-127.966C713.902,74.39,692.328,37.026,670.758-0.34"/>
<path opacity="0.9" fill="none" stroke="#29ABE2" stroke-width="0.125" stroke-miterlimit="10" stroke-dasharray="2.6473,2.6473" d="
	M956.887,457.499c-24.312-42.16-48.577-84.347-72.767-126.575c-11.915-20.801-23.225-42.189-36.044-62.392
	c-6.364-10.03-12.316-20.31-18.372-30.542c-3.046-5.146-6.081-10.296-9.064-15.478c-2.848-4.945-4.541-10.217-7.676-15.096
	c-6.342-9.87-11.841-20.235-17.495-30.504c-2.818-5.117-5.558-10.354-8.844-15.185c-3.082-4.532-7.057-9.439-9.111-14.51
	c-4.274-10.549-10.797-20.289-16.393-30.242c-5.748-10.225-12.365-19.798-18.416-29.809c-8.871-14.68-16.867-29.948-25.586-44.734
	c-4.495-7.624-9.358-15.123-13.567-22.905c-1.833-3.389-2.585-7.038-4.775-10.275c-2.107-3.116-4.399-6.152-6.023-9.563"/>
<path opacity="0.9" fill="none" stroke="#29ABE2" stroke-width="0.125" stroke-miterlimit="10" stroke-dasharray="2.6473,2.6473" d="
	M957.071,419.321C876.293,279.202,795.925,139.616,714.743-0.295"/>
<path opacity="0.9" fill="none" stroke="#29ABE2" stroke-width="0.125" stroke-miterlimit="10" stroke-dasharray="2.6473,2.6473" d="
	M956.959,381.91c-11.905-20.38-23.7-40.793-34.698-61.678c-5.514-10.469-12.44-20.239-18.358-30.521
	c-6.021-10.459-12.117-20.875-18.221-31.286c-12.193-20.804-24.791-41.447-35.671-62.975c-5.462-10.807-12.286-20.892-18.698-31.152
	c-3.037-4.859-4.63-10.162-7.793-14.959c-3.061-4.643-5.792-9.484-8.465-14.358c-2.675-4.878-5.207-9.895-8.338-14.496
	c-3.083-4.531-7.058-9.44-9.111-14.51c-4.309-10.632-11.668-20.033-17.361-30.052C768.396,55.078,756.666,34.167,744.68,13.4
	c-2.638-4.571-5.288-9.135-7.955-13.689"/>
<path opacity="0.9" fill="none" stroke="#29ABE2" stroke-width="0.125" stroke-miterlimit="10" stroke-dasharray="2.6473,2.6473" d="
	M957.064,511.811c-317.646,0.036-633.831,0.036-951.583-0.107"/>
<path opacity="0.9" fill="none" stroke="#29ABE2" stroke-width="0.125" stroke-miterlimit="10" stroke-dasharray="2.6473,2.6473" d="
	M957.064,492.775c-317.646,0.037-633.831,0.037-951.583-0.107"/>
<path opacity="0.9" fill="none" stroke="#29ABE2" stroke-width="0.125" stroke-miterlimit="10" stroke-dasharray="2.6473,2.6473" d="
	M957.064,473.742c-317.646,0.036-633.831,0.036-951.583-0.107"/>
<path opacity="0.9" fill="none" stroke="#29ABE2" stroke-width="0.125" stroke-miterlimit="10" stroke-dasharray="2.6473,2.6473" d="
	M957.064,454.706c-317.646,0.037-633.831,0.037-951.583-0.107"/>
<path opacity="0.9" fill="none" stroke="#29ABE2" stroke-width="0.125" stroke-miterlimit="10" stroke-dasharray="2.6473,2.6473" d="
	M957.064,435.672c-317.646,0.037-633.831,0.037-951.584-0.106"/>
<path opacity="0.9" fill="none" stroke="#29ABE2" stroke-width="0.125" stroke-miterlimit="10" stroke-dasharray="2.6473,2.6473" d="
	M957.064,416.638c-317.646,0.036-633.831,0.036-951.583-0.107"/>
<path opacity="0.9" fill="none" stroke="#29ABE2" stroke-width="0.125" stroke-miterlimit="10" stroke-dasharray="2.6473,2.6473" d="
	M957.065,397.604c-317.646,0.036-633.832,0.036-951.583-0.106"/>
<path opacity="0.9" fill="none" stroke="#29ABE2" stroke-width="0.125" stroke-miterlimit="10" stroke-dasharray="2.6473,2.6473" d="
	M957.064,378.568c-317.646,0.037-633.831,0.037-951.584-0.106"/>
<path opacity="0.9" fill="none" stroke="#29ABE2" stroke-width="0.125" stroke-miterlimit="10" stroke-dasharray="2.6473,2.6473" d="
	M957.064,359.534c-317.646,0.036-633.831,0.036-951.583-0.108"/>
<path opacity="0.9" fill="none" stroke="#29ABE2" stroke-width="0.125" stroke-miterlimit="10" stroke-dasharray="2.6473,2.6473" d="
	M957.064,340.5c-317.646,0.036-633.831,0.036-951.583-0.107"/>
<path opacity="0.9" fill="none" stroke="#29ABE2" stroke-width="0.125" stroke-miterlimit="10" stroke-dasharray="2.6473,2.6473" d="
	M957.064,321.464c-317.646,0.037-633.831,0.037-951.584-0.107"/>
<path opacity="0.9" fill="none" stroke="#29ABE2" stroke-width="0.125" stroke-miterlimit="10" stroke-dasharray="2.6473,2.6473" d="
	M957.064,302.431c-317.646,0.036-633.831,0.036-951.583-0.106"/>
<path opacity="0.9" fill="none" stroke="#29ABE2" stroke-width="0.125" stroke-miterlimit="10" stroke-dasharray="2.6473,2.6473" d="
	M957.064,283.396c-317.646,0.036-633.831,0.036-951.583-0.107"/>
<path opacity="0.9" fill="none" stroke="#29ABE2" stroke-width="0.125" stroke-miterlimit="10" stroke-dasharray="2.6473,2.6473" d="
	M957.064,264.36c-317.646,0.038-633.831,0.038-951.584-0.107"/>
<path opacity="0.9" fill="none" stroke="#29ABE2" stroke-width="0.125" stroke-miterlimit="10" stroke-dasharray="2.6473,2.6473" d="
	M957.064,245.327c-317.646,0.037-633.831,0.037-951.583-0.107"/>
<path opacity="0.9" fill="none" stroke="#29ABE2" stroke-width="0.125" stroke-miterlimit="10" stroke-dasharray="2.6473,2.6473" d="
	M957.064,226.292c-317.646,0.037-633.831,0.037-951.583-0.107"/>
<path opacity="0.9" fill="none" stroke="#29ABE2" stroke-width="0.125" stroke-miterlimit="10" stroke-dasharray="2.6473,2.6473" d="
	M957.064,207.258c-317.646,0.036-633.831,0.036-951.583-0.107"/>
<path opacity="0.9" fill="none" stroke="#29ABE2" stroke-width="0.125" stroke-miterlimit="10" stroke-dasharray="2.6473,2.6473" d="
	M957.064,188.223c-317.646,0.037-633.831,0.037-951.583-0.107"/>
<path opacity="0.9" fill="none" stroke="#29ABE2" stroke-width="0.125" stroke-miterlimit="10" stroke-dasharray="2.6473,2.6473" d="
	M957.064,169.188c-317.646,0.037-633.831,0.037-951.583-0.106"/>
<path opacity="0.9" fill="none" stroke="#29ABE2" stroke-width="0.125" stroke-miterlimit="10" stroke-dasharray="2.6473,2.6473" d="
	M957.064,150.154c-317.646,0.036-633.831,0.036-951.583-0.107"/>
<path opacity="0.9" fill="none" stroke="#29ABE2" stroke-width="0.125" stroke-miterlimit="10" stroke-dasharray="2.6473,2.6473" d="
	M957.064,131.119c-317.646,0.037-633.831,0.037-951.583-0.107"/>
<path opacity="0.9" fill="none" stroke="#29ABE2" stroke-width="0.125" stroke-miterlimit="10" stroke-dasharray="2.6473,2.6473" d="
	M957.064,112.084c-317.646,0.037-633.831,0.037-951.584-0.107"/>
<path opacity="0.9" fill="none" stroke="#29ABE2" stroke-width="0.125" stroke-miterlimit="10" stroke-dasharray="2.6473,2.6473" d="
	M957.064,93.05c-317.646,0.037-633.831,0.037-951.583-0.107"/>
<path opacity="0.9" fill="none" stroke="#29ABE2" stroke-width="0.125" stroke-miterlimit="10" stroke-dasharray="2.6473,2.6473" d="
	M957.064,74.016c-317.646,0.037-633.831,0.037-951.583-0.107"/>
<path opacity="0.9" fill="none" stroke="#29ABE2" stroke-width="0.125" stroke-miterlimit="10" stroke-dasharray="2.6473,2.6473" d="
	M957.064,54.981C639.419,55.018,323.233,55.018,5.48,54.874"/>
<path opacity="0.9" fill="none" stroke="#29ABE2" stroke-width="0.125" stroke-miterlimit="10" stroke-dasharray="2.6473,2.6473" d="
	M957.065,35.946C639.419,35.983,323.233,35.983,5.482,35.84"/>
<path opacity="0.9" fill="none" stroke="#29ABE2" stroke-width="0.125" stroke-miterlimit="10" stroke-dasharray="2.6473,2.6473" d="
	M957.064,16.912c-317.646,0.037-633.831,0.037-951.583-0.107"/>
<path opacity="0.9" fill="none" stroke="#29ABE2" stroke-width="0.125" stroke-miterlimit="10" stroke-dasharray="2.6473,2.6473" d="
	M954.875,532.173c0.764-1.466,1.515-2.938,2.246-4.42"/>
<path opacity="0.9" fill="none" stroke="#29ABE2" stroke-width="0.125" stroke-miterlimit="10" stroke-dasharray="2.6473,2.6473" d="
	M932.541,532.047c8.145-14.137,16.322-28.255,24.563-42.336"/>
<path opacity="0.9" fill="none" stroke="#29ABE2" stroke-width="0.125" stroke-miterlimit="10" stroke-dasharray="2.6473,2.6473" d="
	M911.015,532.055c15.604-26.648,31.147-53.336,46.069-80.375"/>
<path opacity="0.9" fill="none" stroke="#29ABE2" stroke-width="0.125" stroke-miterlimit="10" stroke-dasharray="2.6473,2.6473" d="
	M888.274,532.222c9.168-16.145,18.686-30.949,27.146-47.869c4.229-7.402,9.518-13.747,13.747-21.149
	c7.402-13.747,15.862-26.437,23.265-40.184c2.115-3.173,3.172-6.346,4.613-9.342"/>
<path opacity="0.9" fill="none" stroke="#29ABE2" stroke-width="0.125" stroke-miterlimit="10" stroke-dasharray="2.6473,2.6473" d="
	M866.934,532.067c24.039-41.11,48.052-82.238,71.591-123.638c6.248-10.988,12.462-21.995,18.636-33.023"/>
<path opacity="0.9" fill="none" stroke="#29ABE2" stroke-width="0.125" stroke-miterlimit="10" stroke-dasharray="2.6473,2.6473" d="
	M844.727,532.395c24.063-41.168,48.029-82.394,71.778-123.743c13.593-23.663,27.113-47.367,40.546-71.122"/>
<path opacity="0.9" fill="none" stroke="#29ABE2" stroke-width="0.125" stroke-miterlimit="10" stroke-dasharray="2.6473,2.6473" d="
	M823.319,531.998c23.218-42.109,47.652-83.528,71.989-124.995c20.928-35.661,41.795-71.365,61.761-107.576"/>
<path opacity="0.9" fill="none" stroke="#29ABE2" stroke-width="0.125" stroke-miterlimit="10" stroke-dasharray="2.6473,2.6473" d="
	M800.115,531.863c51.856-90.867,105.787-179.695,156.904-270.423"/>
<path opacity="0.9" fill="none" stroke="#29ABE2" stroke-width="0.125" stroke-miterlimit="10" stroke-dasharray="2.6473,2.6473" d="
	M779.184,532.043c23.772-41.25,47.518-82.517,71.228-123.804c24.207-42.153,48.066-84.518,72.974-126.262
	c11.56-19.373,23.04-38.803,33.688-58.695"/>
<path opacity="0.9" fill="none" stroke="#29ABE2" stroke-width="0.125" stroke-miterlimit="10" stroke-dasharray="2.6473,2.6473" d="
	M756.534,532.375c24.206-41.529,48.477-83.022,72.681-124.554c23.947-41.09,47.828-82.22,71.511-123.464
	c18.915-32.939,37.703-65.952,56.305-99.071"/>
<path opacity="0.9" fill="none" stroke="#29ABE2" stroke-width="0.125" stroke-miterlimit="10" stroke-dasharray="2.6473,2.6473" d="
	M735.371,532.03c21.428-37.103,41.52-71.999,63.727-109.011c43.356-77.196,85.655-148.047,129.012-225.243
	c2.115-4.23,4.23-9.518,6.345-13.748c5.288-7.402,8.46-14.804,13.747-22.207c4.23-4.23,7.402-9.518,8.924-14.533"/>
<path opacity="0.9" fill="none" stroke="#29ABE2" stroke-width="0.125" stroke-miterlimit="10" stroke-dasharray="2.6473,2.6473" d="
	M712.02,532.312c56.411-96.604,109.285-190.719,168.504-289.064c9.518-16.919,16.919-32.782,27.494-48.644
	c2.115-3.173,2.115-6.345,4.229-9.518c7.402-11.632,12.69-23.264,20.093-34.896c7.402-9.518,11.632-19.035,17.977-29.609
	c2.115-3.172,3.173-7.402,6.562-10.479"/>
<path opacity="0.9" fill="none" stroke="#29ABE2" stroke-width="0.125" stroke-miterlimit="10" stroke-dasharray="2.6473,2.6473" d="
	M690.579,532.191c24.452-42.583,49.001-85.11,73.72-127.539c24.695-42.386,49.351-84.793,73.654-127.404
	c11.953-20.953,23.444-42.285,36.123-62.809c12.036-19.484,22.575-39.992,34.305-59.763c16.394-27.63,32.563-55.4,48.703-83.179"/>
<path opacity="0.9" fill="none" stroke="#29ABE2" stroke-width="0.125" stroke-miterlimit="10" stroke-dasharray="2.6473,2.6473" d="
	M668.644,532.396c31.052-56.504,63.833-109.377,96.615-166.481c3.172-6.345,6.345-12.689,10.574-19.034
	c24.322-45.472,49.701-86.713,75.081-132.185c37.012-62.391,70.851-121.61,106.071-182.13"/>
<path opacity="0.9" fill="none" stroke="#29ABE2" stroke-width="0.125" stroke-miterlimit="10" stroke-dasharray="2.6473,2.6473" d="
	M647.009,532.034c9.329-13.842,16.731-29.704,26.249-44.509c5.287-9.518,9.518-17.978,14.805-27.494
	c3.173-4.23,5.287-8.46,8.46-12.69c12.689-23.265,25.38-44.414,39.127-67.679c2.114-3.172,2.114-6.345,4.229-9.517
	c33.839-57.104,63.448-108.92,96.23-166.024c1.058-1.058,2.115-2.115,3.172-3.172c25.38-47.586,50.76-92,79.312-139.587
	c4.229-7.402,8.459-14.805,13.747-22.207c8.459-13.747,13.747-26.437,21.904-39.388"/>
<path opacity="0.9" fill="none" stroke="#29ABE2" stroke-width="0.125" stroke-miterlimit="10" stroke-dasharray="2.6473,2.6473" d="
	M624.899,532.05C728.247,355.341,828.707,176.627,932.403-0.473"/>
<path opacity="0.9" fill="none" stroke="#29ABE2" stroke-width="0.125" stroke-miterlimit="10" stroke-dasharray="2.6473,2.6473" d="
	M603.249,531.988c23.797-41.574,47.717-83.08,71.634-124.588c23.957-41.579,47.906-83.162,71.722-124.822
	c24.157-42.256,48.608-84.338,72.982-126.469c23.929-41.361,47.83-82.738,71.862-124.038c6.297-10.822,12.603-21.639,18.921-32.448"
	/>
<path opacity="0.9" fill="none" stroke="#29ABE2" stroke-width="0.125" stroke-miterlimit="10" stroke-dasharray="2.6473,2.6473" d="
	M581.059,532.005c1.804-5.556,5.365-10.439,8.346-15.428c3.08-5.154,6.152-10.313,9.213-15.479
	c5.983-10.094,11.93-20.21,17.826-30.354c11.763-20.235,23.323-40.589,34.646-61.074c23.283-42.126,48.416-83.31,72.762-124.83
	c24.494-41.772,48.873-83.598,72.859-125.664c23.623-41.427,47.562-82.673,71.326-124.019c6.778-11.791,13.54-23.591,20.278-35.405"
	/>
<path opacity="0.9" fill="none" stroke="#29ABE2" stroke-width="0.125" stroke-miterlimit="10" stroke-dasharray="2.6473,2.6473" d="
	M558.642,532.448c23.87-41.372,47.737-82.746,71.605-124.119c23.812-41.272,47.626-82.543,71.448-123.81
	c23.835-41.292,47.681-82.579,71.537-123.858c23.944-41.429,47.902-82.851,71.879-124.262c7.1-12.263,14.201-24.526,21.306-36.787"
	/>
<path opacity="0.9" fill="none" stroke="#29ABE2" stroke-width="0.125" stroke-miterlimit="10" stroke-dasharray="2.6473,2.6473" d="
	M536.765,532.001c23.949-41.446,47.889-82.897,71.825-124.351c23.846-41.295,47.688-82.593,71.536-123.888
	c23.844-41.288,47.692-82.573,71.553-123.852c23.943-41.422,47.899-82.838,71.874-124.242c6.981-12.056,13.963-24.111,20.947-36.164
	"/>
<path opacity="0.9" fill="none" stroke="#29ABE2" stroke-width="0.125" stroke-miterlimit="10" stroke-dasharray="2.6473,2.6473" d="
	M515.461,532.144c24.562-42.131,48.883-84.396,73.206-126.665c24.002-41.708,48.012-83.411,72.027-125.111
	c23.741-41.224,47.489-82.445,71.24-123.665c23.795-41.298,47.594-82.594,71.392-123.891c6.354-11.026,12.71-22.054,19.063-33.08"/>
<path opacity="0.9" fill="none" stroke="#29ABE2" stroke-width="0.125" stroke-miterlimit="10" stroke-dasharray="2.6473,2.6473" d="
	M492.414,532.234c24.389-42.364,48.896-84.646,73.63-126.811c23.943-40.821,47.741-81.727,71.281-122.781
	c23.587-41.134,46.583-82.557,70.164-123.682c11.669-20.348,24.191-40.195,35.893-60.501c2.878-4.997,6.343-9.532,8.329-14.957
	c1.975-5.396,5.573-10.31,8.455-15.272c5.979-10.292,12.137-20.464,18.212-30.697c7.455-12.558,14.503-25.353,22.059-37.852"/>
<path opacity="0.9" fill="none" stroke="#29ABE2" stroke-width="0.125" stroke-miterlimit="10" stroke-dasharray="2.6473,2.6473" d="
	M471.78,531.88c51.317-87.711,101.018-174.424,151.777-265.367c12.689-22.207,24.322-43.356,38.069-66.621
	c3.172-4.23,5.287-8.46,8.46-12.689c2.114-3.173,2.114-6.345,4.229-9.518c22.207-35.954,40.185-69.793,61.334-105.748
	c4.229-6.345,7.402-12.689,12.689-17.977c1.058-1.058,0-3.172,1.058-4.23c10.574-16.919,17.977-33.839,29.074-50.065"/>
<path opacity="0.9" fill="none" stroke="#29ABE2" stroke-width="0.125" stroke-miterlimit="10" stroke-dasharray="2.6473,2.6473" d="
	M448.495,532.209C551.648,355.341,653.166,176.627,756.485-0.328"/>
<path opacity="0.9" fill="none" stroke="#29ABE2" stroke-width="0.125" stroke-miterlimit="10" stroke-dasharray="2.6473,2.6473" d="
	M427.433,531.986c6.216-10.335,12.451-20.572,18.278-31.138c2.863-5.19,6.469-10.287,8.848-15.703
	c2.357-5.364,4.795-10.278,7.772-15.375c11.938-20.437,24.057-40.766,35.812-61.308c23.814-41.612,48.031-82.986,72.099-124.456
	c23.868-41.13,47.685-82.291,71.76-123.3c24.381-41.533,47.999-83.526,72-125.282c6.84-11.899,13.673-23.803,20.484-35.718"/>
<path opacity="0.9" fill="none" stroke="#29ABE2" stroke-width="0.125" stroke-miterlimit="10" stroke-dasharray="2.6473,2.6473" d="
	M405.925,531.88c10.366-17.918,19.883-35.895,30.458-53.872c70.851-122.667,136.415-235.817,206.208-358.484
	c6.345-8.46,10.575-16.919,16.92-26.437c3.173-6.345,6.345-11.632,9.518-17.977c3.172-4.23,5.287-8.459,8.46-12.689
	c11.632-21.149,23.264-41.242,34.984-62.652"/>
<path opacity="0.9" fill="none" stroke="#29ABE2" stroke-width="0.125" stroke-miterlimit="10" stroke-dasharray="2.6473,2.6473" d="
	M383.656,531.955c24.417-42.117,48.645-84.363,72.918-126.529c24.301-42.212,48.563-84.447,72.83-126.679
	c23.927-41.64,47.858-83.277,71.842-124.884c24.004-41.643,48.06-83.256,72.208-124.814c5.718-9.839,11.44-19.675,17.169-29.507"/>
<path opacity="0.9" fill="none" stroke="#29ABE2" stroke-width="0.125" stroke-miterlimit="10" stroke-dasharray="2.6473,2.6473" d="
	M361.267,532.185c6.183-10.454,12.53-20.789,18.557-31.336c2.797-4.894,5.147-9.831,7.628-14.833
	c2.541-5.122,6.089-9.903,8.773-15.011c5.292-10.068,11.246-19.821,16.987-29.644c2.911-4.981,5.902-9.916,9.09-14.727
	c3.208-4.841,4.893-10.071,7.797-15.05c24.225-41.534,48.362-83.121,72.403-124.764c23.936-41.459,47.775-82.974,71.539-124.533
	c11.707-20.476,23.968-40.652,35.896-61.003c5.966-10.179,11.962-20.341,18.063-30.439c5.72-9.465,11.611-19.496,16.182-29.474
	c1.618-3.532,4.226-6.739,6.124-10.162c1.979-3.568,3.793-7.224,5.752-10.803c3.836-7.012,8.087-14.1,12.523-20.755"/>
<path opacity="0.9" fill="none" stroke="#29ABE2" stroke-width="0.125" stroke-miterlimit="10" stroke-dasharray="2.6473,2.6473" d="
	M338.596,532.341c23.688-41.071,47.341-82.163,70.993-123.255c23.643-41.077,47.287-82.155,70.964-123.215
	c24.082-41.76,48.2-83.5,72.385-125.203c11.983-20.664,24.354-41.083,36.395-61.711c2.893-4.955,5.792-9.906,8.746-14.824
	c2.961-4.93,6.833-9.841,8.992-15.17c4.338-10.705,11.191-20.403,16.896-30.483c3.79-6.698,7.507-13.437,11.256-20.158
	c3.404-6.101,6.818-13.159,11.303-18.54"/>
<path opacity="0.9" fill="none" stroke="#29ABE2" stroke-width="0.125" stroke-miterlimit="10" stroke-dasharray="2.6473,2.6473" d="
	M317.84,532.123c23.657-41.41,47.295-82.831,70.998-124.215c23.403-40.861,46.869-81.686,70.472-122.43
	c24.237-41.838,48.967-83.396,72.966-125.369c23.997-41.969,47.619-84.163,72.121-125.84c6.778-11.53,13.573-23.052,20.241-34.646"
	/>
<path opacity="0.9" fill="none" stroke="#29ABE2" stroke-width="0.125" stroke-miterlimit="10" stroke-dasharray="2.6473,2.6473" d="
	M296.031,531.907c24.406-42.241,48.81-84.483,73.211-126.727c24.527-42.459,48.811-85.056,73.291-127.543
	c24.05-41.741,48.227-83.408,72.355-125.104c23.988-41.451,47.928-82.931,71.645-124.538c5.354-9.392,10.696-18.792,16.025-28.198"
	/>
<path opacity="0.9" fill="none" stroke="#29ABE2" stroke-width="0.125" stroke-miterlimit="10" stroke-dasharray="2.6473,2.6473" d="
	M273.052,532.306c16.342-27.861,32.205-54.298,47.009-81.792c4.23-6.345,7.402-12.689,10.575-19.035
	c61.333-104.689,116.322-200.92,177.656-305.61c24.321-43.356,48.644-83.541,72.356-126.189"/>
<path opacity="0.9" fill="none" stroke="#29ABE2" stroke-width="0.125" stroke-miterlimit="10" stroke-dasharray="2.6473,2.6473" d="
	M250.906,532.176c24.106-41.662,48.207-83.327,72.291-125.002c24.291-42.034,48.564-84.077,72.812-126.135
	c24.471-42.442,48.489-85.179,73.484-127.313c6.025-10.157,12.07-20.302,18.109-30.45c3.035-5.101,6.068-10.203,9.097-15.309
	c2.969-5.005,6.439-9.924,8.42-15.409c1.952-5.405,5.488-10.123,8.486-15.003c3.026-4.926,6.013-9.875,8.961-14.847
	c5.797-9.775,11.444-19.639,16.98-29.565c3.133-5.617,6.229-11.255,9.301-16.906c1.564-2.879,3.123-5.763,4.675-8.649
	c1.525-2.834,3.81-5.192,5.205-8.01"/>
<path opacity="0.9" fill="none" stroke="#29ABE2" stroke-width="0.125" stroke-miterlimit="10" stroke-dasharray="2.6473,2.6473" d="
	M229.518,532.163c12.297-19.746,24.021-40.231,34.997-60.729c2.678-5.001,6.603-9.696,8.612-14.973
	c2.075-5.448,5.243-9.813,8.368-14.721c6.028-9.465,11.856-19.163,17.076-29.097c10.838-20.625,23.572-40.112,35.344-60.353
	c12.2-20.975,24.337-41.987,36.432-63.022c23.773-41.345,47.385-82.78,71.031-124.197c23.489-41.141,47.012-82.262,70.768-123.25
	c8.127-14.021,16.28-28.027,24.468-42.014"/>
<path opacity="0.9" fill="none" stroke="#29ABE2" stroke-width="0.125" stroke-miterlimit="10" stroke-dasharray="2.6473,2.6473" d="
	M207.305,532.314c5.494-10.535,11.558-20.768,18.074-30.701c3.16-4.816,5.616-10.016,8.385-15.06
	c2.771-5.049,6.26-9.538,8.243-14.957c1.975-5.396,5.573-10.31,8.456-15.272c2.939-5.059,5.854-10.134,8.828-15.173
	c5.979-10.129,12.584-19.758,18.313-30.058c5.695-10.241,11.414-20.47,17.482-30.496c1.489-2.46,3.207-4.86,4.528-7.412
	c1.287-2.485,1.769-5.287,3.155-7.732c2.892-5.103,6.46-9.902,9.55-14.896c12.041-19.463,22.788-39.676,33.929-59.657
	c23.416-41.995,48.208-83.266,72.301-124.878c23.634-40.822,47.228-81.667,70.828-122.508c8.431-14.591,16.862-29.181,25.297-43.769
	"/>
<path opacity="0.9" fill="none" stroke="#29ABE2" stroke-width="0.125" stroke-miterlimit="10" stroke-dasharray="2.6473,2.6473" d="
	M185.939,532.104c24.301-42.056,48.599-84.113,72.896-126.17c24.548-42.493,49.104-84.978,73.368-127.633
	c23.819-41.873,47.893-83.601,72.021-125.296c23.905-41.309,47.86-82.589,71.656-123.961c5.624-9.779,11.239-19.562,16.843-29.352"
	/>
<path opacity="0.9" fill="none" stroke="#29ABE2" stroke-width="0.125" stroke-miterlimit="10" stroke-dasharray="2.6473,2.6473" d="
	M163.581,532.124c24.064-41.486,48.006-83.044,71.892-124.634c23.642-41.166,47.229-82.362,70.833-123.55
	c23.513-41.028,47.044-82.048,70.664-123.016c23.682-41.077,47.453-82.102,71.382-123.036c7.456-12.752,14.926-25.497,22.414-38.23"
	/>
<path opacity="0.9" fill="none" stroke="#29ABE2" stroke-width="0.125" stroke-miterlimit="10" stroke-dasharray="2.6473,2.6473" d="
	M140.843,531.948c24.339-42.053,48.653-84.122,72.957-126.195c23.984-41.521,47.96-83.049,71.944-124.571
	c23.851-41.292,47.71-82.58,71.594-123.854c23.938-41.367,47.901-82.719,71.906-124.047c6.515-11.216,13.033-22.431,19.554-33.644"
	/>
<path opacity="0.9" fill="none" stroke="#29ABE2" stroke-width="0.125" stroke-miterlimit="10" stroke-dasharray="2.6473,2.6473" d="
	M119.054,532.053c24.228-42.011,48.447-84.028,72.651-126.053c24.48-42.502,48.804-85.099,73.494-127.48
	c24.109-41.383,48.129-82.819,72.055-124.31c23.941-41.517,46.823-83.829,71.839-124.701c6.046-9.878,11.686-19.999,17.728-29.88"/>
<path opacity="0.9" fill="none" stroke="#29ABE2" stroke-width="0.125" stroke-miterlimit="10" stroke-dasharray="2.6473,2.6473" d="
	M97.832,532.165c4.912-10.136,11.022-19.603,16.843-29.225c6.023-9.956,11.082-20.411,16.881-30.492
	c5.907-10.271,12.568-20.009,18.114-30.48c2.677-5.053,6.515-9.792,8.795-14.983c2.359-5.37,4.813-10.246,7.819-15.334
	c24.234-41.014,48.348-82.1,72.34-123.256c23.877-40.959,47.635-81.989,71.299-123.071c11.939-20.727,23.649-41.558,35.289-62.436
	c11.512-20.65,24.223-40.601,35.939-61.136c7.982-13.99,15.781-28.083,23.688-42.116"/>
<path opacity="0.9" fill="none" stroke="#29ABE2" stroke-width="0.125" stroke-miterlimit="10" stroke-dasharray="2.6473,2.6473" d="
	M74.265,532.374C177.302,354.283,279.877,177.685,382.851-0.348"/>
<path opacity="0.9" fill="none" stroke="#29ABE2" stroke-width="0.125" stroke-miterlimit="10" stroke-dasharray="2.6473,2.6473" d="
	M53.386,532.395c10.766-22.662,26.628-41.697,36.146-64.961c19.035-27.495,33.839-57.104,50.759-86.714
	c4.23-7.402,8.46-13.747,13.747-21.149c13.748-23.265,23.265-44.414,38.069-67.678c2.115-4.23,4.23-7.402,7.402-11.633
	c23.265-41.242,46.529-79.311,68.736-120.552c3.172-4.23,5.288-8.46,8.46-12.689c13.747-26.437,27.494-49.702,43.356-76.139
	c13.747-24.322,25.379-48.644,40.794-71.199"/>
<path opacity="0.9" fill="none" stroke="#29ABE2" stroke-width="0.125" stroke-miterlimit="10" stroke-dasharray="2.6473,2.6473" d="
	M31.749,531.998c20.771-37.07,41.92-71.967,63.07-108.979c9.517-15.862,17.977-31.725,26.437-47.587
	c6.345-9.518,11.632-19.034,17.977-29.609c4.23-7.402,7.402-14.805,11.632-22.207c15.862-26.437,31.725-50.759,46.529-77.196
	c48.644-84.598,95.173-163.909,142.099-246.805"/>
<path opacity="0.9" fill="none" stroke="#29ABE2" stroke-width="0.125" stroke-miterlimit="10" stroke-dasharray="2.6473,2.6473" d="
	M8.983,532.051c13.927-25.491,29.79-48.756,42.479-74.135c3.173-4.23,5.288-8.46,8.46-12.689
	c6.345-10.575,10.575-20.093,16.919-30.667c10.575-16.92,21.15-31.725,28.552-48.645c8.459-17.977,19.034-32.781,27.494-49.701
	c3.172-6.345,7.402-11.632,11.632-17.977c8.46-14.805,17.977-29.61,26.437-45.472c1.057-2.115,3.172-4.23,5.287-6.345
	c2.115-2.115,2.115-5.287,3.172-8.459c32.782-59.219,65.563-113.15,98.345-172.369c3.173-4.23,5.288-8.46,8.46-12.69
	c2.115-3.172,2.115-6.345,4.23-9.517c10.575-14.805,16.919-29.609,26.249-43.641"/>
<path opacity="0.9" fill="none" stroke="#29ABE2" stroke-width="0.125" stroke-miterlimit="10" stroke-dasharray="2.6473,2.6473" d="
	M5.496,500.976c10.45-20.549,23.367-39.829,34.694-59.905c11.61-20.577,23.102-41.226,35.269-61.482
	c3.115-5.186,6.273-10.348,9.482-15.476c1.516-2.422,3.301-4.801,4.528-7.384c1.214-2.557,1.813-5.258,3.235-7.732
	c5.81-10.11,11.608-20.233,17.425-30.343c5.892-10.24,12.745-19.838,18.52-30.141c5.807-10.357,11.797-20.61,17.799-30.856
	c11.941-20.379,22.973-41.319,34.994-61.62c6.091-10.286,11.514-20.968,17.565-31.297c6.164-10.521,12.318-21.049,18.464-31.58
	c24.123-41.333,48.12-82.739,72.068-124.173c1.777-3.074,3.553-6.147,5.33-9.222"/>
<path opacity="0.9" fill="none" stroke="#29ABE2" stroke-width="0.125" stroke-miterlimit="10" stroke-dasharray="2.6473,2.6473" d="
	M-12.236,532.258c0.701-1.958,1.485-3.887,2.841-5.492"/>
<path opacity="0.9" fill="none" stroke="#29ABE2" stroke-width="0.125" stroke-miterlimit="10" stroke-dasharray="2.6473,2.6473" d="
	M5.626,462.679c23.789-41.397,47.636-82.762,71.521-124.104c23.803-41.199,47.645-82.377,71.503-123.544
	c23.927-41.284,47.871-82.557,71.812-123.833c17.728-30.563,35.454-61.127,53.169-91.697"/>
<path opacity="0.9" fill="none" stroke="#29ABE2" stroke-width="0.125" stroke-miterlimit="10" stroke-dasharray="2.6473,2.6473" d="
	M5.605,424.644c4.637-9.965,11.15-18.859,16.867-28.201c2.87-4.688,4.356-9.833,7.095-14.532c3.005-5.159,6.375-10.113,9.404-15.265
	c5.858-9.965,11.344-20.141,17.046-30.193c2.901-5.116,6.061-9.982,9.193-14.951c1.474-2.338,3.206-4.564,4.603-6.939
	c1.425-2.424,1.843-5.261,3.155-7.732c2.649-4.992,6.751-9.281,9.45-14.228c1.222-2.239,1.612-4.562,3.073-6.74
	c1.692-2.52,3.224-5.143,4.683-7.803c5.641-10.276,11.205-20.565,17.078-30.715c11.972-20.689,24.727-40.926,36.628-61.65
	c24.436-42.552,48.895-85.09,73.374-127.617c11.184-19.429,22.371-38.856,33.563-58.281"/>
<path opacity="0.9" fill="none" stroke="#29ABE2" stroke-width="0.125" stroke-miterlimit="10" stroke-dasharray="2.6473,2.6473" d="
	M5.584,386.615c4.461-9.984,11.761-18.249,15.834-28.301c2.161-5.331,5.846-10.312,8.734-15.292
	c2.943-5.074,5.87-10.159,8.862-15.206c2.955-4.984,6.211-9.896,9.493-14.679c3.149-4.589,4.769-10.135,7.689-14.963
	c5.98-9.887,11.699-19.928,17.41-29.972c5.661-9.956,11.326-19.91,17.258-29.708c3.09-5.104,6.265-10.153,9.5-15.167
	c3.062-4.748,4.713-10.206,7.69-15.088c12.49-20.485,24.721-41.115,36.79-61.85c23.939-41.127,47.917-82.233,71.547-123.54
	c4.358-7.618,8.705-15.244,13.037-22.876"/>
<path opacity="0.9" fill="none" stroke="#29ABE2" stroke-width="0.125" stroke-miterlimit="10" stroke-dasharray="2.6473,2.6473" d="
	M5.54,348.621c10.761-20.219,23.514-39.486,34.731-59.529c5.604-10.014,11.208-20.027,17.087-29.883
	c2.964-4.97,6.782-9.875,9.106-15.167c2.341-5.329,4.799-10.158,7.755-15.218c5.806-9.939,11.42-19.988,17.233-29.923
	c6.025-10.296,12.818-20.053,18.702-30.44c12.013-21.206,24.076-42.384,36.177-63.539c20.105-35.146,40.318-70.23,60.581-105.285"/>
<path opacity="0.9" fill="none" stroke="#29ABE2" stroke-width="0.125" stroke-miterlimit="10" stroke-dasharray="2.6473,2.6473" d="
	M5.635,310.386c23.559-41.558,47.373-82.97,71.307-124.312c23.985-41.432,48.09-82.793,72.172-124.168
	c12.062-20.723,24.12-41.45,36.156-62.189"/>
<path opacity="0.9" fill="none" stroke="#29ABE2" stroke-width="0.125" stroke-miterlimit="10" stroke-dasharray="2.6473,2.6473" d="
	M5.496,272.559c5.269-10.359,11.462-20.209,17.629-30.048c3.104-4.952,6.43-9.689,8.444-15.191c1.97-5.382,5.908-10.03,8.905-14.897
	c12.415-20.161,23.937-40.922,35.754-61.438c24.292-42.171,48.6-84.333,72.918-126.489c4.699-8.145,9.397-16.29,14.097-24.434"/>
<path opacity="0.9" fill="none" stroke="#29ABE2" stroke-width="0.125" stroke-miterlimit="10" stroke-dasharray="2.6473,2.6473" d="
	M5.463,234.547c6.873-13.506,14.275-25.138,22.735-37.828C67.324,129.041,104.336,65.592,141.625-0.188"/>
<path opacity="0.9" fill="none" stroke="#29ABE2" stroke-width="0.125" stroke-miterlimit="10" stroke-dasharray="2.6473,2.6473" d="
	M5.523,196.371c23.854-41.336,47.816-82.611,71.798-123.875c14.036-24.15,28.078-48.297,42.109-72.45"/>
<path opacity="0.9" fill="none" stroke="#29ABE2" stroke-width="0.125" stroke-miterlimit="10" stroke-dasharray="2.6473,2.6473" d="
	M5.482,158.375C34.542,104.719,66.267,52.902,97.076-0.424"/>
<path opacity="0.9" fill="none" stroke="#29ABE2" stroke-width="0.125" stroke-miterlimit="10" stroke-dasharray="2.6473,2.6473" d="
	M5.507,120.262C28.146,79.902,51.145,39.747,74.334-0.299"/>
<path opacity="0.9" fill="none" stroke="#29ABE2" stroke-width="0.125" stroke-miterlimit="10" stroke-dasharray="2.6473,2.6473" d="
	M5.586,82.058C20.798,54.235,36.85,26.884,52.925-0.446"/>
<path opacity="0.9" fill="none" stroke="#29ABE2" stroke-width="0.125" stroke-miterlimit="10" stroke-dasharray="2.6473,2.6473" d="
	M5.522,44.099C13.943,29.235,22.516,14.457,31.125-0.3"/>
<path opacity="0.9" fill="none" stroke="#29ABE2" stroke-width="0.125" stroke-miterlimit="10" stroke-dasharray="2.6473,2.6473" d="
	M5.485,6.092c1.173-2.094,2.348-4.187,3.522-6.28"/>
<path opacity="0.9" fill="none" stroke="#29ABE2" stroke-width="0.125" stroke-miterlimit="10" stroke-dasharray="2.6473,2.6473" d="
	M956.865,344.398c-24.57-42.558-49.141-85.115-73.712-127.672c-24.567-42.554-49.137-85.107-73.705-127.661
	c-17.231-29.846-34.463-59.692-51.694-89.538"/>
<path opacity="0.9" fill="none" stroke="#29ABE2" stroke-width="0.125" stroke-miterlimit="10" stroke-dasharray="2.6473,2.6473" d="
	M956.866,306.329c-36.159-64.138-73.171-125.472-110.183-192.093C824.477,75.109,802.27,38.098,779.789-0.375"/>
<path opacity="0.9" fill="none" stroke="#29ABE2" stroke-width="0.125" stroke-miterlimit="10" stroke-dasharray="2.6473,2.6473" d="
	M957.176,268.716C905.902,178.742,854.086,89.914,801.824-0.281"/>
<path opacity="0.9" fill="none" stroke="#29ABE2" stroke-width="0.125" stroke-miterlimit="10" stroke-dasharray="2.6473,2.6473" d="
	M956.879,230.326c-23.941-41.585-48.341-82.906-72.262-124.503c-10.225-17.779-20.379-35.667-29.916-53.807
	c-4.806-9.139-10.376-17.991-15.619-26.892c-2.521-4.28-5.547-8.197-7.932-12.557c-2.354-4.302-4.37-8.792-7.295-12.755"/>
<path opacity="0.9" fill="none" stroke="#29ABE2" stroke-width="0.125" stroke-miterlimit="10" stroke-dasharray="2.6473,2.6473" d="
	M957.046,191.288c-5.692-10.164-11.526-20.275-18.175-29.85c-3.227-4.646-4.772-10.114-7.805-14.953
	c-3.131-4.995-6.228-10.012-9.291-15.048c-12.229-20.103-23.891-40.529-35.521-60.98c-13.457-23.66-26.979-47.283-40.552-70.875"/>
<path opacity="0.9" fill="none" stroke="#29ABE2" stroke-width="0.125" stroke-miterlimit="10" stroke-dasharray="2.6473,2.6473" d="
	M956.972,153.882c-24.112-41.178-47.405-82.829-71.44-124.05c-5.882-10.086-11.809-20.146-17.801-30.167"/>
<path opacity="0.9" fill="none" stroke="#29ABE2" stroke-width="0.125" stroke-miterlimit="10" stroke-dasharray="2.6473,2.6473" d="
	M957.007,116.227C934.589,77.4,912.172,38.572,889.756-0.255"/>
<path opacity="0.9" fill="none" stroke="#29ABE2" stroke-width="0.125" stroke-miterlimit="10" stroke-dasharray="2.6473,2.6473" d="
	M957.017,78.326C941.871,52.053,926.73,25.777,911.593-0.5"/>
<path opacity="0.9" fill="none" stroke="#29ABE2" stroke-width="0.125" stroke-miterlimit="10" stroke-dasharray="2.6473,2.6473" d="
	M956.939,39.694c-7.681-13.228-14.025-26.976-23.329-40.126"/>
<path opacity="0.9" fill="none" stroke="#29ABE2" stroke-width="0.125" stroke-miterlimit="10" stroke-dasharray="2.6473,2.6473" d="
	M99.388,532.438c-31.006-54.43-62.731-108.361-93.866-163.469"/>
<path opacity="0.9" fill="none" stroke="#29ABE2" stroke-width="0.125" stroke-miterlimit="10" stroke-dasharray="2.6473,2.6473" d="
	M121.703,531.91c-23.906-41.399-47.826-82.792-71.753-124.179c-14.786-25.575-29.574-51.147-44.363-76.72"/>
<path opacity="0.9" fill="none" stroke="#29ABE2" stroke-width="0.125" stroke-miterlimit="10" stroke-dasharray="2.6473,2.6473" d="
	M144.546,532.262c-24.1-41.637-48.443-83.132-72.698-124.677c-22.281-38.163-44.481-76.373-66.341-114.779"/>
<path opacity="0.9" fill="none" stroke="#29ABE2" stroke-width="0.125" stroke-miterlimit="10" stroke-dasharray="2.6473,2.6473" d="
	M164.45,531.904c-23.808-41.133-47.565-82.292-71.264-123.487c-12.026-20.905-24.038-41.818-36.034-62.74
	c-6.018-10.496-11.995-20.997-17.774-31.626c-5.727-10.535-12.183-20.7-17.843-31.253c-2.509-4.678-4.244-9.964-7.841-13.869
	c-3.581-3.886-5.494-9.657-8.213-14.236"/>
<path opacity="0.9" fill="none" stroke="#29ABE2" stroke-width="0.125" stroke-miterlimit="10" stroke-dasharray="2.6473,2.6473" d="
	M187.289,532.312c-5.997-9.8-11.228-20.147-16.747-30.226c-5.751-10.501-12.038-20.715-18.16-31.003
	c-12.248-20.585-24.37-41.195-36.113-62.07c-23.403-41.602-47.869-82.588-71.862-123.85c-13.194-22.689-26.239-45.467-38.884-68.468
	"/>
<path opacity="0.9" fill="none" stroke="#29ABE2" stroke-width="0.125" stroke-miterlimit="10" stroke-dasharray="2.6473,2.6473" d="
	M209.773,532.045c-11.322-19.141-21.897-39.232-33.529-59.324c-40.184-69.794-78.253-133.242-117.38-203.036
	c-3.172-4.23-5.287-8.46-8.459-12.689C35.6,230.559,20.795,205.179,5.462,178.521"/>
<path opacity="0.9" fill="none" stroke="#29ABE2" stroke-width="0.125" stroke-miterlimit="10" stroke-dasharray="2.6473,2.6473" d="
	M231.747,531.946C158.267,400.812,80.014,271.8,5.496,140.509"/>
<path opacity="0.9" fill="none" stroke="#29ABE2" stroke-width="0.125" stroke-miterlimit="10" stroke-dasharray="2.6473,2.6473" d="
	M253.543,532.406C178.359,400.812,103.278,273.915,27.14,138.558c-7.402-11.632-14.805-23.265-21.505-35.875"/>
<path opacity="0.9" fill="none" stroke="#29ABE2" stroke-width="0.125" stroke-miterlimit="10" stroke-dasharray="2.6473,2.6473" d="
	M275.677,532.415c-4.26-9.993-10.604-17.396-14.834-26.913c-8.46-13.747-14.805-26.437-23.265-40.184
	c-3.172-4.23-5.287-8.46-8.459-12.689c-2.115-3.173-2.115-6.346-4.23-9.518c-40.184-65.563-72.966-126.897-113.15-192.461
	c-2.115-3.172-2.115-5.287-3.172-8.459C75.784,180.857,38.772,124.811,5.54,64.447"/>
<path opacity="0.9" fill="none" stroke="#29ABE2" stroke-width="0.125" stroke-miterlimit="10" stroke-dasharray="2.6473,2.6473" d="
	M296.796,531.939c-5.287-8.46-10.575-17.978-15.862-26.438c-5.288-9.517-9.518-17.977-14.805-27.494
	c-3.172-4.229-5.288-8.46-8.46-12.689c-4.23-6.345-6.345-11.633-9.517-17.978c-6.345-10.574-12.69-20.092-17.977-30.667
	c-16.92-30.666-33.839-59.218-51.816-89.885c-39.127-69.793-77.196-137.472-118.438-205.15
	c-6.345-17.978-19.035-32.782-27.494-48.644c-3.173-5.288-5.288-10.575-8.46-15.862c-7.402-9.517-11.632-21.149-18.385-30.679"/>
<path opacity="0.9" fill="none" stroke="#29ABE2" stroke-width="0.125" stroke-miterlimit="10" stroke-dasharray="2.6473,2.6473" d="
	M319.699,532.448c-42.994-71.36-82.121-141.153-123.362-214.119c-4.23-6.345-7.402-12.689-10.575-19.034
	c-35.954-62.392-69.793-120.553-105.748-182.944C56.75,77.225,35.6,38.098,12.244-0.08"/>
<line opacity="0.9" fill="none" stroke="#29ABE2" stroke-width="0.125" stroke-miterlimit="10" stroke-dasharray="2.6473,2.6473" x1="9.865" y1="416.53" x2="77.284" y2="529.513"/>
<line opacity="0.9" fill="none" stroke="#29ABE2" stroke-width="0.125" stroke-miterlimit="10" stroke-dasharray="2.6473,2.6473" x1="9.865" y1="454.599" x2="53.386" y2="532.395"/>
<line opacity="0.9" fill="none" stroke="#29ABE2" stroke-width="0.125" stroke-miterlimit="10" stroke-dasharray="2.6473,2.6473" x1="9.865" y1="493.496" x2="31.749" y2="531.998"/>
<line opacity="0.9" fill="none" stroke="#29ABE2" stroke-width="0.125" stroke-miterlimit="10" stroke-dasharray="2.6473,2.6473" x1="567.118" y1="251.449" x2="567.231" y2="251.25"/>
</svg>
